SplineFontDB: 3.0
FontName: .SFNSDisplay-Semibold
FullName: System Font SemiBold
FamilyName: System Font
Weight: Demi
Copyright: (c) 2014 Apple Inc. All rights reserved.
Version: 11.0d33e2--BETA
ItalicAngle: 0
UnderlinePosition: -125
UnderlineWidth: 50
Ascent: 1638
Descent: 410
InvalidEm: 0
sfntRevision: 0x00010000
LayerCount: 2
Layer: 0 1 "+BBcEMAQ0BD0EOAQ5 +BD8EOwQwBD0A" 1
Layer: 1 1 "+BB8ENQRABDUENAQ9BDgEOQAA +BD8EOwQwBD0A" 0
XUID: [1021 387 1340633646 9672235]
BaseHoriz: 4 'hang' 'ideo' 'math' 'romn'
BaseScript: 'cyrl' 3  0 -216 0 0
BaseScript: 'grek' 3  0 -216 0 0
BaseScript: 'latn' 3  0 -216 0 0
BaseScript: 'thai' 3  0 -216 0 0
StyleMap: 0x0000
FSType: 0
OS2Version: 3
OS2_WeightWidthSlopeOnly: 0
OS2_UseTypoMetrics: 0
CreationTime: 1432154314
ModificationTime: 1482947697
PfmFamily: 81
TTFWeight: 600
TTFWidth: 5
LineGap: 0
VLineGap: 0
Panose: 0 0 7 0 0 0 0 0 0 0
OS2TypoAscent: 1980
OS2TypoAOffset: 0
OS2TypoDescent: -432
OS2TypoDOffset: 0
OS2TypoLinegap: 0
OS2WinAscent: 1980
OS2WinAOffset: 0
OS2WinDescent: 432
OS2WinDOffset: 0
HheadAscent: 1980
HheadAOffset: 0
HheadDescent: -432
HheadDOffset: 0
OS2SubXSize: 1331
OS2SubYSize: 1228
OS2SubXOff: 0
OS2SubYOff: 153
OS2SupXSize: 1331
OS2SupYSize: 1228
OS2SupXOff: 0
OS2SupYOff: 716
OS2StrikeYSize: 50
OS2StrikeYPos: 655
OS2CapHeight: 1443
OS2XHeight: 1093
OS2Vendor: 'UKWN'
OS2CodePages: 2000019f.00000000
OS2UnicodeRanges: 2000028f.00000003.00000000.00000000
Lookup: 1 0 0 "'locl' Localized Forms in Latin lookup 0" { "'locl' Localized Forms in Latin lookup 0 subtable"  } ['locl' ('latn' <'MOL ' 'ROM ' > ) ]
Lookup: 1 0 0 "'locl' Localized Forms in Latin lookup 1" { "'locl' Localized Forms in Latin lookup 1 subtable"  } ['locl' ('latn' <'AZE ' 'CRT ' 'TRK ' > ) ]
Lookup: 4 0 0 "'locl' Localized Forms in Latin lookup 2" { "'locl' Localized Forms in Latin lookup 2 subtable"  } ['locl' ('latn' <'NLD ' > ) ]

StartChar: .notdef
Encoding: 65536 -1 0
Width: 1293
Flags: W
LayerCount: 2
Fore
SplineSet
120 0 m 1,0,-1
 120 1365 l 1,1,-1
 1173 1365 l 1,2,-1
 1173 0 l 1,3,-1
 120 0 l 1,0,-1
501 313 m 0,4,5
 501 266 501 266 534.5 236 c 128,-1,6
 568 206 568 206 621 206 c 0,7,8
 676 206 676 206 709.5 235.5 c 128,-1,9
 743 265 743 265 743 313 c 0,10,11
 743 362 743 362 709.5 391.5 c 128,-1,12
 676 421 676 421 621 421 c 0,13,14
 567 421 567 421 534 391 c 128,-1,15
 501 361 501 361 501 313 c 0,4,5
339 888 m 1,16,-1
 508 888 l 1,17,18
 509 947 509 947 542.5 982.5 c 128,-1,19
 576 1018 576 1018 633 1018 c 0,20,21
 687 1018 687 1018 720 988 c 128,-1,22
 753 958 753 958 753 908 c 0,23,24
 753 870 753 870 732.5 842.5 c 128,-1,25
 712 815 712 815 650 770 c 0,26,27
 581 722 581 722 554 670 c 128,-1,28
 527 618 527 618 532 549 c 2,29,-1
 533 531 l 1,30,-1
 699 531 l 1,31,-1
 699 546 l 2,32,33
 699 594 699 594 718 622 c 128,-1,34
 737 650 737 650 806 699 c 0,35,36
 879 751 879 751 909 801 c 128,-1,37
 939 851 939 851 939 917 c 0,38,39
 939 1030 939 1030 858 1098.5 c 128,-1,40
 777 1167 777 1167 643 1167 c 0,41,42
 500 1167 500 1167 417.5 1091 c 128,-1,43
 335 1015 335 1015 339 888 c 1,16,-1
EndSplineSet
EndChar

StartChar: exclam
Encoding: 33 33 4
Width: 611
GlyphClass: 2
Flags: W
LayerCount: 2
Fore
SplineSet
177 1443 m 1,0,-1
 434 1443 l 1,1,-1
 414 476 l 1,2,-1
 197 476 l 1,3,-1
 177 1443 l 1,0,-1
305 -20 m 128,-1,5
 244 -20 244 -20 202 21.5 c 128,-1,6
 160 63 160 63 160 122 c 128,-1,7
 160 181 160 181 202 222 c 128,-1,8
 244 263 244 263 305 263 c 128,-1,9
 366 263 366 263 408.5 222 c 128,-1,10
 451 181 451 181 451 122 c 128,-1,11
 451 63 451 63 408.5 21.5 c 128,-1,4
 366 -20 366 -20 305 -20 c 128,-1,5
EndSplineSet
EndChar

StartChar: quotedbl
Encoding: 34 34 5
Width: 884
GlyphClass: 2
Flags: W
LayerCount: 2
Fore
SplineSet
335 892 m 1,0,-1
 118 892 l 1,1,-1
 118 1443 l 1,2,-1
 335 1443 l 1,3,-1
 335 892 l 1,0,-1
766 892 m 1,4,-1
 549 892 l 1,5,-1
 549 1443 l 1,6,-1
 766 1443 l 1,7,-1
 766 892 l 1,4,-1
EndSplineSet
EndChar

StartChar: numbersign
Encoding: 35 35 6
Width: 1247
GlyphClass: 2
Flags: W
LayerCount: 2
Fore
SplineSet
1207 876 m 1,0,-1
 982 876 l 1,1,-1
 923 585 l 1,2,-1
 1136 585 l 1,3,-1
 1100 395 l 1,4,-1
 885 395 l 1,5,-1
 806 0 l 1,6,-1
 612 0 l 1,7,-1
 692 395 l 1,8,-1
 431 395 l 1,9,-1
 351 0 l 1,10,-1
 159 0 l 1,11,-1
 238 395 l 1,12,-1
 28 395 l 1,13,-1
 65 585 l 1,14,-1
 277 585 l 1,15,-1
 335 876 l 1,16,-1
 133 876 l 1,17,-1
 170 1063 l 1,18,-1
 372 1063 l 1,19,-1
 450 1443 l 1,20,-1
 642 1443 l 1,21,-1
 567 1063 l 1,22,-1
 827 1063 l 1,23,-1
 904 1443 l 1,24,-1
 1097 1443 l 1,25,-1
 1021 1063 l 1,26,-1
 1243 1063 l 1,27,-1
 1207 876 l 1,0,-1
521 887 m 1,28,-1
 457 572 l 1,29,-1
 736 572 l 1,30,-1
 801 887 l 1,31,-1
 521 887 l 1,28,-1
EndSplineSet
Substitution2: "'case' Case-Sensitive Forms in Latin lookup 4 subtable" numbersign.uc
EndChar

StartChar: dollar
Encoding: 36 36 7
Width: 1294
GlyphClass: 2
Flags: W
LayerCount: 2
Fore
SplineSet
721 -137 m 1,0,-1
 583 -137 l 1,1,-1
 583 -7 l 1,2,3
 359 7 359 7 229 117.5 c 128,-1,4
 99 228 99 228 98 405 c 1,5,-1
 342 405 l 1,6,7
 349 319 349 319 413.5 262.5 c 128,-1,8
 478 206 478 206 583 194 c 1,9,-1
 583 631 l 1,10,-1
 487 655 l 2,11,12
 313 697 313 697 221.5 797 c 128,-1,13
 130 897 130 897 130 1047 c 0,14,15
 130 1224 130 1224 250 1333.5 c 128,-1,16
 370 1443 370 1443 583 1462 c 1,17,-1
 583 1600 l 1,18,-1
 721 1600 l 1,19,-1
 721 1462 l 1,20,21
 923 1444 923 1444 1044.5 1332.5 c 128,-1,22
 1166 1221 1166 1221 1170 1052 c 1,23,-1
 931 1052 l 1,24,25
 929 1132 929 1132 870.5 1189 c 128,-1,26
 812 1246 812 1246 721 1258 c 1,27,-1
 721 843 l 1,28,-1
 820 822 l 1,29,30
 1010 777 1010 777 1103 679 c 128,-1,31
 1196 581 1196 581 1196 423 c 0,32,33
 1196 236 1196 236 1072 124.5 c 128,-1,34
 948 13 948 13 721 -5 c 1,35,-1
 721 -137 l 1,0,-1
953 397 m 0,36,37
 953 480 953 480 896.5 530.5 c 128,-1,38
 840 581 840 581 721 605 c 1,39,-1
 721 192 l 1,40,41
 831 199 831 199 892 253 c 128,-1,42
 953 307 953 307 953 397 c 0,36,37
376 1067 m 0,43,44
 376 992 376 992 429 942.5 c 128,-1,45
 482 893 482 893 583 872 c 1,46,-1
 583 1259 l 1,47,48
 493 1254 493 1254 434.5 1200 c 128,-1,49
 376 1146 376 1146 376 1067 c 0,43,44
EndSplineSet
EndChar

StartChar: percent
Encoding: 37 37 8
Width: 1580
GlyphClass: 2
Flags: W
LayerCount: 2
Fore
SplineSet
1533 350 m 0,0,1
 1533 181 1533 181 1446.5 81 c 128,-1,2
 1360 -19 1360 -19 1214 -19 c 128,-1,3
 1068 -19 1068 -19 981.5 81 c 128,-1,4
 895 181 895 181 895 350 c 0,5,6
 895 518 895 518 981.5 617.5 c 128,-1,7
 1068 717 1068 717 1214 717 c 0,8,9
 1361 717 1361 717 1447 617.5 c 128,-1,10
 1533 518 1533 518 1533 350 c 0,0,1
1214 137 m 128,-1,12
 1269 137 1269 137 1301 194 c 128,-1,13
 1333 251 1333 251 1333 350 c 0,14,15
 1333 450 1333 450 1302 505.5 c 128,-1,16
 1271 561 1271 561 1214 561 c 0,17,18
 1159 561 1159 561 1127.5 504.5 c 128,-1,19
 1096 448 1096 448 1096 350 c 128,-1,20
 1096 252 1096 252 1127.5 194.5 c 128,-1,11
 1159 137 1159 137 1214 137 c 128,-1,12
685 1108 m 0,21,22
 685 939 685 939 598.5 839 c 128,-1,23
 512 739 512 739 366 739 c 128,-1,24
 220 739 220 739 133.5 839 c 128,-1,25
 47 939 47 939 47 1108 c 0,26,27
 47 1276 47 1276 133.5 1375.5 c 128,-1,28
 220 1475 220 1475 366 1475 c 0,29,30
 513 1475 513 1475 599 1375.5 c 128,-1,31
 685 1276 685 1276 685 1108 c 0,21,22
366 895 m 128,-1,33
 421 895 421 895 453 952 c 128,-1,34
 485 1009 485 1009 485 1108 c 0,35,36
 485 1208 485 1208 454 1263.5 c 128,-1,37
 423 1319 423 1319 366 1319 c 0,38,39
 311 1319 311 1319 279.5 1262.5 c 128,-1,40
 248 1206 248 1206 248 1108 c 128,-1,41
 248 1010 248 1010 279.5 952.5 c 128,-1,32
 311 895 311 895 366 895 c 128,-1,33
370 0 m 1,42,-1
 144 0 l 1,43,-1
 1198 1443 l 1,44,-1
 1423 1443 l 1,45,-1
 370 0 l 1,42,-1
EndSplineSet
EndChar

StartChar: ampersand
Encoding: 38 38 9
Width: 1413
GlyphClass: 2
Flags: W
LayerCount: 2
Fore
SplineSet
1141 0 m 1,0,-1
 1021 129 l 1,1,2
 936 56 936 56 818 15.5 c 128,-1,3
 700 -25 700 -25 569 -25 c 0,4,5
 346 -25 346 -25 209.5 86.5 c 128,-1,6
 73 198 73 198 73 380 c 0,7,8
 73 505 73 505 139.5 599.5 c 128,-1,9
 206 694 206 694 346 770 c 0,10,11
 354 774 354 774 368.5 782 c 128,-1,12
 383 790 383 790 394 795.5 c 128,-1,13
 405 801 405 801 407 802 c 1,14,15
 310 904 310 904 269 979.5 c 128,-1,16
 228 1055 228 1055 228 1134 c 0,17,18
 228 1276 228 1276 340 1370 c 128,-1,19
 452 1464 452 1464 621 1464 c 0,20,21
 791 1464 791 1464 900 1372 c 128,-1,22
 1009 1280 1009 1280 1009 1137 c 0,23,24
 1009 1026 1009 1026 937.5 936.5 c 128,-1,25
 866 847 866 847 711 764 c 1,26,-1
 1015 435 l 1,27,28
 1073 539 1073 539 1073 748 c 2,29,-1
 1073 812 l 1,30,-1
 1289 812 l 1,31,-1
 1289 737 l 2,32,33
 1289 452 1289 452 1168 277 c 1,34,-1
 1431 0 l 1,35,-1
 1141 0 l 1,0,-1
485 643 m 0,36,37
 392 585 392 585 351.5 528.5 c 128,-1,38
 311 472 311 472 311 399 c 0,39,40
 311 294 311 294 389 229 c 128,-1,41
 467 164 467 164 594 164 c 0,42,43
 679 164 679 164 758.5 194.5 c 128,-1,44
 838 225 838 225 885 277 c 1,45,-1
 527 666 l 1,46,47
 501 655 501 655 485 643 c 0,36,37
590 887 m 1,48,49
 699 943 699 943 746.5 997.5 c 128,-1,50
 794 1052 794 1052 794 1122 c 0,51,52
 794 1196 794 1196 746 1242.5 c 128,-1,53
 698 1289 698 1289 622 1289 c 128,-1,54
 546 1289 546 1289 497.5 1241.5 c 128,-1,55
 449 1194 449 1194 449 1121 c 0,56,57
 449 1068 449 1068 480.5 1015.5 c 128,-1,58
 512 963 512 963 590 887 c 1,48,49
EndSplineSet
EndChar

StartChar: quotesingle
Encoding: 39 39 10
Width: 453
GlyphClass: 2
Flags: W
LayerCount: 2
Fore
SplineSet
335 892 m 1,0,-1
 118 892 l 1,1,-1
 118 1443 l 1,2,-1
 335 1443 l 1,3,-1
 335 892 l 1,0,-1
EndSplineSet
EndChar

StartChar: parenleft
Encoding: 40 40 11
Width: 683
GlyphClass: 2
Flags: W
LayerCount: 2
Fore
SplineSet
649 -277 m 1,0,-1
 418 -277 l 1,1,2
 365 -210 365 -210 320 -128.5 c 128,-1,3
 275 -47 275 -47 234.5 61.5 c 128,-1,4
 194 170 194 170 171 308.5 c 128,-1,5
 148 447 148 447 148 599 c 0,6,7
 148 753 148 753 169.5 881.5 c 128,-1,8
 191 1010 191 1010 233 1111.5 c 128,-1,9
 275 1213 275 1213 320 1287.5 c 128,-1,10
 365 1362 365 1362 428 1442 c 1,11,-1
 652 1442 l 1,12,13
 610 1394 610 1394 569 1317 c 128,-1,14
 528 1240 528 1240 490 1135 c 128,-1,15
 452 1030 452 1030 428 889.5 c 128,-1,16
 404 749 404 749 404 601 c 0,17,18
 404 454 404 454 424.5 322 c 128,-1,19
 445 190 445 190 484.5 79.5 c 128,-1,20
 524 -31 524 -31 560.5 -108.5 c 128,-1,21
 597 -186 597 -186 649 -277 c 1,0,-1
EndSplineSet
Substitution2: "'frac' Diagonal Fractions in Latin lookup 9 subtable" parenleft.numr
Substitution2: "'sups' Superscript in Latin lookup 8 subtable" parenleft.sups
Substitution2: "'subs' Subscript in Latin lookup 7 subtable" parenleft.subs
Substitution2: "'case' Case-Sensitive Forms in Latin lookup 4 subtable" parenleft.uc
EndChar

StartChar: parenright
Encoding: 41 41 12
Width: 683
GlyphClass: 2
Flags: W
LayerCount: 2
Fore
SplineSet
33 -277 m 1,0,1
 85 -186 85 -186 121.5 -109 c 128,-1,2
 158 -32 158 -32 198 79 c 128,-1,3
 238 190 238 190 258.5 322 c 128,-1,4
 279 454 279 454 279 601 c 0,5,6
 279 795 279 795 237 975 c 128,-1,7
 195 1155 195 1155 142 1265 c 128,-1,8
 89 1375 89 1375 31 1442 c 1,9,-1
 255 1442 l 1,10,11
 318 1361 318 1361 363 1287 c 128,-1,12
 408 1213 408 1213 450 1111 c 128,-1,13
 492 1009 492 1009 513.5 880.5 c 128,-1,14
 535 752 535 752 535 599 c 0,15,16
 535 447 535 447 511.5 308 c 128,-1,17
 488 169 488 169 447.5 61 c 128,-1,18
 407 -47 407 -47 362 -129 c 128,-1,19
 317 -211 317 -211 264 -277 c 1,20,-1
 33 -277 l 1,0,1
EndSplineSet
Substitution2: "'frac' Diagonal Fractions in Latin lookup 9 subtable" parenright.numr
Substitution2: "'sups' Superscript in Latin lookup 8 subtable" parenright.sups
Substitution2: "'subs' Subscript in Latin lookup 7 subtable" parenright.subs
Substitution2: "'case' Case-Sensitive Forms in Latin lookup 4 subtable" parenright.uc
EndChar

StartChar: asterisk
Encoding: 42 42 13
Width: 992
GlyphClass: 2
Flags: W
LayerCount: 2
Fore
SplineSet
789 831 m 1,0,-1
 553 1003 l 1,1,-1
 584 713 l 1,2,-1
 408 713 l 1,3,-1
 439 1003 l 1,4,-1
 202 831 l 1,5,-1
 116 983 l 1,6,-1
 382 1102 l 1,7,-1
 116 1219 l 1,8,-1
 202 1373 l 1,9,-1
 440 1198 l 1,10,-1
 408 1491 l 1,11,-1
 584 1491 l 1,12,-1
 552 1198 l 1,13,-1
 789 1373 l 1,14,-1
 876 1219 l 1,15,-1
 610 1102 l 1,16,-1
 876 983 l 1,17,-1
 789 831 l 1,0,-1
EndSplineSet
Substitution2: "'case' Case-Sensitive Forms in Latin lookup 4 subtable" asterisk.uc
EndChar

StartChar: plus
Encoding: 43 43 14
Width: 1294
GlyphClass: 2
Flags: W
LayerCount: 2
Fore
SplineSet
759 464 m 1,0,-1
 759 20 l 1,1,-1
 534 20 l 1,2,-1
 534 464 l 1,3,-1
 119 464 l 1,4,-1
 119 686 l 1,5,-1
 534 686 l 1,6,-1
 534 1123 l 1,7,-1
 759 1123 l 1,8,-1
 759 686 l 1,9,-1
 1175 686 l 1,10,-1
 1175 464 l 1,11,-1
 759 464 l 1,0,-1
EndSplineSet
Substitution2: "'frac' Diagonal Fractions in Latin lookup 9 subtable" plus.numr
Substitution2: "'sups' Superscript in Latin lookup 8 subtable" plus.sups
Substitution2: "'subs' Subscript in Latin lookup 7 subtable" plus.subs
Substitution2: "'case' Case-Sensitive Forms in Latin lookup 4 subtable" plus.uc
EndChar

StartChar: comma
Encoding: 44 44 15
Width: 563
GlyphClass: 2
Flags: W
LayerCount: 2
Fore
SplineSet
282 -266 m 1,0,-1
 92 -266 l 1,1,-1
 182 245 l 1,2,-1
 423 245 l 1,3,-1
 282 -266 l 1,0,-1
EndSplineSet
EndChar

StartChar: hyphen
Encoding: 45 45 16
Width: 895
GlyphClass: 2
Flags: W
LayerCount: 2
Fore
SplineSet
776 464 m 1,0,-1
 119 464 l 1,1,-1
 119 686 l 1,2,-1
 776 686 l 1,3,-1
 776 464 l 1,0,-1
EndSplineSet
Substitution2: "'case' Case-Sensitive Forms in Latin lookup 4 subtable" hyphen.uc
EndChar

StartChar: period
Encoding: 46 46 17
Width: 551
GlyphClass: 2
Flags: W
LayerCount: 2
Fore
SplineSet
276 -11 m 0,0,1
 215 -11 215 -11 173.5 30.5 c 128,-1,2
 132 72 132 72 132 133 c 128,-1,3
 132 194 132 194 173.5 235.5 c 128,-1,4
 215 277 215 277 276 277 c 0,5,6
 336 277 336 277 377.5 235.5 c 128,-1,7
 419 194 419 194 419 133 c 128,-1,8
 419 72 419 72 377.5 30.5 c 128,-1,9
 336 -11 336 -11 276 -11 c 0,0,1
EndSplineSet
EndChar

StartChar: slash
Encoding: 47 47 18
Width: 651
GlyphClass: 2
Flags: W
LayerCount: 2
Fore
SplineSet
223 -306 m 1,0,-1
 0 -306 l 1,1,-1
 424 1444 l 1,2,-1
 651 1444 l 1,3,-1
 223 -306 l 1,0,-1
EndSplineSet
Substitution2: "'frac' Diagonal Fractions in Latin lookup 11 subtable" fraction
Substitution2: "'case' Case-Sensitive Forms in Latin lookup 4 subtable" slash.uc
EndChar

StartChar: zero
Encoding: 48 48 19
Width: 1300
GlyphClass: 2
Flags: W
LayerCount: 2
Fore
SplineSet
651 -29 m 0,0,1
 387 -29 387 -29 236.5 172.5 c 128,-1,2
 86 374 86 374 86 723 c 0,3,4
 86 1070 86 1070 237 1271 c 128,-1,5
 388 1472 388 1472 651 1472 c 128,-1,6
 914 1472 914 1472 1064 1271.5 c 128,-1,7
 1214 1071 1214 1071 1214 724 c 0,8,9
 1214 376 1214 376 1064 173.5 c 128,-1,10
 914 -29 914 -29 651 -29 c 0,0,1
651 182 m 0,11,12
 794 182 794 182 873.5 325 c 128,-1,13
 953 468 953 468 953 723 c 0,14,15
 953 976 953 976 873 1118.5 c 128,-1,16
 793 1261 793 1261 651 1261 c 128,-1,17
 509 1261 509 1261 427.5 1118 c 128,-1,18
 346 975 346 975 346 724 c 0,19,20
 346 469 346 469 426.5 325.5 c 128,-1,21
 507 182 507 182 651 182 c 0,11,12
EndSplineSet
Substitution2: "'frac' Diagonal Fractions in Latin lookup 9 subtable" zero.numr
Substitution2: "'sups' Superscript in Latin lookup 8 subtable" zero.sups
Substitution2: "'subs' Subscript in Latin lookup 7 subtable" zero.subs
Substitution2: "'tnum' Tabular Numbers in Latin lookup 6 subtable" zero.tnum
EndChar

StartChar: one
Encoding: 49 49 20
Width: 956
GlyphClass: 2
Flags: W
LayerCount: 2
Fore
SplineSet
471 0 m 1,0,-1
 471 1197 l 1,1,-1
 465 1197 l 1,2,-1
 92 935 l 1,3,-1
 92 1178 l 1,4,-1
 469 1443 l 1,5,-1
 724 1443 l 1,6,-1
 724 0 l 1,7,-1
 471 0 l 1,0,-1
EndSplineSet
Substitution2: "'frac' Diagonal Fractions in Latin lookup 9 subtable" one.numr
Substitution2: "'sups' Superscript in Latin lookup 8 subtable" one.sups
Substitution2: "'subs' Subscript in Latin lookup 7 subtable" one.subs
Substitution2: "'tnum' Tabular Numbers in Latin lookup 6 subtable" one.tnum
EndChar

StartChar: two
Encoding: 50 50 21
Width: 1207
GlyphClass: 2
Flags: W
LayerCount: 2
Fore
SplineSet
93 1015 m 2,0,1
 93 1215 93 1215 237 1343.5 c 128,-1,2
 381 1472 381 1472 605 1472 c 0,3,4
 820 1472 820 1472 959.5 1355 c 128,-1,5
 1099 1238 1099 1238 1099 1062 c 0,6,7
 1099 941 1099 941 1031.5 833.5 c 128,-1,8
 964 726 964 726 808 569 c 2,9,-1
 451 216 l 1,10,-1
 451 211 l 1,11,-1
 1121 211 l 1,12,-1
 1121 0 l 1,13,-1
 107 0 l 1,14,-1
 107 174 l 1,15,-1
 638 702 l 2,16,17
 761 828 761 828 804 899 c 128,-1,18
 847 970 847 970 847 1051 c 0,19,20
 847 1141 847 1141 775.5 1203 c 128,-1,21
 704 1265 704 1265 597 1265 c 0,22,23
 484 1265 484 1265 409.5 1194 c 128,-1,24
 335 1123 335 1123 335 1016 c 2,25,-1
 335 1012 l 1,26,-1
 93 1012 l 1,27,-1
 93 1015 l 2,0,1
EndSplineSet
Substitution2: "'frac' Diagonal Fractions in Latin lookup 9 subtable" two.numr
Substitution2: "'sups' Superscript in Latin lookup 8 subtable" two.sups
Substitution2: "'subs' Subscript in Latin lookup 7 subtable" two.subs
Substitution2: "'tnum' Tabular Numbers in Latin lookup 6 subtable" two.tnum
EndChar

StartChar: three
Encoding: 51 51 22
Width: 1261
GlyphClass: 2
Flags: W
LayerCount: 2
Fore
SplineSet
438 643 m 1,0,-1
 438 837 l 1,1,-1
 612 837 l 2,2,3
 723 837 723 837 792 898.5 c 128,-1,4
 861 960 861 960 861 1057 c 0,5,6
 861 1153 861 1153 795.5 1210 c 128,-1,7
 730 1267 730 1267 611 1267 c 0,8,9
 500 1267 500 1267 430 1206.5 c 128,-1,10
 360 1146 360 1146 352 1045 c 1,11,-1
 112 1045 l 1,12,13
 123 1240 123 1240 261.5 1356 c 128,-1,14
 400 1472 400 1472 623 1472 c 0,15,16
 837 1472 837 1472 973 1366 c 128,-1,17
 1109 1260 1109 1260 1109 1092 c 0,18,19
 1109 959 1109 959 1027.5 867.5 c 128,-1,20
 946 776 946 776 811 753 c 1,21,-1
 811 747 l 1,22,23
 974 735 974 735 1070.5 641.5 c 128,-1,24
 1167 548 1167 548 1167 398 c 0,25,26
 1167 208 1167 208 1012.5 89.5 c 128,-1,27
 858 -29 858 -29 620 -29 c 0,28,29
 384 -29 384 -29 239 89.5 c 128,-1,30
 94 208 94 208 84 402 c 1,31,-1
 330 402 l 1,32,33
 339 302 339 302 417 242 c 128,-1,34
 495 182 495 182 622 182 c 0,35,36
 747 182 747 182 826 245 c 128,-1,37
 905 308 905 308 905 408 c 0,38,39
 905 517 905 517 827.5 580 c 128,-1,40
 750 643 750 643 616 643 c 2,41,-1
 438 643 l 1,0,-1
EndSplineSet
Substitution2: "'frac' Diagonal Fractions in Latin lookup 9 subtable" three.numr
Substitution2: "'sups' Superscript in Latin lookup 8 subtable" three.sups
Substitution2: "'subs' Subscript in Latin lookup 7 subtable" three.subs
Substitution2: "'tnum' Tabular Numbers in Latin lookup 6 subtable" three.tnum
EndChar

StartChar: four
Encoding: 52 52 23
Width: 1295
GlyphClass: 2
Flags: W
LayerCount: 2
Fore
SplineSet
794 0 m 1,0,-1
 794 273 l 1,1,-1
 74 273 l 1,2,-1
 74 495 l 1,3,4
 252 831 252 831 673 1443 c 1,5,-1
 1040 1443 l 1,6,-1
 1040 484 l 1,7,-1
 1234 484 l 1,8,-1
 1234 273 l 1,9,-1
 1040 273 l 1,10,-1
 1040 0 l 1,11,-1
 794 0 l 1,0,-1
308 485 m 1,12,-1
 308 478 l 1,13,-1
 798 478 l 1,14,-1
 798 1252 l 1,15,-1
 794 1252 l 1,16,17
 611 987 611 987 501 814 c 128,-1,18
 391 641 391 641 308 485 c 1,12,-1
EndSplineSet
Substitution2: "'cv03' Character Variants 03 in Latin lookup 17 subtable" four.1
Substitution2: "'ss02' Style Set 2 in Latin lookup 13 subtable" four.1
Substitution2: "'frac' Diagonal Fractions in Latin lookup 9 subtable" four.numr
Substitution2: "'sups' Superscript in Latin lookup 8 subtable" four.sups
Substitution2: "'subs' Subscript in Latin lookup 7 subtable" four.subs
Substitution2: "'tnum' Tabular Numbers in Latin lookup 6 subtable" four.tnum
EndChar

StartChar: five
Encoding: 53 53 24
Width: 1250
GlyphClass: 2
Flags: W
LayerCount: 2
Fore
SplineSet
641 -29 m 0,0,1
 418 -29 418 -29 271 92.5 c 128,-1,2
 124 214 124 214 116 406 c 1,3,-1
 358 406 l 1,4,5
 370 306 370 306 449.5 243 c 128,-1,6
 529 180 529 180 643 180 c 0,7,8
 772 180 772 180 852.5 261 c 128,-1,9
 933 342 933 342 933 470 c 0,10,11
 933 600 933 600 852.5 682.5 c 128,-1,12
 772 765 772 765 645 765 c 0,13,14
 557 765 557 765 484.5 727 c 128,-1,15
 412 689 412 689 372 621 c 1,16,-1
 138 621 l 1,17,-1
 213 1443 l 1,18,-1
 1097 1443 l 1,19,-1
 1097 1232 l 1,20,-1
 417 1232 l 1,21,-1
 380 810 l 1,22,-1
 386 810 l 1,23,24
 431 880 431 880 516 920.5 c 128,-1,25
 601 961 601 961 707 961 c 0,26,27
 914 961 914 961 1048 824.5 c 128,-1,28
 1182 688 1182 688 1182 477 c 0,29,30
 1182 252 1182 252 1031.5 111.5 c 128,-1,31
 881 -29 881 -29 641 -29 c 0,0,1
EndSplineSet
Substitution2: "'frac' Diagonal Fractions in Latin lookup 9 subtable" five.numr
Substitution2: "'sups' Superscript in Latin lookup 8 subtable" five.sups
Substitution2: "'subs' Subscript in Latin lookup 7 subtable" five.subs
Substitution2: "'tnum' Tabular Numbers in Latin lookup 6 subtable" five.tnum
EndChar

StartChar: six
Encoding: 54 54 25
Width: 1284
GlyphClass: 2
Flags: W
LayerCount: 2
Fore
SplineSet
667 -30 m 0,0,1
 509 -30 509 -30 385.5 44 c 128,-1,2
 262 118 262 118 189 257 c 1,3,4
 86 436 86 436 86 705 c 0,5,6
 86 1065 86 1065 243 1269 c 128,-1,7
 400 1473 400 1473 675 1473 c 0,8,9
 873 1473 873 1473 1014 1365.5 c 128,-1,10
 1155 1258 1155 1258 1187 1083 c 1,11,-1
 931 1083 l 1,12,13
 906 1165 906 1165 836 1214 c 128,-1,14
 766 1263 766 1263 673 1263 c 0,15,16
 511 1263 511 1263 421 1119 c 128,-1,17
 331 975 331 975 332 715 c 1,18,-1
 337 715 l 1,19,20
 383 822 383 822 488 886 c 128,-1,21
 593 950 593 950 728 950 c 0,22,23
 934 950 934 950 1070 814.5 c 128,-1,24
 1206 679 1206 679 1206 474 c 0,25,26
 1206 254 1206 254 1054 112 c 128,-1,27
 902 -30 902 -30 667 -30 c 0,0,1
665 181 m 0,28,29
 785 181 785 181 868.5 264 c 128,-1,30
 952 347 952 347 952 466 c 0,31,32
 952 588 952 588 871.5 668 c 128,-1,33
 791 748 791 748 667 748 c 128,-1,34
 543 748 543 748 460.5 668.5 c 128,-1,35
 378 589 378 589 378 469 c 0,36,37
 378 348 378 348 461 264.5 c 128,-1,38
 544 181 544 181 665 181 c 0,28,29
EndSplineSet
Substitution2: "'cv01' Character Variants 01 in Latin lookup 15 subtable" six.1
Substitution2: "'ss01' Style Set 1 in Latin lookup 12 subtable" six.1
Substitution2: "'frac' Diagonal Fractions in Latin lookup 9 subtable" six.1.numr
Substitution2: "'sups' Superscript in Latin lookup 8 subtable" six.1.sups
Substitution2: "'subs' Subscript in Latin lookup 7 subtable" six.1.subs
Substitution2: "'tnum' Tabular Numbers in Latin lookup 6 subtable" six.tnum
EndChar

StartChar: seven
Encoding: 55 55 26
Width: 1153
GlyphClass: 2
Flags: W
LayerCount: 2
Fore
SplineSet
185 0 m 1,0,-1
 818 1227 l 1,1,-1
 818 1232 l 1,2,-1
 68 1232 l 1,3,-1
 68 1443 l 1,4,-1
 1072 1443 l 1,5,-1
 1072 1228 l 1,6,-1
 455 0 l 1,7,-1
 185 0 l 1,0,-1
EndSplineSet
Substitution2: "'frac' Diagonal Fractions in Latin lookup 9 subtable" seven.numr
Substitution2: "'sups' Superscript in Latin lookup 8 subtable" seven.sups
Substitution2: "'subs' Subscript in Latin lookup 7 subtable" seven.subs
Substitution2: "'tnum' Tabular Numbers in Latin lookup 6 subtable" seven.tnum
EndChar

StartChar: eight
Encoding: 56 56 27
Width: 1296
GlyphClass: 2
Flags: W
LayerCount: 2
Fore
SplineSet
648 -29 m 0,0,1
 398 -29 398 -29 242 88 c 128,-1,2
 86 205 86 205 86 390 c 0,3,4
 86 530 86 530 176.5 631.5 c 128,-1,5
 267 733 267 733 414 761 c 1,6,-1
 414 766 l 1,7,8
 291 798 291 798 217 886.5 c 128,-1,9
 143 975 143 975 143 1092 c 0,10,11
 143 1257 143 1257 285.5 1364.5 c 128,-1,12
 428 1472 428 1472 648 1472 c 0,13,14
 869 1472 869 1472 1010.5 1364.5 c 128,-1,15
 1152 1257 1152 1257 1152 1091 c 0,16,17
 1152 975 1152 975 1078.5 887 c 128,-1,18
 1005 799 1005 799 882 766 c 1,19,-1
 882 761 l 1,20,21
 1030 732 1030 732 1120.5 630.5 c 128,-1,22
 1211 529 1211 529 1211 390 c 0,23,24
 1211 205 1211 205 1054 88 c 128,-1,25
 897 -29 897 -29 648 -29 c 0,0,1
648 168 m 128,-1,27
 777 168 777 168 860 236 c 128,-1,28
 943 304 943 304 943 409 c 0,29,30
 943 515 943 515 860.5 583 c 128,-1,31
 778 651 778 651 648 651 c 0,32,33
 519 651 519 651 436 582.5 c 128,-1,34
 353 514 353 514 353 409 c 128,-1,35
 353 304 353 304 436 236 c 128,-1,26
 519 168 519 168 648 168 c 128,-1,27
648 848 m 0,36,37
 757 848 757 848 827 908.5 c 128,-1,38
 897 969 897 969 897 1062 c 0,39,40
 897 1156 897 1156 827 1216.5 c 128,-1,41
 757 1277 757 1277 648 1277 c 0,42,43
 538 1277 538 1277 468 1216.5 c 128,-1,44
 398 1156 398 1156 398 1062 c 0,45,46
 398 969 398 969 468 908.5 c 128,-1,47
 538 848 538 848 648 848 c 0,36,37
EndSplineSet
Substitution2: "'frac' Diagonal Fractions in Latin lookup 9 subtable" eight.numr
Substitution2: "'sups' Superscript in Latin lookup 8 subtable" eight.sups
Substitution2: "'subs' Subscript in Latin lookup 7 subtable" eight.subs
Substitution2: "'tnum' Tabular Numbers in Latin lookup 6 subtable" eight.tnum
EndChar

StartChar: nine
Encoding: 57 57 28
Width: 1286
GlyphClass: 2
Flags: W
LayerCount: 2
Fore
SplineSet
611 -29 m 0,0,1
 412 -29 412 -29 270.5 79 c 128,-1,2
 129 187 129 187 98 361 c 1,3,-1
 354 361 l 1,4,5
 378 279 378 279 449.5 229.5 c 128,-1,6
 521 180 521 180 615 180 c 0,7,8
 776 180 776 180 865.5 324.5 c 128,-1,9
 955 469 955 469 952 729 c 1,10,-1
 950 729 l 1,11,-1
 949 729 l 1,12,-1
 948 729 l 1,13,14
 905 622 905 622 800.5 557.5 c 128,-1,15
 696 493 696 493 557 493 c 0,16,17
 351 493 351 493 214.5 629 c 128,-1,18
 78 765 78 765 78 970 c 0,19,20
 78 1189 78 1189 230.5 1331 c 128,-1,21
 383 1473 383 1473 617 1473 c 0,22,23
 776 1473 776 1473 900.5 1399 c 128,-1,24
 1025 1325 1025 1325 1097 1187 c 1,25,26
 1200 1008 1200 1008 1200 738 c 0,27,28
 1200 377 1200 377 1044 174 c 128,-1,29
 888 -29 888 -29 611 -29 c 0,0,1
618 695 m 0,30,31
 742 695 742 695 825 775 c 128,-1,32
 908 855 908 855 908 974 c 0,33,34
 908 1095 908 1095 824.5 1178 c 128,-1,35
 741 1261 741 1261 620 1261 c 128,-1,36
 499 1261 499 1261 415.5 1179 c 128,-1,37
 332 1097 332 1097 332 978 c 0,38,39
 332 856 332 856 413.5 775.5 c 128,-1,40
 495 695 495 695 618 695 c 0,30,31
EndSplineSet
Substitution2: "'cv02' Character Variants 02 in Latin lookup 16 subtable" nine.1
Substitution2: "'ss01' Style Set 1 in Latin lookup 12 subtable" nine.1
Substitution2: "'frac' Diagonal Fractions in Latin lookup 9 subtable" nine.1.numr
Substitution2: "'sups' Superscript in Latin lookup 8 subtable" nine.1.sups
Substitution2: "'subs' Subscript in Latin lookup 7 subtable" nine.1.subs
Substitution2: "'tnum' Tabular Numbers in Latin lookup 6 subtable" nine.tnum
EndChar

StartChar: colon
Encoding: 58 58 29
Width: 551
GlyphClass: 2
Flags: W
LayerCount: 2
Fore
SplineSet
276 -11 m 0,0,1
 215 -11 215 -11 173.5 30.5 c 128,-1,2
 132 72 132 72 132 133 c 128,-1,3
 132 194 132 194 173.5 235.5 c 128,-1,4
 215 277 215 277 276 277 c 0,5,6
 336 277 336 277 377.5 235.5 c 128,-1,7
 419 194 419 194 419 133 c 128,-1,8
 419 72 419 72 377.5 30.5 c 128,-1,9
 336 -11 336 -11 276 -11 c 0,0,1
276 711 m 0,10,11
 215 711 215 711 173.5 753 c 128,-1,12
 132 795 132 795 132 855 c 0,13,14
 132 916 132 916 173.5 957.5 c 128,-1,15
 215 999 215 999 276 999 c 0,16,17
 336 999 336 999 377.5 957.5 c 128,-1,18
 419 916 419 916 419 855 c 0,19,20
 419 795 419 795 377.5 753 c 128,-1,21
 336 711 336 711 276 711 c 0,10,11
EndSplineSet
Substitution2: "Single Substitution lookup 19 subtable" colon.case
Substitution2: "'cv04' Character Variants 04 in Latin lookup 18 subtable" colon.case
Substitution2: "'ss03' Style Set 3 in Latin lookup 14 subtable" colon.case
Substitution2: "'case' Case-Sensitive Forms in Latin lookup 3 subtable" colon.case
EndChar

StartChar: semicolon
Encoding: 59 59 30
Width: 551
GlyphClass: 2
Flags: W
LayerCount: 2
Fore
SplineSet
276 711 m 0,0,1
 215 711 215 711 173.5 753 c 128,-1,2
 132 795 132 795 132 855 c 0,3,4
 132 916 132 916 173.5 957.5 c 128,-1,5
 215 999 215 999 276 999 c 0,6,7
 336 999 336 999 377.5 957.5 c 128,-1,8
 419 916 419 916 419 855 c 0,9,10
 419 795 419 795 377.5 753 c 128,-1,11
 336 711 336 711 276 711 c 0,0,1
247 -266 m 1,12,-1
 58 -266 l 1,13,-1
 145 245 l 1,14,-1
 389 245 l 1,15,-1
 247 -266 l 1,12,-1
EndSplineSet
EndChar

StartChar: less
Encoding: 60 60 31
Width: 1294
GlyphClass: 2
Flags: W
LayerCount: 2
Fore
SplineSet
1110 933 m 1,0,-1
 435 584 l 1,1,-1
 435 574 l 1,2,-1
 1110 241 l 1,3,-1
 1110 -12 l 1,4,-1
 184 477 l 1,5,-1
 184 672 l 1,6,-1
 1110 1185 l 1,7,-1
 1110 933 l 1,0,-1
EndSplineSet
Substitution2: "'case' Case-Sensitive Forms in Latin lookup 4 subtable" less.uc
EndChar

StartChar: equal
Encoding: 61 61 32
Width: 1294
GlyphClass: 2
Flags: W
LayerCount: 2
Fore
SplineSet
1158 249 m 1,0,-1
 136 249 l 1,1,-1
 136 465 l 1,2,-1
 1158 465 l 1,3,-1
 1158 249 l 1,0,-1
1158 686 m 1,4,-1
 136 686 l 1,5,-1
 136 902 l 1,6,-1
 1158 902 l 1,7,-1
 1158 686 l 1,4,-1
EndSplineSet
Substitution2: "'frac' Diagonal Fractions in Latin lookup 9 subtable" equal.numr
Substitution2: "'sups' Superscript in Latin lookup 8 subtable" equal.sups
Substitution2: "'subs' Subscript in Latin lookup 7 subtable" equal.subs
Substitution2: "'case' Case-Sensitive Forms in Latin lookup 4 subtable" equal.uc
EndChar

StartChar: greater
Encoding: 62 62 33
Width: 1294
GlyphClass: 2
Flags: W
LayerCount: 2
Fore
SplineSet
184 934 m 1,0,-1
 184 1186 l 1,1,-1
 1110 673 l 1,2,-1
 1110 478 l 1,3,-1
 184 -11 l 1,4,-1
 184 241 l 1,5,-1
 859 575 l 1,6,-1
 859 585 l 1,7,-1
 184 934 l 1,0,-1
EndSplineSet
Substitution2: "'case' Case-Sensitive Forms in Latin lookup 4 subtable" greater.uc
EndChar

StartChar: question
Encoding: 63 63 34
Width: 1060
GlyphClass: 2
Flags: W
LayerCount: 2
Fore
SplineSet
54 1048 m 1,0,1
 60 1230 60 1230 182.5 1342.5 c 128,-1,2
 305 1455 305 1455 522 1455 c 0,3,4
 726 1455 726 1455 852.5 1349 c 128,-1,5
 979 1243 979 1243 979 1077 c 0,6,7
 979 862 979 862 767 736 c 0,8,9
 669 679 669 679 634 631 c 128,-1,10
 599 583 599 583 599 508 c 2,11,-1
 599 450 l 1,12,-1
 367 450 l 1,13,-1
 366 521 l 1,14,15
 359 630 359 630 403.5 704 c 128,-1,16
 448 778 448 778 553 840 c 0,17,18
 647 897 647 897 683 945.5 c 128,-1,19
 719 994 719 994 719 1068 c 0,20,21
 719 1148 719 1148 661 1199.5 c 128,-1,22
 603 1251 603 1251 509 1251 c 0,23,24
 413 1251 413 1251 354 1196 c 128,-1,25
 295 1141 295 1141 289 1048 c 1,26,-1
 54 1048 l 1,0,1
486 -20 m 128,-1,28
 425 -20 425 -20 382.5 21.5 c 128,-1,29
 340 63 340 63 340 122 c 128,-1,30
 340 181 340 181 382.5 222 c 128,-1,31
 425 263 425 263 486 263 c 128,-1,32
 547 263 547 263 589 222 c 128,-1,33
 631 181 631 181 631 122 c 128,-1,34
 631 63 631 63 589 21.5 c 128,-1,27
 547 -20 547 -20 486 -20 c 128,-1,28
EndSplineSet
EndChar

StartChar: at
Encoding: 64 64 35
Width: 1803
GlyphClass: 2
Flags: W
LayerCount: 2
Fore
SplineSet
892 853 m 128,-1,1
 804 853 804 853 755.5 787 c 128,-1,2
 707 721 707 721 707 603 c 0,3,4
 707 487 707 487 756 420.5 c 128,-1,5
 805 354 805 354 890 354 c 0,6,7
 979 354 979 354 1031 421 c 128,-1,8
 1083 488 1083 488 1083 603 c 128,-1,9
 1083 718 1083 718 1031.5 785.5 c 128,-1,0
 980 853 980 853 892 853 c 128,-1,1
925 1444 m 0,10,11
 1159 1444 1159 1444 1342 1352 c 128,-1,12
 1525 1260 1525 1260 1627.5 1091 c 128,-1,13
 1730 922 1730 922 1730 703 c 0,14,15
 1730 464 1730 464 1626.5 322 c 128,-1,16
 1523 180 1523 180 1343 180 c 0,17,18
 1252 180 1252 180 1187 224 c 128,-1,19
 1122 268 1122 268 1109 341 c 1,20,-1
 1097 341 l 1,21,22
 1066 265 1066 265 1002.5 225 c 128,-1,23
 939 185 939 185 851 185 c 0,24,25
 695 185 695 185 599.5 301.5 c 128,-1,26
 504 418 504 418 504 609 c 0,27,28
 504 791 504 791 598.5 905 c 128,-1,29
 693 1019 693 1019 845 1019 c 0,30,31
 926 1019 926 1019 990.5 981 c 128,-1,32
 1055 943 1055 943 1084 878 c 1,33,-1
 1096 878 l 1,34,-1
 1096 998 l 1,35,-1
 1279 998 l 1,36,-1
 1279 444 l 2,37,38
 1279 392 1279 392 1305 362 c 128,-1,39
 1331 332 1331 332 1381 332 c 0,40,41
 1462 332 1462 332 1512 429 c 128,-1,42
 1562 526 1562 526 1562 695 c 0,43,44
 1562 967 1562 967 1384 1132 c 128,-1,45
 1206 1297 1206 1297 916 1297 c 0,46,47
 725 1297 725 1297 574 1209.5 c 128,-1,48
 423 1122 423 1122 339 963.5 c 128,-1,49
 255 805 255 805 255 604 c 0,50,51
 255 445 255 445 306.5 316 c 128,-1,52
 358 187 358 187 450.5 102 c 128,-1,53
 543 17 543 17 671 -29 c 128,-1,54
 799 -75 799 -75 952 -75 c 0,55,56
 1149 -75 1149 -75 1247 -35 c 1,57,-1
 1247 -183 l 1,58,59
 1119 -224 1119 -224 942 -224 c 0,60,61
 755 -224 755 -224 597.5 -167 c 128,-1,62
 440 -110 440 -110 327 -4.5 c 128,-1,63
 214 101 214 101 150.5 259 c 128,-1,64
 87 417 87 417 87 610 c 0,65,66
 87 794 87 794 149 949.5 c 128,-1,67
 211 1105 211 1105 320.5 1213.5 c 128,-1,68
 430 1322 430 1322 586 1383 c 128,-1,69
 742 1444 742 1444 925 1444 c 0,10,11
EndSplineSet
Substitution2: "'case' Case-Sensitive Forms in Latin lookup 4 subtable" at.uc
EndChar

StartChar: A
Encoding: 65 65 36
Width: 1369
GlyphClass: 2
Flags: W
LayerCount: 2
Fore
SplineSet
1070 0 m 1,0,-1
 947 373 l 1,1,-1
 416 373 l 1,2,-1
 293 0 l 1,3,-1
 27 0 l 1,4,-1
 539 1443 l 1,5,-1
 830 1443 l 1,6,-1
 1342 0 l 1,7,-1
 1070 0 l 1,0,-1
678 1188 m 1,8,-1
 476 572 l 1,9,-1
 886 572 l 1,10,-1
 685 1188 l 1,11,-1
 678 1188 l 1,8,-1
EndSplineSet
EndChar

StartChar: B
Encoding: 66 66 37
Width: 1296
GlyphClass: 2
Flags: W
LayerCount: 2
Fore
SplineSet
744 0 m 2,0,-1
 127 0 l 1,1,-1
 127 1443 l 1,2,-1
 738 1443 l 2,3,4
 935 1443 935 1443 1052 1345 c 128,-1,5
 1169 1247 1169 1247 1169 1083 c 0,6,7
 1169 967 1169 967 1093 877 c 128,-1,8
 1017 787 1017 787 906 769 c 1,9,-1
 906 761 l 1,10,11
 1054 747 1054 747 1147 650 c 128,-1,12
 1240 553 1240 553 1240 410 c 0,13,14
 1240 219 1240 219 1107.5 109.5 c 128,-1,15
 975 0 975 0 744 0 c 2,0,-1
385 1242 m 1,16,-1
 385 835 l 1,17,-1
 633 835 l 2,18,19
 768 835 768 835 841 889.5 c 128,-1,20
 914 944 914 944 914 1045 c 0,21,22
 914 1139 914 1139 851.5 1190.5 c 128,-1,23
 789 1242 789 1242 674 1242 c 2,24,-1
 385 1242 l 1,16,-1
385 201 m 1,25,-1
 685 201 l 2,26,27
 827 201 827 201 901.5 259 c 128,-1,28
 976 317 976 317 976 428 c 0,29,30
 976 538 976 538 899.5 595 c 128,-1,31
 823 652 823 652 675 652 c 2,32,-1
 385 652 l 1,33,-1
 385 201 l 1,25,-1
EndSplineSet
EndChar

StartChar: C
Encoding: 67 67 38
Width: 1439
GlyphClass: 2
Flags: W
LayerCount: 2
Fore
SplineSet
749 -24 m 0,0,1
 439 -24 439 -24 258.5 176 c 128,-1,2
 78 376 78 376 78 722 c 0,3,4
 78 1066 78 1066 259.5 1266.5 c 128,-1,5
 441 1467 441 1467 749 1467 c 0,6,7
 1001 1467 1001 1467 1174 1323.5 c 128,-1,8
 1347 1180 1347 1180 1371 948 c 1,9,-1
 1117 948 l 1,10,11
 1092 1084 1092 1084 990.5 1166 c 128,-1,12
 889 1248 889 1248 749 1248 c 0,13,14
 563 1248 563 1248 452.5 1105.5 c 128,-1,15
 342 963 342 963 342 722 c 0,16,17
 342 479 342 479 452 337 c 128,-1,18
 562 195 562 195 750 195 c 0,19,20
 893 195 893 195 990.5 268.5 c 128,-1,21
 1088 342 1088 342 1118 472 c 1,22,-1
 1371 472 l 1,23,24
 1337 240 1337 240 1171 108 c 128,-1,25
 1005 -24 1005 -24 749 -24 c 0,0,1
EndSplineSet
EndChar

StartChar: D
Encoding: 68 68 39
Width: 1424
GlyphClass: 2
Flags: W
LayerCount: 2
Fore
SplineSet
127 1443 m 1,0,-1
 661 1443 l 2,1,2
 985 1443 985 1443 1166 1255 c 128,-1,3
 1347 1067 1347 1067 1347 725 c 0,4,5
 1347 382 1347 382 1166 191 c 128,-1,6
 985 0 985 0 661 0 c 2,7,-1
 127 0 l 1,8,-1
 127 1443 l 1,0,-1
385 1225 m 1,9,-1
 385 218 l 1,10,-1
 634 218 l 2,11,12
 852 218 852 218 968 348 c 128,-1,13
 1084 478 1084 478 1084 724 c 0,14,15
 1084 966 1084 966 967 1095.5 c 128,-1,16
 850 1225 850 1225 634 1225 c 2,17,-1
 385 1225 l 1,9,-1
EndSplineSet
EndChar

StartChar: E
Encoding: 69 69 40
Width: 1158
GlyphClass: 2
Flags: W
LayerCount: 2
Fore
SplineSet
1061 218 m 1,0,-1
 1061 0 l 1,1,-1
 127 0 l 1,2,-1
 127 1443 l 1,3,-1
 1061 1443 l 1,4,-1
 1061 1225 l 1,5,-1
 385 1225 l 1,6,-1
 385 835 l 1,7,-1
 1024 835 l 1,8,-1
 1024 630 l 1,9,-1
 385 630 l 1,10,-1
 385 218 l 1,11,-1
 1061 218 l 1,0,-1
EndSplineSet
EndChar

StartChar: F
Encoding: 70 70 41
Width: 1107
GlyphClass: 2
Flags: W
LayerCount: 2
Fore
SplineSet
385 0 m 1,0,-1
 127 0 l 1,1,-1
 127 1443 l 1,2,-1
 1047 1443 l 1,3,-1
 1047 1225 l 1,4,-1
 385 1225 l 1,5,-1
 385 799 l 1,6,-1
 990 799 l 1,7,-1
 990 589 l 1,8,-1
 385 589 l 1,9,-1
 385 0 l 1,0,-1
EndSplineSet
EndChar

StartChar: G
Encoding: 71 71 42
Width: 1473
GlyphClass: 2
Flags: W
LayerCount: 2
Fore
SplineSet
1390 602 m 2,0,1
 1390 308 1390 308 1223.5 142 c 128,-1,2
 1057 -24 1057 -24 761 -24 c 0,3,4
 445 -24 445 -24 261.5 177.5 c 128,-1,5
 78 379 78 379 78 727 c 0,6,7
 78 1070 78 1070 260.5 1268.5 c 128,-1,8
 443 1467 443 1467 756 1467 c 0,9,10
 1002 1467 1002 1467 1173 1334 c 128,-1,11
 1344 1201 1344 1201 1379 984 c 1,12,-1
 1117 984 l 1,13,14
 1080 1108 1080 1108 985 1178 c 128,-1,15
 890 1248 890 1248 757 1248 c 0,16,17
 562 1248 562 1248 452 1111 c 128,-1,18
 342 974 342 974 342 730 c 0,19,20
 342 481 342 481 455.5 338 c 128,-1,21
 569 195 569 195 764 195 c 0,22,23
 927 195 927 195 1030.5 289 c 128,-1,24
 1134 383 1134 383 1137 535 c 2,25,-1
 1138 559 l 1,26,-1
 790 559 l 1,27,-1
 790 756 l 1,28,-1
 1390 756 l 1,29,-1
 1390 602 l 2,0,1
EndSplineSet
EndChar

StartChar: H
Encoding: 72 72 43
Width: 1471
GlyphClass: 2
Flags: W
LayerCount: 2
Fore
SplineSet
1344 0 m 1,0,-1
 1087 0 l 1,1,-1
 1087 626 l 1,2,-1
 385 626 l 1,3,-1
 385 0 l 1,4,-1
 127 0 l 1,5,-1
 127 1443 l 1,6,-1
 385 1443 l 1,7,-1
 385 843 l 1,8,-1
 1087 843 l 1,9,-1
 1087 1443 l 1,10,-1
 1344 1443 l 1,11,-1
 1344 0 l 1,0,-1
EndSplineSet
EndChar

StartChar: I
Encoding: 73 73 44
Width: 512
GlyphClass: 2
Flags: W
LayerCount: 2
Fore
SplineSet
385 0 m 1,0,-1
 127 0 l 1,1,-1
 127 1443 l 1,2,-1
 385 1443 l 1,3,-1
 385 0 l 1,0,-1
EndSplineSet
EndChar

StartChar: J
Encoding: 74 74 45
Width: 1096
GlyphClass: 2
Flags: W
LayerCount: 2
Fore
SplineSet
35 394 m 1,0,-1
 286 394 l 1,1,2
 288 305 288 305 344.5 250 c 128,-1,3
 401 195 401 195 491 195 c 0,4,5
 595 195 595 195 649.5 256.5 c 128,-1,6
 704 318 704 318 704 435 c 2,7,-1
 704 1443 l 1,8,-1
 961 1443 l 1,9,-1
 961 433 l 2,10,11
 961 213 961 213 837.5 91 c 128,-1,12
 714 -31 714 -31 494 -31 c 0,13,14
 287 -31 287 -31 161 85.5 c 128,-1,15
 35 202 35 202 35 394 c 1,0,-1
EndSplineSet
EndChar

StartChar: K
Encoding: 75 75 46
Width: 1319
GlyphClass: 2
Flags: W
LayerCount: 2
Fore
SplineSet
385 0 m 1,0,-1
 127 0 l 1,1,-1
 127 1443 l 1,2,-1
 385 1443 l 1,3,-1
 385 768 l 1,4,-1
 394 768 l 1,5,-1
 970 1443 l 1,6,-1
 1267 1443 l 1,7,-1
 711 803 l 1,8,-1
 1310 0 l 1,9,-1
 996 0 l 1,10,-1
 527 630 l 1,11,-1
 385 464 l 1,12,-1
 385 0 l 1,0,-1
EndSplineSet
EndChar

StartChar: L
Encoding: 76 76 47
Width: 1098
GlyphClass: 2
Flags: W
LayerCount: 2
Fore
SplineSet
1040 218 m 1,0,-1
 1040 0 l 1,1,-1
 127 0 l 1,2,-1
 127 1443 l 1,3,-1
 385 1443 l 1,4,-1
 385 218 l 1,5,-1
 1040 218 l 1,0,-1
EndSplineSet
EndChar

StartChar: M
Encoding: 77 77 48
Width: 1744
GlyphClass: 2
Flags: W
LayerCount: 2
Fore
SplineSet
1616 1443 m 1,0,-1
 1616 0 l 1,1,-1
 1384 0 l 1,2,-1
 1384 1024 l 1,3,-1
 1377 1024 l 1,4,-1
 960 12 l 1,5,-1
 784 12 l 1,6,-1
 367 1024 l 1,7,-1
 360 1024 l 1,8,-1
 360 0 l 1,9,-1
 127 0 l 1,10,-1
 127 1443 l 1,11,-1
 426 1443 l 1,12,-1
 868 354 l 1,13,-1
 876 354 l 1,14,-1
 1318 1443 l 1,15,-1
 1616 1443 l 1,0,-1
EndSplineSet
EndChar

StartChar: N
Encoding: 78 78 49
Width: 1452
GlyphClass: 2
Flags: W
LayerCount: 2
Fore
SplineSet
376 0 m 1,0,-1
 127 0 l 1,1,-1
 127 1443 l 1,2,-1
 351 1443 l 1,3,-1
 1067 432 l 1,4,-1
 1076 432 l 1,5,-1
 1076 1443 l 1,6,-1
 1324 1443 l 1,7,-1
 1324 0 l 1,8,-1
 1102 0 l 1,9,-1
 385 1012 l 1,10,-1
 376 1012 l 1,11,-1
 376 0 l 1,0,-1
EndSplineSet
EndChar

StartChar: O
Encoding: 79 79 50
Width: 1525
GlyphClass: 2
Flags: W
LayerCount: 2
Fore
SplineSet
763 1467 m 0,0,1
 1078 1467 1078 1467 1262.5 1266 c 128,-1,2
 1447 1065 1447 1065 1447 721 c 128,-1,3
 1447 377 1447 377 1262.5 176.5 c 128,-1,4
 1078 -24 1078 -24 763 -24 c 0,5,6
 447 -24 447 -24 262.5 176.5 c 128,-1,7
 78 377 78 377 78 721 c 128,-1,8
 78 1065 78 1065 262.5 1266 c 128,-1,9
 447 1467 447 1467 763 1467 c 0,0,1
763 1247 m 128,-1,11
 570 1247 570 1247 456 1105 c 128,-1,12
 342 963 342 963 342 721 c 0,13,14
 342 480 342 480 456 338 c 128,-1,15
 570 196 570 196 763 196 c 128,-1,16
 956 196 956 196 1070 338 c 128,-1,17
 1184 480 1184 480 1184 721 c 128,-1,18
 1184 962 1184 962 1070 1104.5 c 128,-1,10
 956 1247 956 1247 763 1247 c 128,-1,11
EndSplineSet
EndChar

StartChar: P
Encoding: 80 80 51
Width: 1255
GlyphClass: 2
Flags: W
LayerCount: 2
Fore
SplineSet
127 1443 m 1,0,-1
 709 1443 l 2,1,2
 924 1443 924 1443 1059 1309 c 128,-1,3
 1194 1175 1194 1175 1194 960 c 128,-1,4
 1194 745 1194 745 1056 611 c 128,-1,5
 918 477 918 477 698 477 c 2,6,-1
 385 477 l 1,7,-1
 385 0 l 1,8,-1
 127 0 l 1,9,-1
 127 1443 l 1,0,-1
385 1232 m 1,10,-1
 385 685 l 1,11,-1
 640 685 l 2,12,13
 779 685 779 685 855.5 757 c 128,-1,14
 932 829 932 829 932 960 c 0,15,16
 932 1090 932 1090 856 1161 c 128,-1,17
 780 1232 780 1232 641 1232 c 2,18,-1
 385 1232 l 1,10,-1
EndSplineSet
EndChar

StartChar: Q
Encoding: 81 81 52
Width: 1525
GlyphClass: 2
Flags: W
LayerCount: 2
Fore
SplineSet
1391 -146 m 1,0,-1
 1131 -146 l 1,1,-1
 1017 17 l 1,2,3
 904 -24 904 -24 763 -24 c 0,4,5
 447 -24 447 -24 262.5 176 c 128,-1,6
 78 376 78 376 78 721 c 0,7,8
 78 1065 78 1065 262.5 1266 c 128,-1,9
 447 1467 447 1467 763 1467 c 0,10,11
 1078 1467 1078 1467 1262.5 1266 c 128,-1,12
 1447 1065 1447 1065 1447 721 c 0,13,14
 1447 524 1447 524 1384.5 371 c 128,-1,15
 1322 218 1322 218 1205 125 c 1,16,-1
 1391 -146 l 1,0,-1
763 194 m 0,17,18
 823 194 823 194 884 212 c 1,19,-1
 718 452 l 1,20,-1
 965 452 l 1,21,-1
 1050 336 l 1,22,23
 1184 472 1184 472 1184 721 c 0,24,25
 1184 963 1184 963 1070 1106 c 128,-1,26
 956 1249 956 1249 763 1249 c 128,-1,27
 570 1249 570 1249 456 1106 c 128,-1,28
 342 963 342 963 342 721 c 128,-1,29
 342 479 342 479 456 336.5 c 128,-1,30
 570 194 570 194 763 194 c 0,17,18
EndSplineSet
EndChar

StartChar: R
Encoding: 82 82 53
Width: 1287
GlyphClass: 2
Flags: W
LayerCount: 2
Fore
SplineSet
385 1234 m 1,0,-1
 385 741 l 1,1,-1
 683 741 l 2,2,3
 806 741 806 741 873.5 806 c 128,-1,4
 941 871 941 871 941 988 c 0,5,6
 941 1102 941 1102 870.5 1168 c 128,-1,7
 800 1234 800 1234 677 1234 c 2,8,-1
 385 1234 l 1,0,-1
385 543 m 1,9,-1
 385 0 l 1,10,-1
 127 0 l 1,11,-1
 127 1443 l 1,12,-1
 707 1443 l 2,13,14
 940 1443 940 1443 1073 1322.5 c 128,-1,15
 1206 1202 1206 1202 1206 994 c 0,16,17
 1206 849 1206 849 1134 738.5 c 128,-1,18
 1062 628 1062 628 934 582 c 1,19,-1
 1249 0 l 1,20,-1
 954 0 l 1,21,-1
 671 543 l 1,22,-1
 385 543 l 1,9,-1
EndSplineSet
EndChar

StartChar: S
Encoding: 83 83 54
Width: 1265
GlyphClass: 2
Flags: W
LayerCount: 2
Fore
SplineSet
68 406 m 1,0,-1
 318 406 l 1,1,2
 330 307 330 307 420 246.5 c 128,-1,3
 510 186 510 186 643 186 c 0,4,5
 773 186 773 186 855.5 244 c 128,-1,6
 938 302 938 302 938 392 c 0,7,8
 938 470 938 470 878 518.5 c 128,-1,9
 818 567 818 567 682 599 c 2,10,-1
 495 643 l 2,11,12
 296 689 296 689 199.5 786 c 128,-1,13
 103 883 103 883 103 1038 c 0,14,15
 103 1229 103 1229 253 1348 c 128,-1,16
 403 1467 403 1467 640 1467 c 0,17,18
 878 1467 878 1467 1023.5 1349.5 c 128,-1,19
 1169 1232 1169 1232 1174 1041 c 1,20,-1
 928 1041 l 1,21,22
 919 1142 919 1142 841 1199.5 c 128,-1,23
 763 1257 763 1257 638 1257 c 0,24,25
 516 1257 516 1257 440.5 1202 c 128,-1,26
 365 1147 365 1147 365 1057 c 0,27,28
 365 985 365 985 423.5 940 c 128,-1,29
 482 895 482 895 615 863 c 2,30,-1
 781 825 l 2,31,32
 1000 775 1000 775 1099 679 c 128,-1,33
 1198 583 1198 583 1198 422 c 0,34,35
 1198 217 1198 217 1044.5 96.5 c 128,-1,36
 891 -24 891 -24 629 -24 c 0,37,38
 379 -24 379 -24 227.5 91.5 c 128,-1,39
 76 207 76 207 68 406 c 1,0,-1
EndSplineSet
EndChar

StartChar: T
Encoding: 84 84 55
Width: 1230
GlyphClass: 2
Flags: W
LayerCount: 2
Fore
SplineSet
744 0 m 1,0,-1
 486 0 l 1,1,-1
 486 1225 l 1,2,-1
 48 1225 l 1,3,-1
 48 1443 l 1,4,-1
 1182 1443 l 1,5,-1
 1182 1225 l 1,6,-1
 744 1225 l 1,7,-1
 744 0 l 1,0,-1
EndSplineSet
EndChar

StartChar: U
Encoding: 85 85 56
Width: 1441
GlyphClass: 2
Flags: W
LayerCount: 2
Fore
SplineSet
385 1443 m 1,0,-1
 385 532 l 2,1,2
 385 382 385 382 473.5 291.5 c 128,-1,3
 562 201 562 201 720 201 c 128,-1,4
 878 201 878 201 967 291.5 c 128,-1,5
 1056 382 1056 382 1056 532 c 2,6,-1
 1056 1443 l 1,7,-1
 1313 1443 l 1,8,-1
 1313 509 l 2,9,10
 1313 270 1313 270 1152.5 123 c 128,-1,11
 992 -24 992 -24 720 -24 c 0,12,13
 449 -24 449 -24 288 123 c 128,-1,14
 127 270 127 270 127 509 c 2,15,-1
 127 1443 l 1,16,-1
 385 1443 l 1,0,-1
EndSplineSet
EndChar

StartChar: V
Encoding: 86 86 57
Width: 1354
GlyphClass: 2
Flags: W
LayerCount: 2
Fore
SplineSet
825 0 m 1,0,-1
 529 0 l 1,1,-1
 27 1443 l 1,2,-1
 311 1443 l 1,3,-1
 677 277 l 1,4,-1
 683 277 l 1,5,-1
 1049 1443 l 1,6,-1
 1327 1443 l 1,7,-1
 825 0 l 1,0,-1
EndSplineSet
EndChar

StartChar: W
Encoding: 87 87 58
Width: 1946
GlyphClass: 2
Flags: W
LayerCount: 2
Fore
SplineSet
968 1044 m 1,0,-1
 673 0 l 1,1,-1
 430 0 l 1,2,-1
 43 1443 l 1,3,-1
 311 1443 l 1,4,-1
 561 350 l 1,5,-1
 569 350 l 1,6,-1
 859 1443 l 1,7,-1
 1087 1443 l 1,8,-1
 1377 350 l 1,9,-1
 1385 350 l 1,10,-1
 1635 1443 l 1,11,-1
 1903 1443 l 1,12,-1
 1516 0 l 1,13,-1
 1273 0 l 1,14,-1
 978 1044 l 1,15,-1
 968 1044 l 1,0,-1
EndSplineSet
EndChar

StartChar: X
Encoding: 88 88 59
Width: 1366
GlyphClass: 2
Flags: W
LayerCount: 2
Fore
SplineSet
44 0 m 1,0,-1
 514 723 l 1,1,-1
 514 730 l 1,2,-1
 48 1443 l 1,3,-1
 353 1443 l 1,4,-1
 687 901 l 1,5,-1
 695 901 l 1,6,-1
 1033 1443 l 1,7,-1
 1322 1443 l 1,8,-1
 841 724 l 1,9,-1
 841 717 l 1,10,-1
 1314 0 l 1,11,-1
 1017 0 l 1,12,-1
 677 530 l 1,13,-1
 669 530 l 1,14,-1
 325 0 l 1,15,-1
 44 0 l 1,0,-1
EndSplineSet
EndChar

StartChar: Y
Encoding: 89 89 60
Width: 1323
GlyphClass: 2
Flags: W
LayerCount: 2
Fore
SplineSet
790 0 m 1,0,-1
 533 0 l 1,1,-1
 533 569 l 1,2,-1
 27 1443 l 1,3,-1
 310 1443 l 1,4,-1
 660 815 l 1,5,-1
 666 815 l 1,6,-1
 1015 1443 l 1,7,-1
 1296 1443 l 1,8,-1
 790 569 l 1,9,-1
 790 0 l 1,0,-1
EndSplineSet
EndChar

StartChar: Z
Encoding: 90 90 61
Width: 1281
GlyphClass: 2
Flags: W
LayerCount: 2
Fore
SplineSet
92 0 m 1,0,-1
 92 172 l 1,1,-1
 858 1218 l 1,2,-1
 858 1225 l 1,3,-1
 113 1225 l 1,4,-1
 113 1443 l 1,5,-1
 1170 1443 l 1,6,-1
 1170 1271 l 1,7,-1
 408 225 l 1,8,-1
 408 218 l 1,9,-1
 1189 218 l 1,10,-1
 1189 0 l 1,11,-1
 92 0 l 1,0,-1
EndSplineSet
EndChar

StartChar: bracketleft
Encoding: 91 91 62
Width: 722
GlyphClass: 2
Flags: W
LayerCount: 2
Fore
SplineSet
168 1444 m 1,0,-1
 698 1444 l 1,1,-1
 698 1258 l 1,2,-1
 408 1258 l 1,3,-1
 408 -54 l 1,4,-1
 711 -54 l 1,5,-1
 711 -240 l 1,6,-1
 168 -240 l 1,7,-1
 168 1444 l 1,0,-1
EndSplineSet
Substitution2: "'case' Case-Sensitive Forms in Latin lookup 4 subtable" bracketleft.uc
EndChar

StartChar: backslash
Encoding: 92 92 63
Width: 651
GlyphClass: 2
Flags: W
LayerCount: 2
Fore
SplineSet
429 -306 m 1,0,-1
 0 1444 l 1,1,-1
 227 1444 l 1,2,-1
 651 -306 l 1,3,-1
 429 -306 l 1,0,-1
EndSplineSet
Substitution2: "'case' Case-Sensitive Forms in Latin lookup 4 subtable" backslash.uc
EndChar

StartChar: bracketright
Encoding: 93 93 64
Width: 722
GlyphClass: 2
Flags: W
LayerCount: 2
Fore
SplineSet
553 1444 m 1,0,-1
 553 -240 l 1,1,-1
 11 -240 l 1,2,-1
 11 -54 l 1,3,-1
 315 -54 l 1,4,-1
 315 1258 l 1,5,-1
 24 1258 l 1,6,-1
 24 1444 l 1,7,-1
 553 1444 l 1,0,-1
EndSplineSet
Substitution2: "'case' Case-Sensitive Forms in Latin lookup 4 subtable" bracketright.uc
EndChar

StartChar: asciicircum
Encoding: 94 94 65
Width: 948
GlyphClass: 2
Flags: W
LayerCount: 2
Fore
SplineSet
465 1233 m 1,0,-1
 266 820 l 1,1,-1
 42 820 l 1,2,-1
 358 1437 l 1,3,-1
 592 1437 l 1,4,-1
 906 820 l 1,5,-1
 678 820 l 1,6,-1
 482 1233 l 1,7,-1
 465 1233 l 1,0,-1
EndSplineSet
EndChar

StartChar: underscore
Encoding: 95 95 66
Width: 846
GlyphClass: 2
Flags: W
LayerCount: 2
Fore
SplineSet
895 -292 m 1,0,-1
 -49 -292 l 1,1,-1
 -49 -107 l 1,2,-1
 895 -107 l 1,3,-1
 895 -292 l 1,0,-1
EndSplineSet
EndChar

StartChar: grave
Encoding: 96 96 67
Width: 1008
GlyphClass: 2
Flags: W
LayerCount: 2
Fore
SplineSet
734 1258 m 1,0,-1
 533 1258 l 1,1,-1
 271 1565 l 1,2,-1
 517 1565 l 1,3,-1
 734 1258 l 1,0,-1
EndSplineSet
EndChar

StartChar: a
Encoding: 97 97 68
Width: 1116
GlyphClass: 2
Flags: W
LayerCount: 2
Fore
SplineSet
501 179 m 0,0,1
 615 179 615 179 691 243 c 128,-1,2
 767 307 767 307 767 406 c 2,3,-1
 767 489 l 1,4,-1
 517 473 l 2,5,6
 309 459 309 459 309 323 c 0,7,8
 309 257 309 257 361.5 218 c 128,-1,9
 414 179 414 179 501 179 c 0,0,1
428 -12 m 0,10,11
 266 -12 266 -12 162.5 78 c 128,-1,12
 59 168 59 168 59 313 c 0,13,14
 59 459 59 459 167.5 541 c 128,-1,15
 276 623 276 623 483 636 c 2,16,-1
 767 653 l 1,17,-1
 767 733 l 2,18,19
 767 819 767 819 711.5 865.5 c 128,-1,20
 656 912 656 912 555 912 c 0,21,22
 471 912 471 912 414 872 c 128,-1,23
 357 832 357 832 344 765 c 1,24,-1
 114 765 l 1,25,26
 119 915 119 915 244.5 1011.5 c 128,-1,27
 370 1108 370 1108 563 1108 c 0,28,29
 768 1108 768 1108 890.5 1010 c 128,-1,30
 1013 912 1013 912 1013 749 c 2,31,-1
 1013 0 l 1,32,-1
 774 0 l 1,33,-1
 774 176 l 1,34,-1
 768 176 l 1,35,36
 723 89 723 89 630.5 38.5 c 128,-1,37
 538 -12 538 -12 428 -12 c 0,10,11
EndSplineSet
EndChar

StartChar: b
Encoding: 98 98 69
Width: 1223
GlyphClass: 2
Flags: W
LayerCount: 2
Fore
SplineSet
710 -12 m 0,0,1
 591 -12 591 -12 501 39.5 c 128,-1,2
 411 91 411 91 363 186 c 1,3,-1
 357 186 l 1,4,-1
 357 0 l 1,5,-1
 114 0 l 1,6,-1
 114 1510 l 1,7,-1
 363 1510 l 1,8,-1
 363 909 l 1,9,-1
 369 909 l 1,10,11
 416 1002 416 1002 505.5 1053.5 c 128,-1,12
 595 1105 595 1105 711 1105 c 0,13,14
 918 1105 918 1105 1040.5 954 c 128,-1,15
 1163 803 1163 803 1163 546 c 0,16,17
 1163 290 1163 290 1040.5 139 c 128,-1,18
 918 -12 918 -12 710 -12 c 0,0,1
636 898 m 128,-1,20
 513 898 513 898 437.5 801 c 128,-1,21
 362 704 362 704 362 546 c 128,-1,22
 362 388 362 388 437.5 291.5 c 128,-1,23
 513 195 513 195 636 195 c 0,24,25
 760 195 760 195 834 290.5 c 128,-1,26
 908 386 908 386 908 546 c 128,-1,27
 908 706 908 706 833.5 802 c 128,-1,19
 759 898 759 898 636 898 c 128,-1,20
EndSplineSet
EndChar

StartChar: c
Encoding: 99 99 70
Width: 1112
GlyphClass: 2
Flags: W
LayerCount: 2
Fore
SplineSet
1063 706 m 1,0,-1
 828 706 l 1,1,2
 814 795 814 795 750 850 c 128,-1,3
 686 905 686 905 584 905 c 0,4,5
 461 905 461 905 387 808 c 128,-1,6
 313 711 313 711 313 547 c 0,7,8
 313 379 313 379 387 283 c 128,-1,9
 461 187 461 187 585 187 c 0,10,11
 685 187 685 187 748.5 237 c 128,-1,12
 812 287 812 287 829 380 c 1,13,-1
 1064 380 l 1,14,15
 1048 200 1048 200 917.5 92 c 128,-1,16
 787 -16 787 -16 583 -16 c 0,17,18
 344 -16 344 -16 202 135.5 c 128,-1,19
 60 287 60 287 60 547 c 0,20,21
 60 803 60 803 202 955.5 c 128,-1,22
 344 1108 344 1108 581 1108 c 0,23,24
 790 1108 790 1108 920 994 c 128,-1,25
 1050 880 1050 880 1063 706 c 1,0,-1
EndSplineSet
EndChar

StartChar: d
Encoding: 100 100 71
Width: 1221
GlyphClass: 2
Flags: W
LayerCount: 2
Fore
SplineSet
515 -12 m 0,0,1
 310 -12 310 -12 185 140.5 c 128,-1,2
 60 293 60 293 60 547 c 0,3,4
 60 800 60 800 185 952.5 c 128,-1,5
 310 1105 310 1105 514 1105 c 0,6,7
 631 1105 631 1105 720 1053 c 128,-1,8
 809 1001 809 1001 854 909 c 1,9,-1
 860 909 l 1,10,-1
 860 1510 l 1,11,-1
 1109 1510 l 1,12,-1
 1109 0 l 1,13,-1
 865 0 l 1,14,-1
 865 186 l 1,15,-1
 860 186 l 1,16,17
 815 94 815 94 724.5 41 c 128,-1,18
 634 -12 634 -12 515 -12 c 0,0,1
588 898 m 0,19,20
 464 898 464 898 389.5 802 c 128,-1,21
 315 706 315 706 315 546 c 0,22,23
 315 385 315 385 389.5 290 c 128,-1,24
 464 195 464 195 588 195 c 128,-1,25
 712 195 712 195 786.5 291 c 128,-1,26
 861 387 861 387 861 546 c 0,27,28
 861 704 861 704 786 801 c 128,-1,29
 711 898 711 898 588 898 c 0,19,20
EndSplineSet
EndChar

StartChar: e
Encoding: 101 101 72
Width: 1135
GlyphClass: 2
Flags: W
LayerCount: 2
Fore
SplineSet
574 914 m 0,0,1
 465 914 465 914 392 841.5 c 128,-1,2
 319 769 319 769 311 652 c 1,3,-1
 829 652 l 1,4,5
 825 770 825 770 755 842 c 128,-1,6
 685 914 685 914 574 914 c 0,0,1
830 325 m 1,7,-1
 1064 325 l 1,8,9
 1040 173 1040 173 907 78.5 c 128,-1,10
 774 -16 774 -16 583 -16 c 0,11,12
 341 -16 341 -16 200.5 134 c 128,-1,13
 60 284 60 284 60 542 c 128,-1,14
 60 800 60 800 199.5 954 c 128,-1,15
 339 1108 339 1108 574 1108 c 0,16,17
 804 1108 804 1108 939 962 c 128,-1,18
 1074 816 1074 816 1074 568 c 2,19,-1
 1074 486 l 1,20,-1
 309 486 l 1,21,-1
 309 471 l 2,22,23
 309 339 309 339 386 258.5 c 128,-1,24
 463 178 463 178 588 178 c 0,25,26
 678 178 678 178 743 217.5 c 128,-1,27
 808 257 808 257 830 325 c 1,7,-1
EndSplineSet
EndChar

StartChar: f
Encoding: 102 102 73
Width: 696
GlyphClass: 2
Flags: W
LayerCount: 2
Fore
SplineSet
176 0 m 1,0,-1
 176 900 l 1,1,-1
 27 900 l 1,2,-1
 27 1093 l 1,3,-1
 176 1093 l 1,4,-1
 176 1191 l 2,5,6
 176 1347 176 1347 253.5 1416.5 c 128,-1,7
 331 1486 331 1486 507 1486 c 0,8,9
 575 1486 575 1486 628 1476 c 1,10,-1
 628 1295 l 1,11,12
 593 1303 593 1303 548 1303 c 0,13,14
 481 1303 481 1303 451.5 1274 c 128,-1,15
 422 1245 422 1245 422 1180 c 2,16,-1
 422 1093 l 1,17,-1
 629 1093 l 1,18,-1
 629 900 l 1,19,-1
 425 900 l 1,20,-1
 425 0 l 1,21,-1
 176 0 l 1,0,-1
EndSplineSet
EndChar

StartChar: g
Encoding: 103 103 74
Width: 1215
GlyphClass: 2
Flags: W
LayerCount: 2
Fore
SplineSet
585 205 m 0,0,1
 710 205 710 205 785 298.5 c 128,-1,2
 860 392 860 392 860 549 c 0,3,4
 860 707 860 707 784.5 802.5 c 128,-1,5
 709 898 709 898 585 898 c 0,6,7
 462 898 462 898 388.5 803.5 c 128,-1,8
 315 709 315 709 315 549 c 0,9,10
 315 391 315 391 388.5 298 c 128,-1,11
 462 205 462 205 585 205 c 0,0,1
585 -396 m 0,12,13
 380 -396 380 -396 247 -310.5 c 128,-1,14
 114 -225 114 -225 100 -82 c 1,15,-1
 349 -82 l 1,16,17
 365 -141 365 -141 431.5 -175.5 c 128,-1,18
 498 -210 498 -210 593 -210 c 0,19,20
 715 -210 715 -210 787.5 -151.5 c 128,-1,21
 860 -93 860 -93 860 8 c 2,22,-1
 860 194 l 1,23,-1
 854 194 l 1,24,25
 810 106 810 106 719 55 c 128,-1,26
 628 4 628 4 511 4 c 0,27,28
 307 4 307 4 183.5 152.5 c 128,-1,29
 60 301 60 301 60 550 c 0,30,31
 60 804 60 804 183.5 954.5 c 128,-1,32
 307 1105 307 1105 516 1105 c 0,33,34
 632 1105 632 1105 722 1053 c 128,-1,35
 812 1001 812 1001 860 909 c 1,36,-1
 865 909 l 1,37,-1
 865 1093 l 1,38,-1
 1109 1093 l 1,39,-1
 1109 27 l 2,40,41
 1109 -168 1109 -168 967.5 -282 c 128,-1,42
 826 -396 826 -396 585 -396 c 0,12,13
EndSplineSet
EndChar

StartChar: h
Encoding: 104 104 75
Width: 1218
GlyphClass: 2
Flags: W
LayerCount: 2
Fore
SplineSet
114 0 m 1,0,-1
 114 1510 l 1,1,-1
 360 1510 l 1,2,-1
 360 903 l 1,3,-1
 365 903 l 1,4,5
 413 1003 413 1003 503.5 1054.5 c 128,-1,6
 594 1106 594 1106 720 1106 c 0,7,8
 901 1106 901 1106 1009 995.5 c 128,-1,9
 1117 885 1117 885 1117 698 c 2,10,-1
 1117 0 l 1,11,-1
 868 0 l 1,12,-1
 868 648 l 2,13,14
 868 764 868 764 803.5 829.5 c 128,-1,15
 739 895 739 895 626 895 c 0,16,17
 509 895 509 895 436 820 c 128,-1,18
 363 745 363 745 363 623 c 2,19,-1
 363 0 l 1,20,-1
 114 0 l 1,0,-1
EndSplineSet
EndChar

StartChar: i
Encoding: 105 105 76
Width: 475
GlyphClass: 2
Flags: W
LayerCount: 2
Fore
SplineSet
113 0 m 1,0,-1
 113 1093 l 1,1,-1
 362 1093 l 1,2,-1
 362 0 l 1,3,-1
 113 0 l 1,0,-1
237 1232 m 0,4,5
 179 1232 179 1232 138 1272 c 128,-1,6
 97 1312 97 1312 97 1369 c 0,7,8
 97 1427 97 1427 138 1466.5 c 128,-1,9
 179 1506 179 1506 237 1506 c 0,10,11
 296 1506 296 1506 336.5 1466.5 c 128,-1,12
 377 1427 377 1427 377 1369 c 128,-1,13
 377 1311 377 1311 336.5 1271.5 c 128,-1,14
 296 1232 296 1232 237 1232 c 0,4,5
EndSplineSet
Substitution2: "'locl' Localized Forms in Latin lookup 1 subtable" idotaccent
EndChar

StartChar: j
Encoding: 106 106 77
Width: 475
GlyphClass: 2
Flags: W
LayerCount: 2
Fore
SplineSet
362 1093 m 1,0,-1
 362 -53 l 2,1,2
 362 -384 362 -384 -7 -384 c 0,3,4
 -52 -384 -52 -384 -68 -382 c 1,5,-1
 -68 -191 l 1,6,7
 -64 -192 -64 -192 -35 -192 c 0,8,9
 45 -192 45 -192 79 -159.5 c 128,-1,10
 113 -127 113 -127 113 -49 c 2,11,-1
 113 1093 l 1,12,-1
 362 1093 l 1,0,-1
237 1232 m 0,13,14
 179 1232 179 1232 138 1272 c 128,-1,15
 97 1312 97 1312 97 1369 c 0,16,17
 97 1427 97 1427 138 1466.5 c 128,-1,18
 179 1506 179 1506 237 1506 c 0,19,20
 296 1506 296 1506 336.5 1466.5 c 128,-1,21
 377 1427 377 1427 377 1369 c 128,-1,22
 377 1311 377 1311 336.5 1271.5 c 128,-1,23
 296 1232 296 1232 237 1232 c 0,13,14
EndSplineSet
EndChar

StartChar: k
Encoding: 107 107 78
Width: 1090
GlyphClass: 2
Flags: W
LayerCount: 2
Fore
SplineSet
366 634 m 1,0,-1
 784 1093 l 1,1,-1
 1073 1093 l 1,2,-1
 631 622 l 1,3,-1
 1091 0 l 1,4,-1
 803 0 l 1,5,-1
 451 471 l 1,6,-1
 363 382 l 1,7,-1
 363 0 l 1,8,-1
 114 0 l 1,9,-1
 114 1510 l 1,10,-1
 363 1510 l 1,11,-1
 363 634 l 1,12,-1
 366 634 l 1,0,-1
EndSplineSet
EndChar

StartChar: l
Encoding: 108 108 79
Width: 478
GlyphClass: 2
Flags: W
LayerCount: 2
Fore
SplineSet
114 0 m 1,0,-1
 114 1510 l 1,1,-1
 363 1510 l 1,2,-1
 363 0 l 1,3,-1
 114 0 l 1,0,-1
EndSplineSet
EndChar

StartChar: m
Encoding: 109 109 80
Width: 1771
GlyphClass: 2
Flags: W
LayerCount: 2
Fore
SplineSet
106 0 m 1,0,-1
 106 1093 l 1,1,-1
 345 1093 l 1,2,-1
 345 901 l 1,3,-1
 350 901 l 1,4,5
 386 996 386 996 469.5 1051 c 128,-1,6
 553 1106 553 1106 661 1106 c 0,7,8
 777 1106 777 1106 856.5 1049.5 c 128,-1,9
 936 993 936 993 967 889 c 1,10,-1
 972 889 l 1,11,12
 1012 989 1012 989 1103.5 1047.5 c 128,-1,13
 1195 1106 1195 1106 1313 1106 c 0,14,15
 1474 1106 1474 1106 1572 1007 c 128,-1,16
 1670 908 1670 908 1670 744 c 2,17,-1
 1670 0 l 1,18,-1
 1421 0 l 1,19,-1
 1421 683 l 2,20,21
 1421 785 1421 785 1369 840.5 c 128,-1,22
 1317 896 1317 896 1221 896 c 0,23,24
 1127 896 1127 896 1068 833 c 128,-1,25
 1009 770 1009 770 1009 670 c 2,26,-1
 1009 0 l 1,27,-1
 767 0 l 1,28,-1
 767 697 l 2,29,30
 767 789 767 789 714 842.5 c 128,-1,31
 661 896 661 896 570 896 c 0,32,33
 476 896 476 896 415.5 830.5 c 128,-1,34
 355 765 355 765 355 664 c 2,35,-1
 355 0 l 1,36,-1
 106 0 l 1,0,-1
EndSplineSet
EndChar

StartChar: n
Encoding: 110 110 81
Width: 1194
GlyphClass: 2
Flags: W
LayerCount: 2
Fore
SplineSet
106 0 m 1,0,-1
 106 1093 l 1,1,-1
 345 1093 l 1,2,-1
 345 903 l 1,3,-1
 350 903 l 1,4,5
 449 1106 449 1106 703 1106 c 0,6,7
 885 1106 885 1106 989 998 c 128,-1,8
 1093 890 1093 890 1093 700 c 2,9,-1
 1093 0 l 1,10,-1
 844 0 l 1,11,-1
 844 651 l 2,12,13
 844 768 844 768 783 831.5 c 128,-1,14
 722 895 722 895 610 895 c 0,15,16
 495 895 495 895 425 821 c 128,-1,17
 355 747 355 747 355 627 c 2,18,-1
 355 0 l 1,19,-1
 106 0 l 1,0,-1
EndSplineSet
EndChar

StartChar: o
Encoding: 111 111 82
Width: 1173
GlyphClass: 2
Flags: W
LayerCount: 2
Fore
SplineSet
586 -16 m 0,0,1
 344 -16 344 -16 202 135 c 128,-1,2
 60 286 60 286 60 547 c 0,3,4
 60 805 60 805 202.5 956.5 c 128,-1,5
 345 1108 345 1108 586 1108 c 0,6,7
 828 1108 828 1108 970.5 957 c 128,-1,8
 1113 806 1113 806 1113 547 c 0,9,10
 1113 286 1113 286 971 135 c 128,-1,11
 829 -16 829 -16 586 -16 c 0,0,1
586 183 m 0,12,13
 715 183 715 183 787.5 278.5 c 128,-1,14
 860 374 860 374 860 546 c 0,15,16
 860 717 860 717 787.5 813 c 128,-1,17
 715 909 715 909 586 909 c 0,18,19
 458 909 458 909 385.5 813 c 128,-1,20
 313 717 313 717 313 546 c 128,-1,21
 313 375 313 375 385.5 279 c 128,-1,22
 458 183 458 183 586 183 c 0,12,13
EndSplineSet
EndChar

StartChar: p
Encoding: 112 112 83
Width: 1215
GlyphClass: 2
Flags: W
LayerCount: 2
Fore
SplineSet
699 1105 m 0,0,1
 908 1105 908 1105 1031 954 c 128,-1,2
 1154 803 1154 803 1154 546 c 0,3,4
 1154 290 1154 290 1032 139 c 128,-1,5
 910 -12 910 -12 703 -12 c 0,6,7
 586 -12 586 -12 496.5 38.5 c 128,-1,8
 407 89 407 89 360 181 c 1,9,-1
 355 181 l 1,10,-1
 355 -351 l 1,11,-1
 106 -351 l 1,12,-1
 106 1093 l 1,13,-1
 349 1093 l 1,14,-1
 349 909 l 1,15,-1
 354 909 l 1,16,17
 399 999 399 999 492 1052 c 128,-1,18
 585 1105 585 1105 699 1105 c 0,0,1
626 195 m 0,19,20
 750 195 750 195 824.5 290.5 c 128,-1,21
 899 386 899 386 899 546 c 128,-1,22
 899 706 899 706 824.5 802 c 128,-1,23
 750 898 750 898 626 898 c 0,24,25
 504 898 504 898 429 801 c 128,-1,26
 354 704 354 704 354 546 c 128,-1,27
 354 388 354 388 429 291.5 c 128,-1,28
 504 195 504 195 626 195 c 0,19,20
EndSplineSet
EndChar

StartChar: q
Encoding: 113 113 84
Width: 1215
GlyphClass: 2
Flags: W
LayerCount: 2
Fore
SplineSet
516 1105 m 0,0,1
 633 1105 633 1105 723.5 1053 c 128,-1,2
 814 1001 814 1001 860 909 c 1,3,-1
 865 909 l 1,4,-1
 865 1093 l 1,5,-1
 1109 1093 l 1,6,-1
 1109 -351 l 1,7,-1
 860 -351 l 1,8,-1
 860 181 l 1,9,-1
 854 181 l 1,10,11
 810 92 810 92 719 40 c 128,-1,12
 628 -12 628 -12 511 -12 c 0,13,14
 306 -12 306 -12 183 140 c 128,-1,15
 60 292 60 292 60 547 c 128,-1,16
 60 802 60 802 184 953.5 c 128,-1,17
 308 1105 308 1105 516 1105 c 0,0,1
585 195 m 0,18,19
 710 195 710 195 785 291 c 128,-1,20
 860 387 860 387 860 546 c 0,21,22
 860 704 860 704 784.5 801 c 128,-1,23
 709 898 709 898 585 898 c 0,24,25
 462 898 462 898 388.5 802.5 c 128,-1,26
 315 707 315 707 315 546 c 128,-1,27
 315 385 315 385 388.5 290 c 128,-1,28
 462 195 462 195 585 195 c 0,18,19
EndSplineSet
EndChar

StartChar: r
Encoding: 114 114 85
Width: 719
GlyphClass: 2
Flags: W
LayerCount: 2
Fore
SplineSet
106 0 m 1,0,-1
 106 1093 l 1,1,-1
 345 1093 l 1,2,-1
 345 903 l 1,3,-1
 350 903 l 1,4,5
 376 999 376 999 445.5 1052 c 128,-1,6
 515 1105 515 1105 612 1105 c 0,7,8
 658 1105 658 1105 688 1095 c 1,9,-1
 688 868 l 1,10,11
 655 883 655 883 589 883 c 0,12,13
 480 883 480 883 417.5 816.5 c 128,-1,14
 355 750 355 750 355 634 c 2,15,-1
 355 0 l 1,16,-1
 106 0 l 1,0,-1
EndSplineSet
EndChar

StartChar: s
Encoding: 115 115 86
Width: 1044
GlyphClass: 2
Flags: W
LayerCount: 2
Fore
SplineSet
87 777 m 0,0,1
 87 926 87 926 208 1017 c 128,-1,2
 329 1108 329 1108 526 1108 c 0,3,4
 715 1108 715 1108 835 1015.5 c 128,-1,5
 955 923 955 923 959 774 c 1,6,-1
 727 774 l 1,7,8
 721 843 721 843 665.5 883.5 c 128,-1,9
 610 924 610 924 521 924 c 0,10,11
 434 924 434 924 381.5 887.5 c 128,-1,12
 329 851 329 851 329 791 c 0,13,14
 329 700 329 700 488 663 c 2,15,-1
 680 619 l 2,16,17
 845 581 845 581 914.5 513 c 128,-1,18
 984 445 984 445 984 324 c 0,19,20
 984 172 984 172 855 78 c 128,-1,21
 726 -16 726 -16 520 -16 c 0,22,23
 320 -16 320 -16 195.5 76.5 c 128,-1,24
 71 169 71 169 59 322 c 1,25,-1
 304 322 l 1,26,27
 315 248 315 248 373.5 208 c 128,-1,28
 432 168 432 168 530 168 c 0,29,30
 625 168 625 168 680.5 203.5 c 128,-1,31
 736 239 736 239 736 300 c 0,32,33
 736 348 736 348 702.5 376.5 c 128,-1,34
 669 405 669 405 587 424 c 2,35,-1
 389 472 l 2,36,37
 87 543 87 543 87 777 c 0,0,1
EndSplineSet
EndChar

StartChar: t
Encoding: 116 116 87
Width: 702
GlyphClass: 2
Flags: W
LayerCount: 2
Fore
SplineSet
176 1337 m 1,0,-1
 425 1337 l 1,1,-1
 425 1093 l 1,2,-1
 632 1093 l 1,3,-1
 632 900 l 1,4,-1
 425 900 l 1,5,-1
 425 324 l 2,6,7
 425 191 425 191 557 191 c 0,8,9
 591 191 591 191 631 196 c 1,10,-1
 631 5 l 1,11,12
 586 -5 586 -5 500 -5 c 0,13,14
 326 -5 326 -5 251 63.5 c 128,-1,15
 176 132 176 132 176 290 c 2,16,-1
 176 900 l 1,17,-1
 27 900 l 1,18,-1
 27 1093 l 1,19,-1
 176 1093 l 1,20,-1
 176 1337 l 1,0,-1
EndSplineSet
EndChar

StartChar: u
Encoding: 117 117 88
Width: 1194
GlyphClass: 2
Flags: W
LayerCount: 2
Fore
SplineSet
1088 1093 m 1,0,-1
 1088 0 l 1,1,-1
 849 0 l 1,2,-1
 849 191 l 1,3,-1
 843 191 l 1,4,5
 798 91 798 91 708.5 38.5 c 128,-1,6
 619 -14 619 -14 495 -14 c 0,7,8
 315 -14 315 -14 208 95 c 128,-1,9
 101 204 101 204 101 392 c 2,10,-1
 101 1093 l 1,11,-1
 350 1093 l 1,12,-1
 350 442 l 2,13,14
 350 324 350 324 411.5 260.5 c 128,-1,15
 473 197 473 197 584 197 c 0,16,17
 698 197 698 197 768.5 271 c 128,-1,18
 839 345 839 345 839 466 c 2,19,-1
 839 1093 l 1,20,-1
 1088 1093 l 1,0,-1
EndSplineSet
EndChar

StartChar: v
Encoding: 118 118 89
Width: 1075
GlyphClass: 2
Flags: W
LayerCount: 2
Fore
SplineSet
1061 1093 m 1,0,-1
 675 0 l 1,1,-1
 402 0 l 1,2,-1
 14 1093 l 1,3,-1
 279 1093 l 1,4,-1
 538 234 l 1,5,-1
 543 234 l 1,6,-1
 801 1093 l 1,7,-1
 1061 1093 l 1,0,-1
EndSplineSet
EndChar

StartChar: w
Encoding: 119 119 90
Width: 1602
GlyphClass: 2
Flags: W
LayerCount: 2
Fore
SplineSet
1579 1093 m 1,0,-1
 1282 0 l 1,1,-1
 1021 0 l 1,2,-1
 803 803 l 1,3,-1
 797 803 l 1,4,-1
 580 0 l 1,5,-1
 321 0 l 1,6,-1
 24 1093 l 1,7,-1
 273 1093 l 1,8,-1
 461 249 l 1,9,-1
 466 249 l 1,10,-1
 683 1093 l 1,11,-1
 922 1093 l 1,12,-1
 1139 249 l 1,13,-1
 1144 249 l 1,14,-1
 1333 1093 l 1,15,-1
 1579 1093 l 1,0,-1
EndSplineSet
EndChar

StartChar: x
Encoding: 120 120 91
Width: 1063
GlyphClass: 2
Flags: W
LayerCount: 2
Fore
SplineSet
529 395 m 1,0,-1
 523 395 l 1,1,-1
 294 0 l 1,2,-1
 27 0 l 1,3,-1
 383 545 l 1,4,-1
 31 1093 l 1,5,-1
 311 1093 l 1,6,-1
 536 706 l 1,7,-1
 541 706 l 1,8,-1
 763 1093 l 1,9,-1
 1036 1093 l 1,10,-1
 683 552 l 1,11,-1
 1032 0 l 1,12,-1
 759 0 l 1,13,-1
 529 395 l 1,0,-1
EndSplineSet
EndChar

StartChar: y
Encoding: 121 121 92
Width: 1096
GlyphClass: 2
Flags: W
LayerCount: 2
Fore
SplineSet
228 -398 m 0,0,1
 155 -398 155 -398 130 -393 c 1,2,-1
 130 -195 l 1,3,4
 149 -199 149 -199 198 -199 c 0,5,6
 278 -199 278 -199 324.5 -165.5 c 128,-1,7
 371 -132 371 -132 394 -55 c 2,8,-1
 408 -4 l 1,9,-1
 17 1093 l 1,10,-1
 288 1093 l 1,11,-1
 550 215 l 1,12,-1
 555 215 l 1,13,-1
 816 1093 l 1,14,-1
 1079 1093 l 1,15,-1
 683 -38 l 2,16,17
 613 -239 613 -239 512.5 -318.5 c 128,-1,18
 412 -398 412 -398 228 -398 c 0,0,1
EndSplineSet
EndChar

StartChar: z
Encoding: 122 122 93
Width: 1034
GlyphClass: 2
Flags: W
LayerCount: 2
Fore
SplineSet
84 0 m 1,0,-1
 84 152 l 1,1,-1
 655 893 l 1,2,-1
 655 898 l 1,3,-1
 90 898 l 1,4,-1
 90 1093 l 1,5,-1
 941 1093 l 1,6,-1
 941 927 l 1,7,-1
 392 199 l 1,8,-1
 392 195 l 1,9,-1
 950 195 l 1,10,-1
 950 0 l 1,11,-1
 84 0 l 1,0,-1
EndSplineSet
EndChar

StartChar: braceleft
Encoding: 123 123 94
Width: 800
GlyphClass: 2
Flags: W
LayerCount: 2
Fore
SplineSet
342 597 m 1,0,1
 540 579 540 579 540 353 c 2,2,-1
 540 62 l 2,3,4
 540 -55 540 -55 589.5 -102.5 c 128,-1,5
 639 -150 639 -150 761 -150 c 2,6,-1
 806 -150 l 1,7,-1
 806 -337 l 1,8,-1
 718 -337 l 2,9,10
 502 -337 502 -337 402.5 -248 c 128,-1,11
 303 -159 303 -159 303 35 c 2,12,-1
 303 283 l 2,13,14
 303 401 303 401 265.5 446.5 c 128,-1,15
 228 492 228 492 131 492 c 1,16,-1
 131 732 l 1,17,18
 228 732 228 732 265.5 778 c 128,-1,19
 303 824 303 824 303 942 c 2,20,-1
 303 1157 l 2,21,22
 303 1346 303 1346 402 1432.5 c 128,-1,23
 501 1519 501 1519 718 1519 c 2,24,-1
 806 1519 l 1,25,-1
 806 1333 l 1,26,-1
 761 1333 l 2,27,28
 637 1333 637 1333 588.5 1285.5 c 128,-1,29
 540 1238 540 1238 540 1119 c 2,30,-1
 540 858 l 2,31,32
 540 749 540 749 491.5 692 c 128,-1,33
 443 635 443 635 342 625 c 1,34,-1
 342 597 l 1,0,1
EndSplineSet
Substitution2: "'case' Case-Sensitive Forms in Latin lookup 4 subtable" braceleft.uc
EndChar

StartChar: bar
Encoding: 124 124 95
Width: 546
GlyphClass: 2
Flags: W
LayerCount: 2
Fore
SplineSet
386 -305 m 1,0,-1
 160 -305 l 1,1,-1
 160 1443 l 1,2,-1
 386 1443 l 1,3,-1
 386 -305 l 1,0,-1
EndSplineSet
Substitution2: "'case' Case-Sensitive Forms in Latin lookup 4 subtable" bar.uc
EndChar

StartChar: braceright
Encoding: 125 125 96
Width: 800
GlyphClass: 2
Flags: W
LayerCount: 2
Fore
SplineSet
458 597 m 1,0,-1
 458 625 l 1,1,2
 357 635 357 635 308.5 692 c 128,-1,3
 260 749 260 749 260 858 c 2,4,-1
 260 1119 l 2,5,6
 260 1238 260 1238 211 1285.5 c 128,-1,7
 162 1333 162 1333 38 1333 c 2,8,-1
 -6 1333 l 1,9,-1
 -6 1519 l 1,10,-1
 82 1519 l 2,11,12
 299 1519 299 1519 397.5 1432.5 c 128,-1,13
 496 1346 496 1346 496 1157 c 2,14,-1
 496 942 l 2,15,16
 496 824 496 824 534 778 c 128,-1,17
 572 732 572 732 668 732 c 1,18,-1
 668 492 l 1,19,20
 571 492 571 492 533.5 446.5 c 128,-1,21
 496 401 496 401 496 283 c 2,22,-1
 496 35 l 2,23,24
 496 -159 496 -159 397 -248 c 128,-1,25
 298 -337 298 -337 82 -337 c 2,26,-1
 -6 -337 l 1,27,-1
 -6 -150 l 1,28,-1
 38 -150 l 2,29,30
 160 -150 160 -150 210 -102.5 c 128,-1,31
 260 -55 260 -55 260 62 c 2,32,-1
 260 353 l 2,33,34
 260 579 260 579 458 597 c 1,0,-1
EndSplineSet
Substitution2: "'case' Case-Sensitive Forms in Latin lookup 4 subtable" braceright.uc
EndChar

StartChar: asciitilde
Encoding: 126 126 97
Width: 1214
GlyphClass: 2
Flags: W
LayerCount: 2
Fore
SplineSet
561 628 m 0,0,1
 512 677 512 677 479.5 697 c 128,-1,2
 447 717 447 717 413 717 c 0,3,4
 296 717 296 717 288 539 c 1,5,-1
 85 539 l 1,6,7
 79 721 79 721 164 827.5 c 128,-1,8
 249 934 249 934 400 934 c 0,9,10
 467 934 467 934 527.5 903.5 c 128,-1,11
 588 873 588 873 656 805 c 0,12,13
 703 757 703 757 735 737 c 128,-1,14
 767 717 767 717 800 717 c 0,15,16
 918 717 918 717 926 896 c 1,17,-1
 1128 896 l 1,18,19
 1134 714 1134 714 1049.5 607.5 c 128,-1,20
 965 501 965 501 814 501 c 0,21,22
 748 501 748 501 688 531 c 128,-1,23
 628 561 628 561 561 628 c 0,0,1
EndSplineSet
EndChar

StartChar: exclamdown
Encoding: 161 161 99
Width: 611
GlyphClass: 2
Flags: W
LayerCount: 2
Fore
SplineSet
177 -330 m 1,0,-1
 197 636 l 1,1,-1
 414 636 l 1,2,-1
 434 -330 l 1,3,-1
 177 -330 l 1,0,-1
305 852 m 128,-1,5
 244 852 244 852 202 893 c 128,-1,6
 160 934 160 934 160 993 c 0,7,8
 160 1053 160 1053 202 1093.5 c 128,-1,9
 244 1134 244 1134 305 1134 c 0,10,11
 367 1134 367 1134 409 1093.5 c 128,-1,12
 451 1053 451 1053 451 993 c 0,13,14
 451 934 451 934 408.5 893 c 128,-1,4
 366 852 366 852 305 852 c 128,-1,5
EndSplineSet
EndChar

StartChar: cent
Encoding: 162 162 100
Width: 1294
GlyphClass: 2
Flags: W
LayerCount: 2
Fore
SplineSet
1180 540 m 1,0,1
 1165 383 1165 383 1052.5 276.5 c 128,-1,2
 940 170 940 170 768 147 c 1,3,-1
 768 -30 l 1,4,-1
 551 -30 l 1,5,-1
 551 151 l 1,6,7
 350 186 350 186 232 336.5 c 128,-1,8
 114 487 114 487 114 711 c 0,9,10
 114 932 114 932 232.5 1081 c 128,-1,11
 351 1230 351 1230 551 1265 c 1,12,-1
 551 1446 l 1,13,-1
 768 1446 l 1,14,-1
 768 1268 l 1,15,16
 939 1245 939 1245 1054.5 1133.5 c 128,-1,17
 1170 1022 1170 1022 1180 869 c 1,18,-1
 944 869 l 1,19,20
 925 962 925 962 850.5 1017 c 128,-1,21
 776 1072 776 1072 669 1072 c 0,22,23
 535 1072 535 1072 450.5 972.5 c 128,-1,24
 366 873 366 873 366 711 c 0,25,26
 366 547 366 547 451 445.5 c 128,-1,27
 536 344 536 344 669 344 c 0,28,29
 906 344 906 344 944 540 c 1,30,-1
 1180 540 l 1,0,1
EndSplineSet
EndChar

StartChar: sterling
Encoding: 163 163 101
Width: 1294
GlyphClass: 2
Flags: W
LayerCount: 2
Fore
SplineSet
464 214 m 1,0,-1
 1204 214 l 1,1,-1
 1204 0 l 1,2,-1
 103 0 l 1,3,-1
 103 203 l 1,4,5
 237 226 237 226 322.5 320 c 128,-1,6
 408 414 408 414 408 537 c 0,7,8
 408 586 408 586 395 641 c 1,9,-1
 106 641 l 1,10,-1
 106 825 l 1,11,-1
 334 825 l 1,12,13
 274 982 274 982 274 1076 c 0,14,15
 274 1266 274 1266 417 1372.5 c 128,-1,16
 560 1479 560 1479 817 1479 c 0,17,18
 907 1479 907 1479 995 1464.5 c 128,-1,19
 1083 1450 1083 1450 1136 1427 c 1,20,-1
 1136 1219 l 1,21,22
 1091 1241 1091 1241 1008 1256 c 128,-1,23
 925 1271 925 1271 844 1271 c 0,24,25
 697 1271 697 1271 615 1212.5 c 128,-1,26
 533 1154 533 1154 533 1049 c 0,27,28
 533 965 533 965 584 825 c 1,29,-1
 1018 825 l 1,30,-1
 1018 641 l 1,31,-1
 642 641 l 1,32,33
 652 593 652 593 652 552 c 0,34,35
 652 444 652 444 598.5 357 c 128,-1,36
 545 270 545 270 464 220 c 1,37,-1
 464 214 l 1,0,-1
EndSplineSet
EndChar

StartChar: currency
Encoding: 164 164 102
Width: 1310
GlyphClass: 2
Flags: W
LayerCount: 2
Fore
SplineSet
411 652 m 0,0,1
 411 551 411 551 483 478.5 c 128,-1,2
 555 406 555 406 656 406 c 128,-1,3
 757 406 757 406 829 478.5 c 128,-1,4
 901 551 901 551 901 652 c 0,5,6
 901 752 901 752 828.5 824.5 c 128,-1,7
 756 897 756 897 656 897 c 128,-1,8
 556 897 556 897 483.5 824.5 c 128,-1,9
 411 752 411 752 411 652 c 0,0,1
1178 1030 m 1,10,-1
 1022 874 l 1,11,12
 1084 771 1084 771 1084 652 c 0,13,14
 1084 531 1084 531 1021 429 c 1,15,-1
 1178 272 l 1,16,-1
 1033 128 l 1,17,-1
 876 285 l 1,18,19
 774 223 774 223 656 223 c 0,20,21
 537 223 537 223 434 285 c 1,22,-1
 277 128 l 1,23,-1
 132 272 l 1,24,-1
 289 430 l 1,25,26
 227 533 227 533 227 652 c 128,-1,27
 227 771 227 771 289 874 c 1,28,-1
 132 1030 l 1,29,-1
 277 1174 l 1,30,-1
 433 1018 l 1,31,32
 536 1080 536 1080 656 1080 c 0,33,34
 775 1080 775 1080 877 1018 c 1,35,-1
 1033 1174 l 1,36,-1
 1178 1030 l 1,10,-1
EndSplineSet
EndChar

StartChar: yen
Encoding: 165 165 103
Width: 1294
GlyphClass: 2
Flags: W
LayerCount: 2
Fore
SplineSet
1050 233 m 1,0,-1
 776 233 l 1,1,-1
 776 0 l 1,2,-1
 519 0 l 1,3,-1
 519 233 l 1,4,-1
 246 233 l 1,5,-1
 246 388 l 1,6,-1
 519 388 l 1,7,-1
 519 535 l 1,8,-1
 246 535 l 1,9,-1
 246 690 l 1,10,-1
 451 690 l 1,11,-1
 13 1443 l 1,12,-1
 296 1443 l 1,13,-1
 644 818 l 1,14,-1
 652 818 l 1,15,-1
 999 1443 l 1,16,-1
 1281 1443 l 1,17,-1
 844 690 l 1,18,-1
 1050 690 l 1,19,-1
 1050 535 l 1,20,-1
 776 535 l 1,21,-1
 776 388 l 1,22,-1
 1050 388 l 1,23,-1
 1050 233 l 1,0,-1
EndSplineSet
EndChar

StartChar: brokenbar
Encoding: 166 166 104
Width: 547
GlyphClass: 2
Flags: W
LayerCount: 2
Fore
SplineSet
387 774 m 1,0,-1
 160 774 l 1,1,-1
 160 1443 l 1,2,-1
 387 1443 l 1,3,-1
 387 774 l 1,0,-1
387 -305 m 1,4,-1
 160 -305 l 1,5,-1
 160 365 l 1,6,-1
 387 365 l 1,7,-1
 387 -305 l 1,4,-1
EndSplineSet
Substitution2: "'case' Case-Sensitive Forms in Latin lookup 4 subtable" brokenbar.uc
EndChar

StartChar: section
Encoding: 167 167 105
Width: 992
GlyphClass: 2
Flags: W
LayerCount: 2
Fore
SplineSet
439 431 m 2,0,-1
 538 402 l 1,1,2
 609 406 609 406 657.5 452.5 c 128,-1,3
 706 499 706 499 706 562 c 0,4,5
 706 616 706 616 667 655 c 128,-1,6
 628 694 628 694 555 713 c 2,7,-1
 455 742 l 1,8,9
 384 737 384 737 335 690 c 128,-1,10
 286 643 286 643 286 582 c 0,11,12
 286 529 286 529 326 489.5 c 128,-1,13
 366 450 366 450 439 431 c 2,0,-1
497 -274 m 0,14,15
 316 -274 316 -274 197.5 -185.5 c 128,-1,16
 79 -97 79 -97 71 45 c 1,17,-1
 296 45 l 1,18,19
 304 -16 304 -16 361.5 -53.5 c 128,-1,20
 419 -91 419 -91 503 -91 c 0,21,22
 589 -91 589 -91 643 -52 c 128,-1,23
 697 -13 697 -13 697 49 c 0,24,25
 697 97 697 97 657.5 130 c 128,-1,26
 618 163 618 163 530 188 c 2,27,-1
 367 239 l 2,28,29
 206 288 206 288 133 358.5 c 128,-1,30
 60 429 60 429 60 535 c 0,31,32
 60 629 60 629 118 699 c 128,-1,33
 176 769 176 769 279 800 c 1,34,-1
 279 817 l 1,35,36
 170 864 170 864 119 930.5 c 128,-1,37
 68 997 68 997 68 1091 c 0,38,39
 68 1238 68 1238 185 1328 c 128,-1,40
 302 1418 302 1418 493 1418 c 0,41,42
 671 1418 671 1418 784.5 1333 c 128,-1,43
 898 1248 898 1248 911 1105 c 1,44,-1
 688 1105 l 1,45,46
 680 1164 680 1164 625.5 1199.5 c 128,-1,47
 571 1235 571 1235 490 1235 c 0,48,49
 405 1235 405 1235 352.5 1196.5 c 128,-1,50
 300 1158 300 1158 300 1096 c 0,51,52
 300 1047 300 1047 338 1014.5 c 128,-1,53
 376 982 376 982 464 956 c 2,54,-1
 624 905 l 2,55,56
 785 856 785 856 858 786.5 c 128,-1,57
 931 717 931 717 931 615 c 0,58,59
 931 515 931 515 865 438 c 128,-1,60
 799 361 799 361 692 335 c 1,61,-1
 692 318 l 1,62,63
 812 280 812 280 869 216 c 128,-1,64
 926 152 926 152 926 55 c 0,65,66
 926 -91 926 -91 807 -182.5 c 128,-1,67
 688 -274 688 -274 497 -274 c 0,14,15
EndSplineSet
EndChar

StartChar: dieresis
Encoding: 168 168 106
Width: 1008
GlyphClass: 2
Flags: W
LayerCount: 2
Fore
SplineSet
299 1259 m 128,-1,1
 246 1259 246 1259 209 1295.5 c 128,-1,2
 172 1332 172 1332 172 1383 c 0,3,4
 172 1435 172 1435 209 1471.5 c 128,-1,5
 246 1508 246 1508 299 1508 c 128,-1,6
 352 1508 352 1508 389 1471.5 c 128,-1,7
 426 1435 426 1435 426 1383 c 0,8,9
 426 1332 426 1332 389 1295.5 c 128,-1,0
 352 1259 352 1259 299 1259 c 128,-1,1
709 1259 m 128,-1,11
 656 1259 656 1259 619 1295.5 c 128,-1,12
 582 1332 582 1332 582 1383 c 0,13,14
 582 1435 582 1435 619 1471.5 c 128,-1,15
 656 1508 656 1508 709 1508 c 128,-1,16
 762 1508 762 1508 798.5 1471.5 c 128,-1,17
 835 1435 835 1435 835 1383 c 0,18,19
 835 1332 835 1332 798.5 1295.5 c 128,-1,10
 762 1259 762 1259 709 1259 c 128,-1,11
EndSplineSet
EndChar

StartChar: copyright
Encoding: 169 169 107
Width: 1700
GlyphClass: 2
Flags: W
LayerCount: 2
Fore
SplineSet
850 -150 m 0,0,1
 688 -150 688 -150 541.5 -88.5 c 128,-1,2
 395 -27 395 -27 289.5 78 c 128,-1,3
 184 183 184 183 122 330 c 128,-1,4
 60 477 60 477 60 641 c 0,5,6
 60 806 60 806 122 953 c 128,-1,7
 184 1100 184 1100 289.5 1205 c 128,-1,8
 395 1310 395 1310 541.5 1371 c 128,-1,9
 688 1432 688 1432 850 1432 c 0,10,11
 981 1432 981 1432 1101.5 1393 c 128,-1,12
 1222 1354 1222 1354 1319 1282 c 128,-1,13
 1416 1210 1416 1210 1488.5 1113 c 128,-1,14
 1561 1016 1561 1016 1600.5 894.5 c 128,-1,15
 1640 773 1640 773 1640 641 c 0,16,17
 1640 477 1640 477 1578.5 330 c 128,-1,18
 1517 183 1517 183 1411.5 78 c 128,-1,19
 1306 -27 1306 -27 1159.5 -88.5 c 128,-1,20
 1013 -150 1013 -150 850 -150 c 0,0,1
850 5 m 0,21,22
 981 5 981 5 1098.5 54.5 c 128,-1,23
 1216 104 1216 104 1301 188 c 128,-1,24
 1386 272 1386 272 1435.5 390.5 c 128,-1,25
 1485 509 1485 509 1485 641 c 0,26,27
 1485 774 1485 774 1435.5 892.5 c 128,-1,28
 1386 1011 1386 1011 1301 1095 c 128,-1,29
 1216 1179 1216 1179 1098.5 1228 c 128,-1,30
 981 1277 981 1277 850 1277 c 0,31,32
 676 1277 676 1277 530.5 1194 c 128,-1,33
 385 1111 385 1111 300.5 964.5 c 128,-1,34
 216 818 216 818 216 641 c 0,35,36
 216 465 216 465 300.5 318.5 c 128,-1,37
 385 172 385 172 530.5 88.5 c 128,-1,38
 676 5 676 5 850 5 c 0,21,22
1221 763 m 1,39,-1
 1051 763 l 1,40,41
 1038 824 1038 824 989.5 862.5 c 128,-1,42
 941 901 941 901 867 901 c 0,43,44
 771 901 771 901 715 832.5 c 128,-1,45
 659 764 659 764 659 643 c 0,46,47
 659 520 659 520 715.5 450.5 c 128,-1,48
 772 381 772 381 867 381 c 0,49,50
 940 381 940 381 988.5 415.5 c 128,-1,51
 1037 450 1037 450 1051 514 c 1,52,-1
 1221 514 l 1,53,54
 1206 387 1206 387 1111.5 310.5 c 128,-1,55
 1017 234 1017 234 867 234 c 0,56,57
 689 234 689 234 584 344 c 128,-1,58
 479 454 479 454 479 643 c 0,59,60
 479 829 479 829 584 938.5 c 128,-1,61
 689 1048 689 1048 866 1048 c 0,62,63
 1015 1048 1015 1048 1110.5 968.5 c 128,-1,64
 1206 889 1206 889 1221 763 c 1,39,-1
EndSplineSet
EndChar

StartChar: ordfeminine
Encoding: 170 170 108
Width: 935
GlyphClass: 2
Flags: W
LayerCount: 2
Fore
SplineSet
311 845 m 0,0,1
 311 793 311 793 348 762.5 c 128,-1,2
 385 732 385 732 449 732 c 0,3,4
 526 732 526 732 577 778.5 c 128,-1,5
 628 825 628 825 628 896 c 2,6,-1
 628 969 l 1,7,-1
 456 957 l 2,8,9
 311 946 311 946 311 845 c 0,0,1
369 569 m 0,10,11
 244 569 244 569 168 641.5 c 128,-1,12
 92 714 92 714 92 833 c 0,13,14
 92 949 92 949 177 1016 c 128,-1,15
 262 1083 262 1083 424 1093 c 2,16,-1
 626 1105 l 1,17,-1
 626 1175 l 2,18,19
 627 1229 627 1229 588 1259.5 c 128,-1,20
 549 1290 549 1290 480 1290 c 0,21,22
 419 1290 419 1290 381.5 1268 c 128,-1,23
 344 1246 344 1246 335 1205 c 1,24,-1
 124 1205 l 1,25,26
 133 1324 133 1324 230.5 1393.5 c 128,-1,27
 328 1463 328 1463 487 1463 c 0,28,29
 653 1463 653 1463 748 1384.5 c 128,-1,30
 843 1306 843 1306 843 1170 c 2,31,-1
 843 587 l 1,32,-1
 632 587 l 1,33,-1
 632 694 l 1,34,-1
 618 694 l 1,35,36
 581 635 581 635 515.5 602 c 128,-1,37
 450 569 450 569 369 569 c 0,10,11
EndSplineSet
EndChar

StartChar: guillemotleft
Encoding: 171 171 109
Width: 1337
GlyphClass: 2
Flags: W
LayerCount: 2
Fore
SplineSet
867 572 m 1,0,-1
 867 560 l 1,1,-1
 1215 148 l 1,2,-1
 966 148 l 1,3,-1
 620 561 l 1,4,-1
 620 569 l 1,5,-1
 969 982 l 1,6,-1
 1215 982 l 1,7,-1
 867 572 l 1,0,-1
368 572 m 1,8,-1
 368 560 l 1,9,-1
 716 148 l 1,10,-1
 467 148 l 1,11,-1
 121 561 l 1,12,-1
 121 569 l 1,13,-1
 470 982 l 1,14,-1
 716 982 l 1,15,-1
 368 572 l 1,8,-1
EndSplineSet
EndChar

StartChar: logicalnot
Encoding: 172 172 110
Width: 1294
GlyphClass: 2
Flags: W
LayerCount: 2
Fore
SplineSet
1152 688 m 1,0,-1
 1152 88 l 1,1,-1
 935 88 l 1,2,-1
 935 477 l 1,3,-1
 143 477 l 1,4,-1
 143 688 l 1,5,-1
 1152 688 l 1,0,-1
EndSplineSet
Substitution2: "'case' Case-Sensitive Forms in Latin lookup 4 subtable" logicalnot.uc
EndChar

StartChar: registered
Encoding: 174 174 111
Width: 1110
GlyphClass: 2
Flags: W
LayerCount: 2
Fore
SplineSet
555 587 m 0,0,1
 428 587 428 587 320 648.5 c 128,-1,2
 212 710 212 710 149.5 817 c 128,-1,3
 87 924 87 924 87 1050 c 0,4,5
 87 1242 87 1242 223.5 1377 c 128,-1,6
 360 1512 360 1512 555 1512 c 0,7,8
 683 1512 683 1512 790.5 1450.5 c 128,-1,9
 898 1389 898 1389 960.5 1282.5 c 128,-1,10
 1023 1176 1023 1176 1023 1050 c 0,11,12
 1023 857 1023 857 886.5 722 c 128,-1,13
 750 587 750 587 555 587 c 0,0,1
555 702 m 128,-1,15
 700 702 700 702 801.5 803 c 128,-1,16
 903 904 903 904 903 1050 c 128,-1,17
 903 1196 903 1196 801.5 1297 c 128,-1,18
 700 1398 700 1398 555 1398 c 128,-1,19
 410 1398 410 1398 308.5 1297 c 128,-1,20
 207 1196 207 1196 207 1050 c 128,-1,21
 207 904 207 904 308.5 803 c 128,-1,14
 410 702 410 702 555 702 c 128,-1,15
476 846 m 1,22,-1
 369 846 l 1,23,-1
 369 1276 l 1,24,-1
 589 1276 l 2,25,26
 659 1276 659 1276 703 1238 c 128,-1,27
 747 1200 747 1200 747 1140 c 0,28,29
 747 1091 747 1091 721.5 1056.5 c 128,-1,30
 696 1022 696 1022 652 1012 c 1,31,-1
 768 846 l 1,32,-1
 638 846 l 1,33,-1
 541 996 l 1,34,-1
 476 996 l 1,35,-1
 476 846 l 1,22,-1
476 1190 m 1,36,-1
 476 1076 l 1,37,-1
 566 1076 l 2,38,39
 598 1076 598 1076 615.5 1091 c 128,-1,40
 633 1106 633 1106 633 1134 c 0,41,42
 633 1190 633 1190 568 1190 c 2,43,-1
 476 1190 l 1,36,-1
EndSplineSet
EndChar

StartChar: macron
Encoding: 175 175 112
Width: 1000
GlyphClass: 2
Flags: W
LayerCount: 2
Fore
SplineSet
828 1436 m 1,0,-1
 828 1306 l 1,1,-1
 172 1306 l 1,2,-1
 172 1436 l 1,3,-1
 828 1436 l 1,0,-1
EndSplineSet
EndChar

StartChar: degree
Encoding: 176 176 113
Width: 724
GlyphClass: 2
Flags: W
LayerCount: 2
Fore
SplineSet
362 832 m 128,-1,1
 238 832 238 832 152 918 c 128,-1,2
 66 1004 66 1004 66 1128 c 128,-1,3
 66 1252 66 1252 151.5 1337.5 c 128,-1,4
 237 1423 237 1423 362 1423 c 0,5,6
 486 1423 486 1423 571.5 1337.5 c 128,-1,7
 657 1252 657 1252 657 1128 c 128,-1,8
 657 1004 657 1004 571.5 918 c 128,-1,0
 486 832 486 832 362 832 c 128,-1,1
362 985 m 0,9,10
 422 985 422 985 463 1027 c 128,-1,11
 504 1069 504 1069 504 1128 c 128,-1,12
 504 1187 504 1187 462.5 1228.5 c 128,-1,13
 421 1270 421 1270 362 1270 c 0,14,15
 304 1270 304 1270 262 1228.5 c 128,-1,16
 220 1187 220 1187 220 1128 c 0,17,18
 220 1070 220 1070 262.5 1027.5 c 128,-1,19
 305 985 305 985 362 985 c 0,9,10
EndSplineSet
EndChar

StartChar: plusminus
Encoding: 177 177 114
Width: 1294
GlyphClass: 2
Flags: W
LayerCount: 2
Fore
SplineSet
1148 88 m 1,0,-1
 145 88 l 1,1,-1
 145 281 l 1,2,-1
 1148 281 l 1,3,-1
 1148 88 l 1,0,-1
753 655 m 1,4,-1
 753 397 l 1,5,-1
 541 397 l 1,6,-1
 541 655 l 1,7,-1
 145 655 l 1,8,-1
 145 842 l 1,9,-1
 541 842 l 1,10,-1
 541 1100 l 1,11,-1
 753 1100 l 1,12,-1
 753 842 l 1,13,-1
 1150 842 l 1,14,-1
 1150 655 l 1,15,-1
 753 655 l 1,4,-1
EndSplineSet
Substitution2: "'case' Case-Sensitive Forms in Latin lookup 4 subtable" plusminus.uc
EndChar

StartChar: two.sups
Encoding: 178 178 115
Width: 649
GlyphClass: 2
Flags: W
LayerCount: 2
Fore
SplineSet
36 1584 m 2,0,1
 36 1691 36 1691 114 1756 c 128,-1,2
 192 1821 192 1821 321 1821 c 0,3,4
 443 1821 443 1821 518.5 1763.5 c 128,-1,5
 594 1706 594 1706 594 1613 c 0,6,7
 594 1558 594 1558 566 1510.5 c 128,-1,8
 538 1463 538 1463 467 1400 c 2,9,-1
 314 1265 l 1,10,-1
 314 1261 l 1,11,-1
 602 1261 l 1,12,-1
 602 1106 l 1,13,-1
 48 1106 l 1,14,-1
 48 1243 l 1,15,-1
 328 1490 l 2,16,17
 395 1553 395 1553 395 1598 c 0,18,19
 395 1630 395 1630 371.5 1650 c 128,-1,20
 348 1670 348 1670 311 1670 c 128,-1,21
 274 1670 274 1670 249 1645.5 c 128,-1,22
 224 1621 224 1621 224 1584 c 2,23,-1
 224 1579 l 1,24,-1
 36 1579 l 1,25,-1
 36 1584 l 2,0,1
EndSplineSet
EndChar

StartChar: three.sups
Encoding: 179 179 116
Width: 676
GlyphClass: 2
Flags: W
LayerCount: 2
Fore
SplineSet
246 1394 m 1,0,-1
 246 1529 l 1,1,-1
 331 1529 l 2,2,3
 370 1529 370 1529 393.5 1549 c 128,-1,4
 417 1569 417 1569 417 1601 c 128,-1,5
 417 1633 417 1633 393.5 1652 c 128,-1,6
 370 1671 370 1671 329 1671 c 0,7,8
 289 1671 289 1671 264 1648.5 c 128,-1,9
 239 1626 239 1626 237 1589 c 1,10,-1
 53 1589 l 1,11,12
 53 1695 53 1695 130 1758 c 128,-1,13
 207 1821 207 1821 335 1821 c 0,14,15
 458 1821 458 1821 532.5 1768.5 c 128,-1,16
 607 1716 607 1716 607 1630 c 0,17,18
 607 1569 607 1569 567 1525 c 128,-1,19
 527 1481 527 1481 462 1470 c 1,20,-1
 462 1465 l 1,21,22
 541 1457 541 1457 586.5 1412.5 c 128,-1,23
 632 1368 632 1368 632 1300 c 0,24,25
 632 1203 632 1203 550 1145 c 128,-1,26
 468 1087 468 1087 331 1087 c 0,27,28
 203 1087 203 1087 123.5 1151 c 128,-1,29
 44 1215 44 1215 40 1321 c 1,30,-1
 235 1321 l 1,31,32
 237 1286 237 1286 263 1266 c 128,-1,33
 289 1246 289 1246 332 1246 c 0,34,35
 373 1246 373 1246 399 1266.5 c 128,-1,36
 425 1287 425 1287 425 1319 c 0,37,38
 425 1354 425 1354 399.5 1374 c 128,-1,39
 374 1394 374 1394 330 1394 c 2,40,-1
 246 1394 l 1,0,-1
EndSplineSet
EndChar

StartChar: acute
Encoding: 180 180 117
Width: 1008
GlyphClass: 2
Flags: W
LayerCount: 2
Fore
SplineSet
474 1258 m 1,0,-1
 273 1258 l 1,1,-1
 491 1565 l 1,2,-1
 736 1565 l 1,3,-1
 474 1258 l 1,0,-1
EndSplineSet
EndChar

StartChar: paragraph
Encoding: 182 182 118
Width: 1374
GlyphClass: 2
Flags: W
LayerCount: 2
Fore
SplineSet
863 -242 m 1,0,-1
 619 -242 l 1,1,-1
 619 499 l 1,2,-1
 599 499 l 2,3,4
 383 499 383 499 238.5 633 c 128,-1,5
 94 767 94 767 94 966 c 0,6,7
 94 1173 94 1173 237 1308 c 128,-1,8
 380 1443 380 1443 600 1443 c 2,9,-1
 863 1443 l 1,10,-1
 863 -242 l 1,0,-1
1024 -242 m 1,11,-1
 1024 1443 l 1,12,-1
 1267 1443 l 1,13,-1
 1267 -242 l 1,14,-1
 1024 -242 l 1,11,-1
EndSplineSet
EndChar

StartChar: periodcentered
Encoding: 183 183 119
Width: 591
GlyphClass: 2
Flags: W
LayerCount: 2
Fore
SplineSet
296 477 m 0,0,1
 235 477 235 477 193.5 518.5 c 128,-1,2
 152 560 152 560 152 621 c 128,-1,3
 152 682 152 682 193.5 723.5 c 128,-1,4
 235 765 235 765 296 765 c 0,5,6
 356 765 356 765 397.5 723.5 c 128,-1,7
 439 682 439 682 439 621 c 128,-1,8
 439 560 439 560 397.5 518.5 c 128,-1,9
 356 477 356 477 296 477 c 0,0,1
EndSplineSet
EndChar

StartChar: cedilla
Encoding: 184 184 120
Width: 1008
GlyphClass: 2
Flags: W
LayerCount: 2
Fore
SplineSet
368 -228 m 1,0,-1
 368 -138 l 1,1,-1
 431 11 l 1,2,-1
 562 0 l 1,3,-1
 512 -125 l 1,4,5
 606 -125 606 -125 656 -165.5 c 128,-1,6
 706 -206 706 -206 706 -281 c 0,7,8
 706 -364 706 -364 643 -413.5 c 128,-1,9
 580 -463 580 -463 473 -464 c 0,10,11
 386 -464 386 -464 331 -447 c 1,12,-1
 331 -336 l 1,13,14
 368 -350 368 -350 446 -350 c 0,15,16
 557 -350 557 -350 557 -288 c 0,17,18
 557 -256 557 -256 526 -242 c 128,-1,19
 495 -228 495 -228 423 -228 c 2,20,-1
 368 -228 l 1,0,-1
EndSplineSet
EndChar

StartChar: one.sups
Encoding: 185 185 121
Width: 531
GlyphClass: 2
Flags: W
LayerCount: 2
Fore
SplineSet
238 1106 m 1,0,-1
 238 1629 l 1,1,-1
 234 1629 l 1,2,-1
 60 1514 l 1,3,-1
 60 1686 l 1,4,-1
 235 1802 l 1,5,-1
 438 1802 l 1,6,-1
 438 1106 l 1,7,-1
 238 1106 l 1,0,-1
EndSplineSet
EndChar

StartChar: ordmasculine
Encoding: 186 186 122
Width: 1006
GlyphClass: 2
Flags: W
LayerCount: 2
Fore
SplineSet
312 1010 m 0,0,1
 312 880 312 880 362 809 c 128,-1,2
 412 738 412 738 503 738 c 128,-1,3
 594 738 594 738 644 809 c 128,-1,4
 694 880 694 880 694 1011 c 0,5,6
 694 1140 694 1140 644 1211 c 128,-1,7
 594 1282 594 1282 503 1282 c 128,-1,8
 412 1282 412 1282 362 1210.5 c 128,-1,9
 312 1139 312 1139 312 1010 c 0,0,1
503 560 m 128,-1,11
 306 560 306 560 194.5 680 c 128,-1,12
 83 800 83 800 83 1010 c 0,13,14
 83 1219 83 1219 195.5 1340 c 128,-1,15
 308 1461 308 1461 503 1461 c 0,16,17
 699 1461 699 1461 811 1340.5 c 128,-1,18
 923 1220 923 1220 923 1011 c 0,19,20
 923 799 923 799 811.5 679.5 c 128,-1,10
 700 560 700 560 503 560 c 128,-1,11
EndSplineSet
EndChar

StartChar: guillemotright
Encoding: 187 187 123
Width: 1336
GlyphClass: 2
Flags: W
LayerCount: 2
Fore
SplineSet
469 572 m 1,0,-1
 121 982 l 1,1,-1
 367 982 l 1,2,-1
 716 569 l 1,3,-1
 716 561 l 1,4,-1
 370 148 l 1,5,-1
 121 148 l 1,6,-1
 469 560 l 1,7,-1
 469 572 l 1,0,-1
968 572 m 1,8,-1
 620 982 l 1,9,-1
 866 982 l 1,10,-1
 1215 569 l 1,11,-1
 1215 561 l 1,12,-1
 869 148 l 1,13,-1
 620 148 l 1,14,-1
 968 560 l 1,15,-1
 968 572 l 1,8,-1
EndSplineSet
EndChar

StartChar: onequarter
Encoding: 188 188 124
Width: 1565
GlyphClass: 2
Flags: W
LayerCount: 2
Fore
SplineSet
1253 0 m 1,0,-1
 1253 103 l 1,1,-1
 911 103 l 1,2,-1
 911 273 l 1,3,4
 997 442 997 442 1163 696 c 1,5,-1
 1447 696 l 1,6,-1
 1447 260 l 1,7,-1
 1530 260 l 1,8,-1
 1530 103 l 1,9,-1
 1447 103 l 1,10,-1
 1447 0 l 1,11,-1
 1253 0 l 1,0,-1
1081 256 m 1,12,-1
 1081 252 l 1,13,-1
 1259 252 l 1,14,-1
 1259 561 l 1,15,-1
 1255 561 l 1,16,17
 1136 365 1136 365 1081 256 c 1,12,-1
248 748 m 1,18,-1
 248 1271 l 1,19,-1
 244 1271 l 1,20,-1
 70 1156 l 1,21,-1
 70 1328 l 1,22,-1
 245 1444 l 1,23,-1
 448 1444 l 1,24,-1
 448 748 l 1,25,-1
 248 748 l 1,18,-1
332 0 m 1,26,-1
 106 0 l 1,27,-1
 1160 1443 l 1,28,-1
 1385 1443 l 1,29,-1
 332 0 l 1,26,-1
EndSplineSet
EndChar

StartChar: onehalf
Encoding: 189 189 125
Width: 1564
GlyphClass: 2
Flags: W
LayerCount: 2
Fore
SplineSet
963 478 m 2,0,1
 963 585 963 585 1041 650 c 128,-1,2
 1119 715 1119 715 1248 715 c 0,3,4
 1370 715 1370 715 1445.5 657.5 c 128,-1,5
 1521 600 1521 600 1521 507 c 0,6,7
 1521 452 1521 452 1493 404.5 c 128,-1,8
 1465 357 1465 357 1394 294 c 2,9,-1
 1241 159 l 1,10,-1
 1241 155 l 1,11,-1
 1529 155 l 1,12,-1
 1529 0 l 1,13,-1
 975 0 l 1,14,-1
 975 137 l 1,15,-1
 1255 384 l 2,16,17
 1322 447 1322 447 1322 492 c 0,18,19
 1322 524 1322 524 1298.5 544 c 128,-1,20
 1275 564 1275 564 1238 564 c 128,-1,21
 1201 564 1201 564 1176 539.5 c 128,-1,22
 1151 515 1151 515 1151 478 c 2,23,-1
 1151 473 l 1,24,-1
 963 473 l 1,25,-1
 963 478 l 2,0,1
248 748 m 1,26,-1
 248 1271 l 1,27,-1
 244 1271 l 1,28,-1
 70 1156 l 1,29,-1
 70 1328 l 1,30,-1
 245 1444 l 1,31,-1
 448 1444 l 1,32,-1
 448 748 l 1,33,-1
 248 748 l 1,26,-1
332 0 m 1,34,-1
 106 0 l 1,35,-1
 1160 1443 l 1,36,-1
 1385 1443 l 1,37,-1
 332 0 l 1,34,-1
EndSplineSet
EndChar

StartChar: threequarters
Encoding: 190 190 126
Width: 1663
GlyphClass: 2
Flags: W
LayerCount: 2
Fore
SplineSet
246 1036 m 1,0,-1
 246 1171 l 1,1,-1
 331 1171 l 2,2,3
 370 1171 370 1171 393.5 1191 c 128,-1,4
 417 1211 417 1211 417 1243 c 128,-1,5
 417 1275 417 1275 393.5 1294 c 128,-1,6
 370 1313 370 1313 329 1313 c 0,7,8
 289 1313 289 1313 264 1290.5 c 128,-1,9
 239 1268 239 1268 237 1231 c 1,10,-1
 53 1231 l 1,11,12
 53 1337 53 1337 130 1400 c 128,-1,13
 207 1463 207 1463 335 1463 c 0,14,15
 458 1463 458 1463 532.5 1410.5 c 128,-1,16
 607 1358 607 1358 607 1272 c 0,17,18
 607 1211 607 1211 567 1167 c 128,-1,19
 527 1123 527 1123 462 1112 c 1,20,-1
 462 1107 l 1,21,22
 541 1099 541 1099 586.5 1054.5 c 128,-1,23
 632 1010 632 1010 632 942 c 0,24,25
 632 845 632 845 550 787 c 128,-1,26
 468 729 468 729 331 729 c 0,27,28
 203 729 203 729 123.5 793 c 128,-1,29
 44 857 44 857 40 963 c 1,30,-1
 235 963 l 1,31,32
 237 928 237 928 263 908 c 128,-1,33
 289 888 289 888 332 888 c 0,34,35
 373 888 373 888 399 908.5 c 128,-1,36
 425 929 425 929 425 961 c 0,37,38
 425 996 425 996 399.5 1016 c 128,-1,39
 374 1036 374 1036 330 1036 c 2,40,-1
 246 1036 l 1,0,-1
1350 0 m 1,41,-1
 1350 103 l 1,42,-1
 1008 103 l 1,43,-1
 1008 273 l 1,44,45
 1094 442 1094 442 1260 696 c 1,46,-1
 1544 696 l 1,47,-1
 1544 260 l 1,48,-1
 1627 260 l 1,49,-1
 1627 103 l 1,50,-1
 1544 103 l 1,51,-1
 1544 0 l 1,52,-1
 1350 0 l 1,41,-1
1178 256 m 1,53,-1
 1178 252 l 1,54,-1
 1356 252 l 1,55,-1
 1356 561 l 1,56,-1
 1352 561 l 1,57,58
 1233 365 1233 365 1178 256 c 1,53,-1
439 0 m 1,59,-1
 213 0 l 1,60,-1
 1267 1443 l 1,61,-1
 1492 1443 l 1,62,-1
 439 0 l 1,59,-1
EndSplineSet
EndChar

StartChar: questiondown
Encoding: 191 191 127
Width: 1060
GlyphClass: 2
Flags: W
LayerCount: 2
Fore
SplineSet
1006 63 m 1,0,1
 1001 -119 1001 -119 878 -232 c 128,-1,2
 755 -345 755 -345 539 -345 c 0,3,4
 334 -345 334 -345 207.5 -239 c 128,-1,5
 81 -133 81 -133 81 34 c 0,6,7
 81 247 81 247 293 374 c 0,8,9
 391 431 391 431 425.5 479 c 128,-1,10
 460 527 460 527 460 602 c 2,11,-1
 460 660 l 1,12,-1
 692 660 l 1,13,-1
 693 590 l 1,14,15
 700 480 700 480 656 406.5 c 128,-1,16
 612 333 612 333 507 270 c 0,17,18
 413 213 413 213 377 164.5 c 128,-1,19
 341 116 341 116 341 43 c 0,20,21
 341 -38 341 -38 399 -89 c 128,-1,22
 457 -140 457 -140 552 -140 c 128,-1,23
 647 -140 647 -140 706 -85.5 c 128,-1,24
 765 -31 765 -31 771 63 c 1,25,-1
 1006 63 l 1,0,1
565 852 m 0,26,27
 505 852 505 852 462.5 893 c 128,-1,28
 420 934 420 934 420 993 c 0,29,30
 420 1053 420 1053 462.5 1093.5 c 128,-1,31
 505 1134 505 1134 565 1134 c 0,32,33
 627 1134 627 1134 669 1093.5 c 128,-1,34
 711 1053 711 1053 711 993 c 0,35,36
 711 934 711 934 668.5 893 c 128,-1,37
 626 852 626 852 565 852 c 0,26,27
EndSplineSet
EndChar

StartChar: Agrave
Encoding: 192 192 128
Width: 1369
GlyphClass: 2
Flags: W
LayerCount: 2
Fore
SplineSet
1070 0 m 1,0,-1
 947 373 l 1,1,-1
 416 373 l 1,2,-1
 293 0 l 1,3,-1
 27 0 l 1,4,-1
 539 1443 l 1,5,-1
 830 1443 l 1,6,-1
 1342 0 l 1,7,-1
 1070 0 l 1,0,-1
678 1188 m 1,8,-1
 476 572 l 1,9,-1
 886 572 l 1,10,-1
 685 1188 l 1,11,-1
 678 1188 l 1,8,-1
587 1555 m 1,12,-1
 308 1861 l 1,13,-1
 554 1861 l 1,14,-1
 785 1555 l 1,15,-1
 587 1555 l 1,12,-1
EndSplineSet
EndChar

StartChar: Aacute
Encoding: 193 193 129
Width: 1369
GlyphClass: 2
Flags: W
LayerCount: 2
Fore
SplineSet
1070 0 m 1,0,-1
 947 373 l 1,1,-1
 416 373 l 1,2,-1
 293 0 l 1,3,-1
 27 0 l 1,4,-1
 539 1443 l 1,5,-1
 830 1443 l 1,6,-1
 1342 0 l 1,7,-1
 1070 0 l 1,0,-1
678 1188 m 1,8,-1
 476 572 l 1,9,-1
 886 572 l 1,10,-1
 685 1188 l 1,11,-1
 678 1188 l 1,8,-1
781 1552 m 1,12,-1
 583 1552 l 1,13,-1
 814 1858 l 1,14,-1
 1060 1858 l 1,15,-1
 781 1552 l 1,12,-1
EndSplineSet
EndChar

StartChar: Acircumflex
Encoding: 194 194 130
Width: 1369
GlyphClass: 2
Flags: W
LayerCount: 2
Fore
SplineSet
1070 0 m 1,0,-1
 947 373 l 1,1,-1
 416 373 l 1,2,-1
 293 0 l 1,3,-1
 27 0 l 1,4,-1
 539 1443 l 1,5,-1
 830 1443 l 1,6,-1
 1342 0 l 1,7,-1
 1070 0 l 1,0,-1
678 1188 m 1,8,-1
 476 572 l 1,9,-1
 886 572 l 1,10,-1
 685 1188 l 1,11,-1
 678 1188 l 1,8,-1
586 1856 m 1,12,-1
 782 1856 l 1,13,-1
 1063 1546 l 1,14,-1
 860 1546 l 1,15,-1
 686 1744 l 1,16,-1
 682 1744 l 1,17,-1
 508 1546 l 1,18,-1
 305 1546 l 1,19,-1
 586 1856 l 1,12,-1
EndSplineSet
EndChar

StartChar: Atilde
Encoding: 195 195 131
Width: 1369
GlyphClass: 2
Flags: W
LayerCount: 2
Fore
SplineSet
1070 0 m 1,0,-1
 947 373 l 1,1,-1
 416 373 l 1,2,-1
 293 0 l 1,3,-1
 27 0 l 1,4,-1
 539 1443 l 1,5,-1
 830 1443 l 1,6,-1
 1342 0 l 1,7,-1
 1070 0 l 1,0,-1
678 1188 m 1,8,-1
 476 572 l 1,9,-1
 886 572 l 1,10,-1
 685 1188 l 1,11,-1
 678 1188 l 1,8,-1
819 1538 m 0,12,13
 782 1538 782 1538 749 1552.5 c 128,-1,14
 716 1567 716 1567 692.5 1588 c 128,-1,15
 669 1609 669 1609 648.5 1630 c 128,-1,16
 628 1651 628 1651 606.5 1665.5 c 128,-1,17
 585 1680 585 1680 564 1680 c 0,18,19
 532 1680 532 1680 514 1646.5 c 128,-1,20
 496 1613 496 1613 495 1554 c 1,21,-1
 354 1554 l 1,22,23
 354 1677 354 1677 409 1747.5 c 128,-1,24
 464 1818 464 1818 555 1818 c 0,25,26
 594 1818 594 1818 628 1803.5 c 128,-1,27
 662 1789 662 1789 686 1768 c 128,-1,28
 710 1747 710 1747 731 1726 c 128,-1,29
 752 1705 752 1705 773 1690.5 c 128,-1,30
 794 1676 794 1676 813 1676 c 0,31,32
 876 1676 876 1676 878 1804 c 1,33,-1
 1019 1804 l 1,34,35
 1019 1683 1019 1683 963 1610.5 c 128,-1,36
 907 1538 907 1538 819 1538 c 0,12,13
EndSplineSet
EndChar

StartChar: Adieresis
Encoding: 196 196 132
Width: 1369
GlyphClass: 2
Flags: W
LayerCount: 2
Fore
SplineSet
1070 0 m 1,0,-1
 947 373 l 1,1,-1
 416 373 l 1,2,-1
 293 0 l 1,3,-1
 27 0 l 1,4,-1
 539 1443 l 1,5,-1
 830 1443 l 1,6,-1
 1342 0 l 1,7,-1
 1070 0 l 1,0,-1
678 1188 m 1,8,-1
 476 572 l 1,9,-1
 886 572 l 1,10,-1
 685 1188 l 1,11,-1
 678 1188 l 1,8,-1
479 1569 m 128,-1,13
 426 1569 426 1569 389 1605.5 c 128,-1,14
 352 1642 352 1642 352 1693 c 0,15,16
 352 1745 352 1745 389 1781.5 c 128,-1,17
 426 1818 426 1818 479 1818 c 128,-1,18
 532 1818 532 1818 569 1781.5 c 128,-1,19
 606 1745 606 1745 606 1693 c 0,20,21
 606 1642 606 1642 569 1605.5 c 128,-1,12
 532 1569 532 1569 479 1569 c 128,-1,13
889 1569 m 128,-1,23
 836 1569 836 1569 799 1605.5 c 128,-1,24
 762 1642 762 1642 762 1693 c 0,25,26
 762 1745 762 1745 799 1781.5 c 128,-1,27
 836 1818 836 1818 889 1818 c 128,-1,28
 942 1818 942 1818 978.5 1781.5 c 128,-1,29
 1015 1745 1015 1745 1015 1693 c 0,30,31
 1015 1642 1015 1642 978.5 1605.5 c 128,-1,22
 942 1569 942 1569 889 1569 c 128,-1,23
EndSplineSet
EndChar

StartChar: Aring
Encoding: 197 197 133
Width: 1369
GlyphClass: 2
Flags: W
LayerCount: 2
Fore
SplineSet
1070 0 m 1,0,-1
 947 373 l 1,1,-1
 416 373 l 1,2,-1
 293 0 l 1,3,-1
 27 0 l 1,4,-1
 539 1443 l 1,5,-1
 830 1443 l 1,6,-1
 1342 0 l 1,7,-1
 1070 0 l 1,0,-1
678 1188 m 1,8,-1
 476 572 l 1,9,-1
 886 572 l 1,10,-1
 685 1188 l 1,11,-1
 678 1188 l 1,8,-1
684 1511 m 128,-1,13
 597 1511 597 1511 534 1573 c 128,-1,14
 471 1635 471 1635 471 1721 c 0,15,16
 471 1808 471 1808 534 1870 c 128,-1,17
 597 1932 597 1932 684 1932 c 128,-1,18
 771 1932 771 1932 834 1870 c 128,-1,19
 897 1808 897 1808 897 1721 c 0,20,21
 897 1635 897 1635 834 1573 c 128,-1,12
 771 1511 771 1511 684 1511 c 128,-1,13
684 1615 m 128,-1,23
 728 1615 728 1615 759.5 1646 c 128,-1,24
 791 1677 791 1677 791 1721 c 128,-1,25
 791 1765 791 1765 759.5 1796 c 128,-1,26
 728 1827 728 1827 684 1827 c 128,-1,27
 640 1827 640 1827 608.5 1796 c 128,-1,28
 577 1765 577 1765 577 1721 c 128,-1,29
 577 1677 577 1677 608.5 1646 c 128,-1,22
 640 1615 640 1615 684 1615 c 128,-1,23
EndSplineSet
EndChar

StartChar: AE
Encoding: 198 198 134
Width: 2015
GlyphClass: 2
Flags: W
LayerCount: 2
Fore
SplineSet
820 1240 m 1,0,-1
 540 604 l 1,1,-1
 965 604 l 1,2,-1
 965 1240 l 1,3,-1
 820 1240 l 1,0,-1
965 0 m 1,4,-1
 965 404 l 1,5,-1
 458 404 l 1,6,-1
 278 0 l 1,7,-1
 19 0 l 1,8,-1
 660 1443 l 1,9,-1
 1883 1443 l 1,10,-1
 1883 1226 l 1,11,-1
 1206 1226 l 1,12,-1
 1206 829 l 1,13,-1
 1846 829 l 1,14,-1
 1846 623 l 1,15,-1
 1206 623 l 1,16,-1
 1206 217 l 1,17,-1
 1883 217 l 1,18,-1
 1883 0 l 1,19,-1
 965 0 l 1,4,-1
EndSplineSet
EndChar

StartChar: Ccedilla
Encoding: 199 199 135
Width: 1439
GlyphClass: 2
Flags: W
LayerCount: 2
Fore
SplineSet
1371 948 m 1,0,-1
 1117 948 l 1,1,2
 1092 1084 1092 1084 990.5 1166 c 128,-1,3
 889 1248 889 1248 749 1248 c 0,4,5
 563 1248 563 1248 452.5 1105.5 c 128,-1,6
 342 963 342 963 342 722 c 0,7,8
 342 479 342 479 452 337 c 128,-1,9
 562 195 562 195 750 195 c 0,10,11
 893 195 893 195 990.5 268.5 c 128,-1,12
 1088 342 1088 342 1118 472 c 1,13,-1
 1371 472 l 1,14,15
 1340 256 1340 256 1192.5 125.5 c 128,-1,16
 1045 -5 1045 -5 815 -22 c 1,17,-1
 774 -125 l 1,18,19
 868 -125 868 -125 918 -165.5 c 128,-1,20
 968 -206 968 -206 968 -281 c 0,21,22
 968 -364 968 -364 905 -413.5 c 128,-1,23
 842 -463 842 -463 735 -464 c 0,24,25
 648 -464 648 -464 593 -447 c 1,26,-1
 593 -336 l 1,27,28
 630 -350 630 -350 708 -350 c 0,29,30
 819 -350 819 -350 819 -288 c 0,31,32
 819 -256 819 -256 788 -242 c 128,-1,33
 757 -228 757 -228 685 -228 c 2,34,-1
 630 -228 l 1,35,-1
 630 -138 l 1,36,-1
 679 -21 l 1,37,38
 400 2 400 2 239 199 c 128,-1,39
 78 396 78 396 78 722 c 0,40,41
 78 1066 78 1066 259.5 1266.5 c 128,-1,42
 441 1467 441 1467 749 1467 c 0,43,44
 1001 1467 1001 1467 1174 1323.5 c 128,-1,45
 1347 1180 1347 1180 1371 948 c 1,0,-1
EndSplineSet
EndChar

StartChar: Egrave
Encoding: 200 200 136
Width: 1158
GlyphClass: 2
Flags: W
LayerCount: 2
Fore
SplineSet
497 1555 m 1,0,-1
 218 1861 l 1,1,-1
 464 1861 l 1,2,-1
 695 1555 l 1,3,-1
 497 1555 l 1,0,-1
1061 218 m 1,4,-1
 1061 0 l 1,5,-1
 127 0 l 1,6,-1
 127 1443 l 1,7,-1
 1061 1443 l 1,8,-1
 1061 1225 l 1,9,-1
 385 1225 l 1,10,-1
 385 835 l 1,11,-1
 1024 835 l 1,12,-1
 1024 630 l 1,13,-1
 385 630 l 1,14,-1
 385 218 l 1,15,-1
 1061 218 l 1,4,-1
EndSplineSet
EndChar

StartChar: Eacute
Encoding: 201 201 137
Width: 1158
GlyphClass: 2
Flags: W
LayerCount: 2
Fore
SplineSet
691 1552 m 1,0,-1
 493 1552 l 1,1,-1
 724 1858 l 1,2,-1
 970 1858 l 1,3,-1
 691 1552 l 1,0,-1
1061 218 m 1,4,-1
 1061 0 l 1,5,-1
 127 0 l 1,6,-1
 127 1443 l 1,7,-1
 1061 1443 l 1,8,-1
 1061 1225 l 1,9,-1
 385 1225 l 1,10,-1
 385 835 l 1,11,-1
 1024 835 l 1,12,-1
 1024 630 l 1,13,-1
 385 630 l 1,14,-1
 385 218 l 1,15,-1
 1061 218 l 1,4,-1
EndSplineSet
EndChar

StartChar: Ecircumflex
Encoding: 202 202 138
Width: 1158
GlyphClass: 2
Flags: W
LayerCount: 2
Fore
SplineSet
496 1856 m 1,0,-1
 692 1856 l 1,1,-1
 973 1546 l 1,2,-1
 770 1546 l 1,3,-1
 596 1744 l 1,4,-1
 592 1744 l 1,5,-1
 418 1546 l 1,6,-1
 215 1546 l 1,7,-1
 496 1856 l 1,0,-1
1061 218 m 1,8,-1
 1061 0 l 1,9,-1
 127 0 l 1,10,-1
 127 1443 l 1,11,-1
 1061 1443 l 1,12,-1
 1061 1225 l 1,13,-1
 385 1225 l 1,14,-1
 385 835 l 1,15,-1
 1024 835 l 1,16,-1
 1024 630 l 1,17,-1
 385 630 l 1,18,-1
 385 218 l 1,19,-1
 1061 218 l 1,8,-1
EndSplineSet
EndChar

StartChar: Edieresis
Encoding: 203 203 139
Width: 1158
GlyphClass: 2
Flags: W
LayerCount: 2
Fore
SplineSet
389 1569 m 128,-1,1
 336 1569 336 1569 299 1605.5 c 128,-1,2
 262 1642 262 1642 262 1693 c 0,3,4
 262 1745 262 1745 299 1781.5 c 128,-1,5
 336 1818 336 1818 389 1818 c 128,-1,6
 442 1818 442 1818 479 1781.5 c 128,-1,7
 516 1745 516 1745 516 1693 c 0,8,9
 516 1642 516 1642 479 1605.5 c 128,-1,0
 442 1569 442 1569 389 1569 c 128,-1,1
799 1569 m 128,-1,11
 746 1569 746 1569 709 1605.5 c 128,-1,12
 672 1642 672 1642 672 1693 c 0,13,14
 672 1745 672 1745 709 1781.5 c 128,-1,15
 746 1818 746 1818 799 1818 c 128,-1,16
 852 1818 852 1818 888.5 1781.5 c 128,-1,17
 925 1745 925 1745 925 1693 c 0,18,19
 925 1642 925 1642 888.5 1605.5 c 128,-1,10
 852 1569 852 1569 799 1569 c 128,-1,11
1061 218 m 1,20,-1
 1061 0 l 1,21,-1
 127 0 l 1,22,-1
 127 1443 l 1,23,-1
 1061 1443 l 1,24,-1
 1061 1225 l 1,25,-1
 385 1225 l 1,26,-1
 385 835 l 1,27,-1
 1024 835 l 1,28,-1
 1024 630 l 1,29,-1
 385 630 l 1,30,-1
 385 218 l 1,31,-1
 1061 218 l 1,20,-1
EndSplineSet
EndChar

StartChar: Igrave
Encoding: 204 204 140
Width: 512
GlyphClass: 2
Flags: W
LayerCount: 2
Fore
SplineSet
385 0 m 1,0,-1
 127 0 l 1,1,-1
 127 1443 l 1,2,-1
 385 1443 l 1,3,-1
 385 0 l 1,0,-1
159 1555 m 1,4,-1
 -120 1861 l 1,5,-1
 126 1861 l 1,6,-1
 357 1555 l 1,7,-1
 159 1555 l 1,4,-1
EndSplineSet
EndChar

StartChar: Iacute
Encoding: 205 205 141
Width: 512
GlyphClass: 2
Flags: W
LayerCount: 2
Fore
SplineSet
385 0 m 1,0,-1
 127 0 l 1,1,-1
 127 1443 l 1,2,-1
 385 1443 l 1,3,-1
 385 0 l 1,0,-1
353 1552 m 1,4,-1
 155 1552 l 1,5,-1
 386 1858 l 1,6,-1
 632 1858 l 1,7,-1
 353 1552 l 1,4,-1
EndSplineSet
EndChar

StartChar: Icircumflex
Encoding: 206 206 142
Width: 512
GlyphClass: 2
Flags: W
LayerCount: 2
Fore
SplineSet
385 0 m 1,0,-1
 127 0 l 1,1,-1
 127 1443 l 1,2,-1
 385 1443 l 1,3,-1
 385 0 l 1,0,-1
158 1856 m 1,4,-1
 354 1856 l 1,5,-1
 635 1546 l 1,6,-1
 432 1546 l 1,7,-1
 258 1744 l 1,8,-1
 254 1744 l 1,9,-1
 80 1546 l 1,10,-1
 -123 1546 l 1,11,-1
 158 1856 l 1,4,-1
EndSplineSet
EndChar

StartChar: Idieresis
Encoding: 207 207 143
Width: 512
GlyphClass: 2
Flags: W
LayerCount: 2
Fore
SplineSet
385 0 m 1,0,-1
 127 0 l 1,1,-1
 127 1443 l 1,2,-1
 385 1443 l 1,3,-1
 385 0 l 1,0,-1
51 1569 m 128,-1,5
 -2 1569 -2 1569 -39 1605.5 c 128,-1,6
 -76 1642 -76 1642 -76 1693 c 0,7,8
 -76 1745 -76 1745 -39 1781.5 c 128,-1,9
 -2 1818 -2 1818 51 1818 c 128,-1,10
 104 1818 104 1818 141 1781.5 c 128,-1,11
 178 1745 178 1745 178 1693 c 0,12,13
 178 1642 178 1642 141 1605.5 c 128,-1,4
 104 1569 104 1569 51 1569 c 128,-1,5
461 1569 m 128,-1,15
 408 1569 408 1569 371 1605.5 c 128,-1,16
 334 1642 334 1642 334 1693 c 0,17,18
 334 1745 334 1745 371 1781.5 c 128,-1,19
 408 1818 408 1818 461 1818 c 128,-1,20
 514 1818 514 1818 550.5 1781.5 c 128,-1,21
 587 1745 587 1745 587 1693 c 0,22,23
 587 1642 587 1642 550.5 1605.5 c 128,-1,14
 514 1569 514 1569 461 1569 c 128,-1,15
EndSplineSet
EndChar

StartChar: Eth
Encoding: 208 208 144
Width: 1469
GlyphClass: 2
Flags: W
LayerCount: 2
Fore
SplineSet
385 218 m 1,0,-1
 634 218 l 2,1,2
 852 218 852 218 968 348 c 128,-1,3
 1084 478 1084 478 1084 724 c 0,4,5
 1084 966 1084 966 967 1095.5 c 128,-1,6
 850 1225 850 1225 634 1225 c 2,7,-1
 385 1225 l 1,8,-1
 385 837 l 1,9,-1
 654 837 l 1,10,-1
 654 637 l 1,11,-1
 385 637 l 1,12,-1
 385 218 l 1,0,-1
127 1443 m 1,13,-1
 661 1443 l 2,14,15
 985 1443 985 1443 1166 1255 c 128,-1,16
 1347 1067 1347 1067 1347 725 c 0,17,18
 1347 382 1347 382 1166 191 c 128,-1,19
 985 0 985 0 661 0 c 2,20,-1
 127 0 l 1,21,-1
 127 637 l 1,22,-1
 25 637 l 1,23,-1
 25 837 l 1,24,-1
 127 837 l 1,25,-1
 127 1443 l 1,13,-1
EndSplineSet
EndChar

StartChar: Ntilde
Encoding: 209 209 145
Width: 1452
GlyphClass: 2
Flags: W
LayerCount: 2
Fore
SplineSet
861 1538 m 0,0,1
 824 1538 824 1538 791 1552.5 c 128,-1,2
 758 1567 758 1567 734.5 1588 c 128,-1,3
 711 1609 711 1609 690.5 1630 c 128,-1,4
 670 1651 670 1651 648.5 1665.5 c 128,-1,5
 627 1680 627 1680 606 1680 c 0,6,7
 574 1680 574 1680 556 1646.5 c 128,-1,8
 538 1613 538 1613 537 1554 c 1,9,-1
 396 1554 l 1,10,11
 396 1677 396 1677 451 1747.5 c 128,-1,12
 506 1818 506 1818 597 1818 c 0,13,14
 636 1818 636 1818 670 1803.5 c 128,-1,15
 704 1789 704 1789 728 1768 c 128,-1,16
 752 1747 752 1747 773 1726 c 128,-1,17
 794 1705 794 1705 815 1690.5 c 128,-1,18
 836 1676 836 1676 855 1676 c 0,19,20
 918 1676 918 1676 920 1804 c 1,21,-1
 1061 1804 l 1,22,23
 1061 1683 1061 1683 1005 1610.5 c 128,-1,24
 949 1538 949 1538 861 1538 c 0,0,1
376 0 m 1,25,-1
 127 0 l 1,26,-1
 127 1443 l 1,27,-1
 351 1443 l 1,28,-1
 1067 432 l 1,29,-1
 1076 432 l 1,30,-1
 1076 1443 l 1,31,-1
 1324 1443 l 1,32,-1
 1324 0 l 1,33,-1
 1102 0 l 1,34,-1
 385 1012 l 1,35,-1
 376 1012 l 1,36,-1
 376 0 l 1,25,-1
EndSplineSet
EndChar

StartChar: Ograve
Encoding: 210 210 146
Width: 1525
GlyphClass: 2
Flags: W
LayerCount: 2
Fore
SplineSet
666 1555 m 1,0,-1
 387 1861 l 1,1,-1
 633 1861 l 1,2,-1
 864 1555 l 1,3,-1
 666 1555 l 1,0,-1
763 1467 m 0,4,5
 1078 1467 1078 1467 1262.5 1266 c 128,-1,6
 1447 1065 1447 1065 1447 721 c 128,-1,7
 1447 377 1447 377 1262.5 176.5 c 128,-1,8
 1078 -24 1078 -24 763 -24 c 0,9,10
 447 -24 447 -24 262.5 176.5 c 128,-1,11
 78 377 78 377 78 721 c 128,-1,12
 78 1065 78 1065 262.5 1266 c 128,-1,13
 447 1467 447 1467 763 1467 c 0,4,5
763 1247 m 128,-1,15
 570 1247 570 1247 456 1105 c 128,-1,16
 342 963 342 963 342 721 c 0,17,18
 342 480 342 480 456 338 c 128,-1,19
 570 196 570 196 763 196 c 128,-1,20
 956 196 956 196 1070 338 c 128,-1,21
 1184 480 1184 480 1184 721 c 128,-1,22
 1184 962 1184 962 1070 1104.5 c 128,-1,14
 956 1247 956 1247 763 1247 c 128,-1,15
EndSplineSet
EndChar

StartChar: Oacute
Encoding: 211 211 147
Width: 1525
GlyphClass: 2
Flags: W
LayerCount: 2
Fore
SplineSet
860 1552 m 1,0,-1
 662 1552 l 1,1,-1
 893 1858 l 1,2,-1
 1139 1858 l 1,3,-1
 860 1552 l 1,0,-1
763 1467 m 0,4,5
 1078 1467 1078 1467 1262.5 1266 c 128,-1,6
 1447 1065 1447 1065 1447 721 c 128,-1,7
 1447 377 1447 377 1262.5 176.5 c 128,-1,8
 1078 -24 1078 -24 763 -24 c 0,9,10
 447 -24 447 -24 262.5 176.5 c 128,-1,11
 78 377 78 377 78 721 c 128,-1,12
 78 1065 78 1065 262.5 1266 c 128,-1,13
 447 1467 447 1467 763 1467 c 0,4,5
763 1247 m 128,-1,15
 570 1247 570 1247 456 1105 c 128,-1,16
 342 963 342 963 342 721 c 0,17,18
 342 480 342 480 456 338 c 128,-1,19
 570 196 570 196 763 196 c 128,-1,20
 956 196 956 196 1070 338 c 128,-1,21
 1184 480 1184 480 1184 721 c 128,-1,22
 1184 962 1184 962 1070 1104.5 c 128,-1,14
 956 1247 956 1247 763 1247 c 128,-1,15
EndSplineSet
EndChar

StartChar: Ocircumflex
Encoding: 212 212 148
Width: 1525
GlyphClass: 2
Flags: W
LayerCount: 2
Fore
SplineSet
665 1856 m 1,0,-1
 861 1856 l 1,1,-1
 1142 1546 l 1,2,-1
 939 1546 l 1,3,-1
 765 1744 l 1,4,-1
 761 1744 l 1,5,-1
 587 1546 l 1,6,-1
 384 1546 l 1,7,-1
 665 1856 l 1,0,-1
763 1467 m 0,8,9
 1078 1467 1078 1467 1262.5 1266 c 128,-1,10
 1447 1065 1447 1065 1447 721 c 128,-1,11
 1447 377 1447 377 1262.5 176.5 c 128,-1,12
 1078 -24 1078 -24 763 -24 c 0,13,14
 447 -24 447 -24 262.5 176.5 c 128,-1,15
 78 377 78 377 78 721 c 128,-1,16
 78 1065 78 1065 262.5 1266 c 128,-1,17
 447 1467 447 1467 763 1467 c 0,8,9
763 1247 m 128,-1,19
 570 1247 570 1247 456 1105 c 128,-1,20
 342 963 342 963 342 721 c 0,21,22
 342 480 342 480 456 338 c 128,-1,23
 570 196 570 196 763 196 c 128,-1,24
 956 196 956 196 1070 338 c 128,-1,25
 1184 480 1184 480 1184 721 c 128,-1,26
 1184 962 1184 962 1070 1104.5 c 128,-1,18
 956 1247 956 1247 763 1247 c 128,-1,19
EndSplineSet
EndChar

StartChar: Otilde
Encoding: 213 213 149
Width: 1525
GlyphClass: 2
Flags: W
LayerCount: 2
Fore
SplineSet
763 1467 m 0,0,1
 1078 1467 1078 1467 1262.5 1266 c 128,-1,2
 1447 1065 1447 1065 1447 721 c 128,-1,3
 1447 377 1447 377 1262.5 176.5 c 128,-1,4
 1078 -24 1078 -24 763 -24 c 0,5,6
 447 -24 447 -24 262.5 176.5 c 128,-1,7
 78 377 78 377 78 721 c 128,-1,8
 78 1065 78 1065 262.5 1266 c 128,-1,9
 447 1467 447 1467 763 1467 c 0,0,1
763 1247 m 128,-1,11
 570 1247 570 1247 456 1105 c 128,-1,12
 342 963 342 963 342 721 c 0,13,14
 342 480 342 480 456 338 c 128,-1,15
 570 196 570 196 763 196 c 128,-1,16
 956 196 956 196 1070 338 c 128,-1,17
 1184 480 1184 480 1184 721 c 128,-1,18
 1184 962 1184 962 1070 1104.5 c 128,-1,10
 956 1247 956 1247 763 1247 c 128,-1,11
898 1538 m 0,19,20
 861 1538 861 1538 828 1552.5 c 128,-1,21
 795 1567 795 1567 771.5 1588 c 128,-1,22
 748 1609 748 1609 727.5 1630 c 128,-1,23
 707 1651 707 1651 685.5 1665.5 c 128,-1,24
 664 1680 664 1680 643 1680 c 0,25,26
 611 1680 611 1680 593 1646.5 c 128,-1,27
 575 1613 575 1613 574 1554 c 1,28,-1
 433 1554 l 1,29,30
 433 1677 433 1677 488 1747.5 c 128,-1,31
 543 1818 543 1818 634 1818 c 0,32,33
 673 1818 673 1818 707 1803.5 c 128,-1,34
 741 1789 741 1789 765 1768 c 128,-1,35
 789 1747 789 1747 810 1726 c 128,-1,36
 831 1705 831 1705 852 1690.5 c 128,-1,37
 873 1676 873 1676 892 1676 c 0,38,39
 955 1676 955 1676 957 1804 c 1,40,-1
 1098 1804 l 1,41,42
 1098 1683 1098 1683 1042 1610.5 c 128,-1,43
 986 1538 986 1538 898 1538 c 0,19,20
EndSplineSet
EndChar

StartChar: Odieresis
Encoding: 214 214 150
Width: 1525
GlyphClass: 2
Flags: W
LayerCount: 2
Fore
SplineSet
558 1569 m 128,-1,1
 505 1569 505 1569 468 1605.5 c 128,-1,2
 431 1642 431 1642 431 1693 c 0,3,4
 431 1745 431 1745 468 1781.5 c 128,-1,5
 505 1818 505 1818 558 1818 c 128,-1,6
 611 1818 611 1818 648 1781.5 c 128,-1,7
 685 1745 685 1745 685 1693 c 0,8,9
 685 1642 685 1642 648 1605.5 c 128,-1,0
 611 1569 611 1569 558 1569 c 128,-1,1
968 1569 m 128,-1,11
 915 1569 915 1569 878 1605.5 c 128,-1,12
 841 1642 841 1642 841 1693 c 0,13,14
 841 1745 841 1745 878 1781.5 c 128,-1,15
 915 1818 915 1818 968 1818 c 128,-1,16
 1021 1818 1021 1818 1057.5 1781.5 c 128,-1,17
 1094 1745 1094 1745 1094 1693 c 0,18,19
 1094 1642 1094 1642 1057.5 1605.5 c 128,-1,10
 1021 1569 1021 1569 968 1569 c 128,-1,11
763 1467 m 0,20,21
 1078 1467 1078 1467 1262.5 1266 c 128,-1,22
 1447 1065 1447 1065 1447 721 c 128,-1,23
 1447 377 1447 377 1262.5 176.5 c 128,-1,24
 1078 -24 1078 -24 763 -24 c 0,25,26
 447 -24 447 -24 262.5 176.5 c 128,-1,27
 78 377 78 377 78 721 c 128,-1,28
 78 1065 78 1065 262.5 1266 c 128,-1,29
 447 1467 447 1467 763 1467 c 0,20,21
763 1247 m 128,-1,31
 570 1247 570 1247 456 1105 c 128,-1,32
 342 963 342 963 342 721 c 0,33,34
 342 480 342 480 456 338 c 128,-1,35
 570 196 570 196 763 196 c 128,-1,36
 956 196 956 196 1070 338 c 128,-1,37
 1184 480 1184 480 1184 721 c 128,-1,38
 1184 962 1184 962 1070 1104.5 c 128,-1,30
 956 1247 956 1247 763 1247 c 128,-1,31
EndSplineSet
EndChar

StartChar: multiply
Encoding: 215 215 151
Width: 1295
GlyphClass: 2
Flags: W
LayerCount: 2
Fore
SplineSet
648 433 m 1,0,-1
 342 128 l 1,1,-1
 193 277 l 1,2,-1
 498 583 l 1,3,-1
 193 888 l 1,4,-1
 342 1037 l 1,5,-1
 648 732 l 1,6,-1
 953 1037 l 1,7,-1
 1102 888 l 1,8,-1
 798 583 l 1,9,-1
 1102 277 l 1,10,-1
 953 128 l 1,11,-1
 648 433 l 1,0,-1
EndSplineSet
Substitution2: "'case' Case-Sensitive Forms in Latin lookup 4 subtable" multiply.uc
EndChar

StartChar: Oslash
Encoding: 216 216 152
Width: 1525
GlyphClass: 2
Flags: W
LayerCount: 2
Fore
SplineSet
1099 1063 m 1,0,-1
 537 262 l 1,1,2
 634 196 634 196 763 196 c 0,3,4
 956 196 956 196 1070 338 c 128,-1,5
 1184 480 1184 480 1184 721 c 0,6,7
 1184 927 1184 927 1099 1063 c 1,0,-1
448 348 m 1,8,-1
 1018 1159 l 1,9,10
 913 1247 913 1247 763 1247 c 0,11,12
 570 1247 570 1247 456 1105 c 128,-1,13
 342 963 342 963 342 721 c 0,14,15
 342 490 342 490 448 348 c 1,8,-1
1361 1436 m 1,16,-1
 1251 1279 l 1,17,18
 1447 1077 1447 1077 1447 721 c 0,19,20
 1447 377 1447 377 1262.5 176.5 c 128,-1,21
 1078 -24 1078 -24 763 -24 c 0,22,23
 554 -24 554 -24 400 66 c 1,24,-1
 312 -59 l 1,25,-1
 211 11 l 1,26,-1
 301 139 l 1,27,28
 193 237 193 237 135.5 385 c 128,-1,29
 78 533 78 533 78 721 c 0,30,31
 78 1065 78 1065 262.5 1266 c 128,-1,32
 447 1467 447 1467 763 1467 c 0,33,34
 991 1467 991 1467 1157 1357 c 1,35,-1
 1257 1499 l 1,36,-1
 1361 1436 l 1,16,-1
EndSplineSet
EndChar

StartChar: Ugrave
Encoding: 217 217 153
Width: 1441
GlyphClass: 2
Flags: W
LayerCount: 2
Fore
SplineSet
623 1555 m 1,0,-1
 344 1861 l 1,1,-1
 590 1861 l 1,2,-1
 821 1555 l 1,3,-1
 623 1555 l 1,0,-1
385 1443 m 1,4,-1
 385 532 l 2,5,6
 385 382 385 382 473.5 291.5 c 128,-1,7
 562 201 562 201 720 201 c 128,-1,8
 878 201 878 201 967 291.5 c 128,-1,9
 1056 382 1056 382 1056 532 c 2,10,-1
 1056 1443 l 1,11,-1
 1313 1443 l 1,12,-1
 1313 509 l 2,13,14
 1313 270 1313 270 1152.5 123 c 128,-1,15
 992 -24 992 -24 720 -24 c 0,16,17
 449 -24 449 -24 288 123 c 128,-1,18
 127 270 127 270 127 509 c 2,19,-1
 127 1443 l 1,20,-1
 385 1443 l 1,4,-1
EndSplineSet
EndChar

StartChar: Uacute
Encoding: 218 218 154
Width: 1441
GlyphClass: 2
Flags: W
LayerCount: 2
Fore
SplineSet
817 1552 m 1,0,-1
 619 1552 l 1,1,-1
 850 1858 l 1,2,-1
 1096 1858 l 1,3,-1
 817 1552 l 1,0,-1
385 1443 m 1,4,-1
 385 532 l 2,5,6
 385 382 385 382 473.5 291.5 c 128,-1,7
 562 201 562 201 720 201 c 128,-1,8
 878 201 878 201 967 291.5 c 128,-1,9
 1056 382 1056 382 1056 532 c 2,10,-1
 1056 1443 l 1,11,-1
 1313 1443 l 1,12,-1
 1313 509 l 2,13,14
 1313 270 1313 270 1152.5 123 c 128,-1,15
 992 -24 992 -24 720 -24 c 0,16,17
 449 -24 449 -24 288 123 c 128,-1,18
 127 270 127 270 127 509 c 2,19,-1
 127 1443 l 1,20,-1
 385 1443 l 1,4,-1
EndSplineSet
EndChar

StartChar: Ucircumflex
Encoding: 219 219 155
Width: 1441
GlyphClass: 2
Flags: W
LayerCount: 2
Fore
SplineSet
622 1856 m 1,0,-1
 818 1856 l 1,1,-1
 1099 1546 l 1,2,-1
 896 1546 l 1,3,-1
 722 1744 l 1,4,-1
 718 1744 l 1,5,-1
 544 1546 l 1,6,-1
 341 1546 l 1,7,-1
 622 1856 l 1,0,-1
385 1443 m 1,8,-1
 385 532 l 2,9,10
 385 382 385 382 473.5 291.5 c 128,-1,11
 562 201 562 201 720 201 c 128,-1,12
 878 201 878 201 967 291.5 c 128,-1,13
 1056 382 1056 382 1056 532 c 2,14,-1
 1056 1443 l 1,15,-1
 1313 1443 l 1,16,-1
 1313 509 l 2,17,18
 1313 270 1313 270 1152.5 123 c 128,-1,19
 992 -24 992 -24 720 -24 c 0,20,21
 449 -24 449 -24 288 123 c 128,-1,22
 127 270 127 270 127 509 c 2,23,-1
 127 1443 l 1,24,-1
 385 1443 l 1,8,-1
EndSplineSet
EndChar

StartChar: Udieresis
Encoding: 220 220 156
Width: 1441
GlyphClass: 2
Flags: W
LayerCount: 2
Fore
SplineSet
515 1569 m 128,-1,1
 462 1569 462 1569 425 1605.5 c 128,-1,2
 388 1642 388 1642 388 1693 c 0,3,4
 388 1745 388 1745 425 1781.5 c 128,-1,5
 462 1818 462 1818 515 1818 c 128,-1,6
 568 1818 568 1818 605 1781.5 c 128,-1,7
 642 1745 642 1745 642 1693 c 0,8,9
 642 1642 642 1642 605 1605.5 c 128,-1,0
 568 1569 568 1569 515 1569 c 128,-1,1
925 1569 m 128,-1,11
 872 1569 872 1569 835 1605.5 c 128,-1,12
 798 1642 798 1642 798 1693 c 0,13,14
 798 1745 798 1745 835 1781.5 c 128,-1,15
 872 1818 872 1818 925 1818 c 128,-1,16
 978 1818 978 1818 1014.5 1781.5 c 128,-1,17
 1051 1745 1051 1745 1051 1693 c 0,18,19
 1051 1642 1051 1642 1014.5 1605.5 c 128,-1,10
 978 1569 978 1569 925 1569 c 128,-1,11
385 1443 m 1,20,-1
 385 532 l 2,21,22
 385 382 385 382 473.5 291.5 c 128,-1,23
 562 201 562 201 720 201 c 128,-1,24
 878 201 878 201 967 291.5 c 128,-1,25
 1056 382 1056 382 1056 532 c 2,26,-1
 1056 1443 l 1,27,-1
 1313 1443 l 1,28,-1
 1313 509 l 2,29,30
 1313 270 1313 270 1152.5 123 c 128,-1,31
 992 -24 992 -24 720 -24 c 0,32,33
 449 -24 449 -24 288 123 c 128,-1,34
 127 270 127 270 127 509 c 2,35,-1
 127 1443 l 1,36,-1
 385 1443 l 1,20,-1
EndSplineSet
EndChar

StartChar: Yacute
Encoding: 221 221 157
Width: 1323
GlyphClass: 2
Flags: W
LayerCount: 2
Fore
SplineSet
790 0 m 1,0,-1
 533 0 l 1,1,-1
 533 569 l 1,2,-1
 27 1443 l 1,3,-1
 310 1443 l 1,4,-1
 660 815 l 1,5,-1
 666 815 l 1,6,-1
 1015 1443 l 1,7,-1
 1296 1443 l 1,8,-1
 790 569 l 1,9,-1
 790 0 l 1,0,-1
758 1552 m 1,10,-1
 560 1552 l 1,11,-1
 791 1858 l 1,12,-1
 1037 1858 l 1,13,-1
 758 1552 l 1,10,-1
EndSplineSet
EndChar

StartChar: Thorn
Encoding: 222 222 158
Width: 1294
GlyphClass: 2
Flags: W
LayerCount: 2
Fore
SplineSet
154 1443 m 1,0,-1
 413 1443 l 1,1,-1
 413 1197 l 1,2,-1
 744 1197 l 2,3,4
 872 1197 872 1197 974.5 1145.5 c 128,-1,5
 1077 1094 1077 1094 1138.5 992 c 128,-1,6
 1200 890 1200 890 1200 755 c 0,7,8
 1200 553 1200 553 1067 432.5 c 128,-1,9
 934 312 934 312 734 312 c 2,10,-1
 412 312 l 1,11,-1
 412 0 l 1,12,-1
 154 0 l 1,13,-1
 154 1443 l 1,0,-1
412 986 m 1,14,-1
 412 521 l 1,15,-1
 672 521 l 2,16,17
 794 521 794 521 865.5 580.5 c 128,-1,18
 937 640 937 640 937 754 c 0,19,20
 937 867 937 867 866 926.5 c 128,-1,21
 795 986 795 986 673 986 c 2,22,-1
 412 986 l 1,14,-1
EndSplineSet
EndChar

StartChar: germandbls
Encoding: 223 223 159
Width: 1315
GlyphClass: 2
Flags: W
LayerCount: 2
Fore
SplineSet
407 0 m 1,0,-1
 160 0 l 1,1,-1
 160 1088 l 2,2,3
 160 1271 160 1271 287.5 1379 c 128,-1,4
 415 1487 415 1487 631 1487 c 0,5,6
 837 1487 837 1487 966.5 1382 c 128,-1,7
 1096 1277 1096 1277 1096 1111 c 0,8,9
 1096 987 1096 987 1036 896.5 c 128,-1,10
 976 806 976 806 874 776 c 1,11,-1
 874 767 l 1,12,13
 1030 750 1030 750 1119.5 651.5 c 128,-1,14
 1209 553 1209 553 1209 399 c 0,15,16
 1209 210 1209 210 1081 97.5 c 128,-1,17
 953 -15 953 -15 736 -15 c 0,18,19
 638 -15 638 -15 568 0 c 1,20,-1
 568 204 l 1,21,22
 620 188 620 188 698 188 c 0,23,24
 819 188 819 188 889 248 c 128,-1,25
 959 308 959 308 959 411 c 0,26,27
 959 520 959 520 880 581 c 128,-1,28
 801 642 801 642 661 642 c 2,29,-1
 593 642 l 1,30,-1
 593 855 l 1,31,-1
 643 855 l 2,32,33
 742 855 742 855 798.5 914 c 128,-1,34
 855 973 855 973 855 1077 c 0,35,36
 855 1169 855 1169 794.5 1225.5 c 128,-1,37
 734 1282 734 1282 635 1282 c 0,38,39
 526 1282 526 1282 466.5 1220 c 128,-1,40
 407 1158 407 1158 407 1045 c 2,41,-1
 407 0 l 1,0,-1
EndSplineSet
EndChar

StartChar: agrave
Encoding: 224 224 160
Width: 1116
GlyphClass: 2
Flags: W
LayerCount: 2
Fore
SplineSet
501 179 m 0,0,1
 615 179 615 179 691 243 c 128,-1,2
 767 307 767 307 767 406 c 2,3,-1
 767 489 l 1,4,-1
 517 473 l 2,5,6
 309 459 309 459 309 323 c 0,7,8
 309 257 309 257 361.5 218 c 128,-1,9
 414 179 414 179 501 179 c 0,0,1
428 -12 m 0,10,11
 266 -12 266 -12 162.5 78 c 128,-1,12
 59 168 59 168 59 313 c 0,13,14
 59 459 59 459 167.5 541 c 128,-1,15
 276 623 276 623 483 636 c 2,16,-1
 767 653 l 1,17,-1
 767 733 l 2,18,19
 767 819 767 819 711.5 865.5 c 128,-1,20
 656 912 656 912 555 912 c 0,21,22
 471 912 471 912 414 872 c 128,-1,23
 357 832 357 832 344 765 c 1,24,-1
 114 765 l 1,25,26
 119 915 119 915 244.5 1011.5 c 128,-1,27
 370 1108 370 1108 563 1108 c 0,28,29
 768 1108 768 1108 890.5 1010 c 128,-1,30
 1013 912 1013 912 1013 749 c 2,31,-1
 1013 0 l 1,32,-1
 774 0 l 1,33,-1
 774 176 l 1,34,-1
 768 176 l 1,35,36
 723 89 723 89 630.5 38.5 c 128,-1,37
 538 -12 538 -12 428 -12 c 0,10,11
658 1258 m 1,38,-1
 457 1258 l 1,39,-1
 195 1565 l 1,40,-1
 441 1565 l 1,41,-1
 658 1258 l 1,38,-1
EndSplineSet
EndChar

StartChar: aacute
Encoding: 225 225 161
Width: 1116
GlyphClass: 2
Flags: W
LayerCount: 2
Fore
SplineSet
501 179 m 0,0,1
 615 179 615 179 691 243 c 128,-1,2
 767 307 767 307 767 406 c 2,3,-1
 767 489 l 1,4,-1
 517 473 l 2,5,6
 309 459 309 459 309 323 c 0,7,8
 309 257 309 257 361.5 218 c 128,-1,9
 414 179 414 179 501 179 c 0,0,1
428 -12 m 0,10,11
 266 -12 266 -12 162.5 78 c 128,-1,12
 59 168 59 168 59 313 c 0,13,14
 59 459 59 459 167.5 541 c 128,-1,15
 276 623 276 623 483 636 c 2,16,-1
 767 653 l 1,17,-1
 767 733 l 2,18,19
 767 819 767 819 711.5 865.5 c 128,-1,20
 656 912 656 912 555 912 c 0,21,22
 471 912 471 912 414 872 c 128,-1,23
 357 832 357 832 344 765 c 1,24,-1
 114 765 l 1,25,26
 119 915 119 915 244.5 1011.5 c 128,-1,27
 370 1108 370 1108 563 1108 c 0,28,29
 768 1108 768 1108 890.5 1010 c 128,-1,30
 1013 912 1013 912 1013 749 c 2,31,-1
 1013 0 l 1,32,-1
 774 0 l 1,33,-1
 774 176 l 1,34,-1
 768 176 l 1,35,36
 723 89 723 89 630.5 38.5 c 128,-1,37
 538 -12 538 -12 428 -12 c 0,10,11
657 1258 m 1,38,-1
 456 1258 l 1,39,-1
 674 1565 l 1,40,-1
 919 1565 l 1,41,-1
 657 1258 l 1,38,-1
EndSplineSet
EndChar

StartChar: acircumflex
Encoding: 226 226 162
Width: 1116
GlyphClass: 2
Flags: W
LayerCount: 2
Fore
SplineSet
501 179 m 0,0,1
 615 179 615 179 691 243 c 128,-1,2
 767 307 767 307 767 406 c 2,3,-1
 767 489 l 1,4,-1
 517 473 l 2,5,6
 309 459 309 459 309 323 c 0,7,8
 309 257 309 257 361.5 218 c 128,-1,9
 414 179 414 179 501 179 c 0,0,1
428 -12 m 0,10,11
 266 -12 266 -12 162.5 78 c 128,-1,12
 59 168 59 168 59 313 c 0,13,14
 59 459 59 459 167.5 541 c 128,-1,15
 276 623 276 623 483 636 c 2,16,-1
 767 653 l 1,17,-1
 767 733 l 2,18,19
 767 819 767 819 711.5 865.5 c 128,-1,20
 656 912 656 912 555 912 c 0,21,22
 471 912 471 912 414 872 c 128,-1,23
 357 832 357 832 344 765 c 1,24,-1
 114 765 l 1,25,26
 119 915 119 915 244.5 1011.5 c 128,-1,27
 370 1108 370 1108 563 1108 c 0,28,29
 768 1108 768 1108 890.5 1010 c 128,-1,30
 1013 912 1013 912 1013 749 c 2,31,-1
 1013 0 l 1,32,-1
 774 0 l 1,33,-1
 774 176 l 1,34,-1
 768 176 l 1,35,36
 723 89 723 89 630.5 38.5 c 128,-1,37
 538 -12 538 -12 428 -12 c 0,10,11
651 1563 m 1,38,-1
 921 1252 l 1,39,-1
 719 1252 l 1,40,-1
 562 1444 l 1,41,-1
 555 1444 l 1,42,-1
 398 1252 l 1,43,-1
 196 1252 l 1,44,-1
 466 1563 l 1,45,-1
 651 1563 l 1,38,-1
EndSplineSet
EndChar

StartChar: atilde
Encoding: 227 227 163
Width: 1116
GlyphClass: 2
Flags: W
LayerCount: 2
Fore
SplineSet
501 179 m 0,0,1
 615 179 615 179 691 243 c 128,-1,2
 767 307 767 307 767 406 c 2,3,-1
 767 489 l 1,4,-1
 517 473 l 2,5,6
 309 459 309 459 309 323 c 0,7,8
 309 257 309 257 361.5 218 c 128,-1,9
 414 179 414 179 501 179 c 0,0,1
428 -12 m 0,10,11
 266 -12 266 -12 162.5 78 c 128,-1,12
 59 168 59 168 59 313 c 0,13,14
 59 459 59 459 167.5 541 c 128,-1,15
 276 623 276 623 483 636 c 2,16,-1
 767 653 l 1,17,-1
 767 733 l 2,18,19
 767 819 767 819 711.5 865.5 c 128,-1,20
 656 912 656 912 555 912 c 0,21,22
 471 912 471 912 414 872 c 128,-1,23
 357 832 357 832 344 765 c 1,24,-1
 114 765 l 1,25,26
 119 915 119 915 244.5 1011.5 c 128,-1,27
 370 1108 370 1108 563 1108 c 0,28,29
 768 1108 768 1108 890.5 1010 c 128,-1,30
 1013 912 1013 912 1013 749 c 2,31,-1
 1013 0 l 1,32,-1
 774 0 l 1,33,-1
 774 176 l 1,34,-1
 768 176 l 1,35,36
 723 89 723 89 630.5 38.5 c 128,-1,37
 538 -12 538 -12 428 -12 c 0,10,11
697 1258 m 0,38,39
 660 1258 660 1258 627 1272.5 c 128,-1,40
 594 1287 594 1287 570.5 1308 c 128,-1,41
 547 1329 547 1329 526.5 1350 c 128,-1,42
 506 1371 506 1371 484.5 1385.5 c 128,-1,43
 463 1400 463 1400 442 1400 c 0,44,45
 410 1400 410 1400 392 1366.5 c 128,-1,46
 374 1333 374 1333 373 1274 c 1,47,-1
 232 1274 l 1,48,49
 232 1397 232 1397 287 1467.5 c 128,-1,50
 342 1538 342 1538 433 1538 c 0,51,52
 472 1538 472 1538 506 1523.5 c 128,-1,53
 540 1509 540 1509 564 1488 c 128,-1,54
 588 1467 588 1467 609 1446 c 128,-1,55
 630 1425 630 1425 651 1410.5 c 128,-1,56
 672 1396 672 1396 691 1396 c 0,57,58
 754 1396 754 1396 756 1524 c 1,59,-1
 897 1524 l 1,60,61
 897 1403 897 1403 841 1330.5 c 128,-1,62
 785 1258 785 1258 697 1258 c 0,38,39
EndSplineSet
EndChar

StartChar: adieresis
Encoding: 228 228 164
Width: 1116
GlyphClass: 2
Flags: W
LayerCount: 2
Fore
SplineSet
501 179 m 0,0,1
 615 179 615 179 691 243 c 128,-1,2
 767 307 767 307 767 406 c 2,3,-1
 767 489 l 1,4,-1
 517 473 l 2,5,6
 309 459 309 459 309 323 c 0,7,8
 309 257 309 257 361.5 218 c 128,-1,9
 414 179 414 179 501 179 c 0,0,1
428 -12 m 0,10,11
 266 -12 266 -12 162.5 78 c 128,-1,12
 59 168 59 168 59 313 c 0,13,14
 59 459 59 459 167.5 541 c 128,-1,15
 276 623 276 623 483 636 c 2,16,-1
 767 653 l 1,17,-1
 767 733 l 2,18,19
 767 819 767 819 711.5 865.5 c 128,-1,20
 656 912 656 912 555 912 c 0,21,22
 471 912 471 912 414 872 c 128,-1,23
 357 832 357 832 344 765 c 1,24,-1
 114 765 l 1,25,26
 119 915 119 915 244.5 1011.5 c 128,-1,27
 370 1108 370 1108 563 1108 c 0,28,29
 768 1108 768 1108 890.5 1010 c 128,-1,30
 1013 912 1013 912 1013 749 c 2,31,-1
 1013 0 l 1,32,-1
 774 0 l 1,33,-1
 774 176 l 1,34,-1
 768 176 l 1,35,36
 723 89 723 89 630.5 38.5 c 128,-1,37
 538 -12 538 -12 428 -12 c 0,10,11
354 1259 m 128,-1,39
 301 1259 301 1259 264 1295.5 c 128,-1,40
 227 1332 227 1332 227 1383 c 0,41,42
 227 1435 227 1435 264 1471.5 c 128,-1,43
 301 1508 301 1508 354 1508 c 128,-1,44
 407 1508 407 1508 444 1471.5 c 128,-1,45
 481 1435 481 1435 481 1383 c 0,46,47
 481 1332 481 1332 444 1295.5 c 128,-1,38
 407 1259 407 1259 354 1259 c 128,-1,39
764 1259 m 128,-1,49
 711 1259 711 1259 674 1295.5 c 128,-1,50
 637 1332 637 1332 637 1383 c 0,51,52
 637 1435 637 1435 674 1471.5 c 128,-1,53
 711 1508 711 1508 764 1508 c 128,-1,54
 817 1508 817 1508 853.5 1471.5 c 128,-1,55
 890 1435 890 1435 890 1383 c 0,56,57
 890 1332 890 1332 853.5 1295.5 c 128,-1,48
 817 1259 817 1259 764 1259 c 128,-1,49
EndSplineSet
EndChar

StartChar: aring
Encoding: 229 229 165
Width: 1116
GlyphClass: 2
Flags: W
LayerCount: 2
Fore
SplineSet
501 179 m 0,0,1
 615 179 615 179 691 243 c 128,-1,2
 767 307 767 307 767 406 c 2,3,-1
 767 489 l 1,4,-1
 517 473 l 2,5,6
 309 459 309 459 309 323 c 0,7,8
 309 257 309 257 361.5 218 c 128,-1,9
 414 179 414 179 501 179 c 0,0,1
428 -12 m 0,10,11
 266 -12 266 -12 162.5 78 c 128,-1,12
 59 168 59 168 59 313 c 0,13,14
 59 459 59 459 167.5 541 c 128,-1,15
 276 623 276 623 483 636 c 2,16,-1
 767 653 l 1,17,-1
 767 733 l 2,18,19
 767 819 767 819 711.5 865.5 c 128,-1,20
 656 912 656 912 555 912 c 0,21,22
 471 912 471 912 414 872 c 128,-1,23
 357 832 357 832 344 765 c 1,24,-1
 114 765 l 1,25,26
 119 915 119 915 244.5 1011.5 c 128,-1,27
 370 1108 370 1108 563 1108 c 0,28,29
 768 1108 768 1108 890.5 1010 c 128,-1,30
 1013 912 1013 912 1013 749 c 2,31,-1
 1013 0 l 1,32,-1
 774 0 l 1,33,-1
 774 176 l 1,34,-1
 768 176 l 1,35,36
 723 89 723 89 630.5 38.5 c 128,-1,37
 538 -12 538 -12 428 -12 c 0,10,11
559 1201 m 128,-1,39
 472 1201 472 1201 409 1263 c 128,-1,40
 346 1325 346 1325 346 1411 c 0,41,42
 346 1498 346 1498 409 1560 c 128,-1,43
 472 1622 472 1622 559 1622 c 128,-1,44
 646 1622 646 1622 709 1560 c 128,-1,45
 772 1498 772 1498 772 1411 c 0,46,47
 772 1325 772 1325 709 1263 c 128,-1,38
 646 1201 646 1201 559 1201 c 128,-1,39
559 1305 m 128,-1,49
 603 1305 603 1305 634.5 1336 c 128,-1,50
 666 1367 666 1367 666 1411 c 128,-1,51
 666 1455 666 1455 634.5 1486 c 128,-1,52
 603 1517 603 1517 559 1517 c 128,-1,53
 515 1517 515 1517 483.5 1486 c 128,-1,54
 452 1455 452 1455 452 1411 c 128,-1,55
 452 1367 452 1367 483.5 1336 c 128,-1,48
 515 1305 515 1305 559 1305 c 128,-1,49
EndSplineSet
EndChar

StartChar: ae
Encoding: 230 230 166
Width: 1816
GlyphClass: 2
Flags: W
LayerCount: 2
Fore
SplineSet
1276 -16 m 0,0,1
 1141 -16 1141 -16 1036.5 40 c 128,-1,2
 932 96 932 96 879 197 c 1,3,-1
 869 197 l 1,4,5
 743 -12 743 -12 464 -12 c 0,6,7
 281 -12 281 -12 170 76.5 c 128,-1,8
 59 165 59 165 59 311 c 0,9,10
 59 456 59 456 167.5 539.5 c 128,-1,11
 276 623 276 623 481 634 c 2,12,-1
 767 649 l 1,13,-1
 767 720 l 2,14,15
 767 806 767 806 707 859 c 128,-1,16
 647 912 647 912 550 912 c 0,17,18
 459 912 459 912 402.5 872.5 c 128,-1,19
 346 833 346 833 339 765 c 1,20,-1
 106 765 l 1,21,22
 115 918 115 918 235.5 1013 c 128,-1,23
 356 1108 356 1108 543 1108 c 0,24,25
 674 1108 674 1108 770 1059 c 128,-1,26
 866 1010 866 1010 909 924 c 1,27,-1
 918 924 l 1,28,29
 973 1013 973 1013 1064.5 1060.5 c 128,-1,30
 1156 1108 1156 1108 1275 1108 c 0,31,32
 1495 1108 1495 1108 1625.5 962 c 128,-1,33
 1756 816 1756 816 1756 568 c 2,34,-1
 1756 487 l 1,35,-1
 1003 487 l 1,36,-1
 1003 471 l 2,37,38
 1003 338 1003 338 1079 258 c 128,-1,39
 1155 178 1155 178 1280 178 c 0,40,41
 1367 178 1367 178 1428 217 c 128,-1,42
 1489 256 1489 256 1512 325 c 1,43,-1
 1746 325 l 1,44,45
 1721 172 1721 172 1592 78 c 128,-1,46
 1463 -16 1463 -16 1276 -16 c 0,0,1
1266 914 m 128,-1,48
 1157 914 1157 914 1085 842 c 128,-1,49
 1013 770 1013 770 1005 652 c 1,50,-1
 1511 652 l 1,51,52
 1507 773 1507 773 1441 843.5 c 128,-1,47
 1375 914 1375 914 1266 914 c 128,-1,48
495 179 m 0,53,54
 610 179 610 179 688.5 244 c 128,-1,55
 767 309 767 309 767 406 c 2,56,-1
 767 485 l 1,57,-1
 515 471 l 2,58,59
 416 465 416 465 362.5 427 c 128,-1,60
 309 389 309 389 309 323 c 128,-1,61
 309 257 309 257 359.5 218 c 128,-1,62
 410 179 410 179 495 179 c 0,53,54
EndSplineSet
EndChar

StartChar: ccedilla
Encoding: 231 231 167
Width: 1112
GlyphClass: 2
Flags: W
LayerCount: 2
Fore
SplineSet
829 380 m 1,0,-1
 1064 380 l 1,1,2
 1050 217 1050 217 939 111.5 c 128,-1,3
 828 6 828 6 652 -13 c 1,4,-1
 607 -125 l 1,5,6
 701 -125 701 -125 751 -165.5 c 128,-1,7
 801 -206 801 -206 801 -281 c 0,8,9
 801 -364 801 -364 738 -413.5 c 128,-1,10
 675 -463 675 -463 568 -464 c 0,11,12
 481 -464 481 -464 426 -447 c 1,13,-1
 426 -336 l 1,14,15
 463 -350 463 -350 541 -350 c 0,16,17
 652 -350 652 -350 652 -288 c 0,18,19
 652 -256 652 -256 621 -242 c 128,-1,20
 590 -228 590 -228 518 -228 c 2,21,-1
 463 -228 l 1,22,-1
 463 -138 l 1,23,-1
 516 -13 l 1,24,25
 305 9 305 9 182.5 157.5 c 128,-1,26
 60 306 60 306 60 547 c 0,27,28
 60 803 60 803 202 955.5 c 128,-1,29
 344 1108 344 1108 581 1108 c 0,30,31
 790 1108 790 1108 920 994 c 128,-1,32
 1050 880 1050 880 1063 706 c 1,33,-1
 828 706 l 1,34,35
 814 795 814 795 750 850 c 128,-1,36
 686 905 686 905 584 905 c 0,37,38
 461 905 461 905 387 808 c 128,-1,39
 313 711 313 711 313 547 c 0,40,41
 313 379 313 379 387 283 c 128,-1,42
 461 187 461 187 585 187 c 0,43,44
 685 187 685 187 748.5 237 c 128,-1,45
 812 287 812 287 829 380 c 1,0,-1
EndSplineSet
EndChar

StartChar: egrave
Encoding: 232 232 168
Width: 1135
GlyphClass: 2
Flags: W
LayerCount: 2
Fore
SplineSet
672 1258 m 1,0,-1
 471 1258 l 1,1,-1
 209 1565 l 1,2,-1
 455 1565 l 1,3,-1
 672 1258 l 1,0,-1
574 914 m 0,4,5
 465 914 465 914 392 841.5 c 128,-1,6
 319 769 319 769 311 652 c 1,7,-1
 829 652 l 1,8,9
 825 770 825 770 755 842 c 128,-1,10
 685 914 685 914 574 914 c 0,4,5
830 325 m 1,11,-1
 1064 325 l 1,12,13
 1040 173 1040 173 907 78.5 c 128,-1,14
 774 -16 774 -16 583 -16 c 0,15,16
 341 -16 341 -16 200.5 134 c 128,-1,17
 60 284 60 284 60 542 c 128,-1,18
 60 800 60 800 199.5 954 c 128,-1,19
 339 1108 339 1108 574 1108 c 0,20,21
 804 1108 804 1108 939 962 c 128,-1,22
 1074 816 1074 816 1074 568 c 2,23,-1
 1074 486 l 1,24,-1
 309 486 l 1,25,-1
 309 471 l 2,26,27
 309 339 309 339 386 258.5 c 128,-1,28
 463 178 463 178 588 178 c 0,29,30
 678 178 678 178 743 217.5 c 128,-1,31
 808 257 808 257 830 325 c 1,11,-1
EndSplineSet
EndChar

StartChar: eacute
Encoding: 233 233 169
Width: 1135
GlyphClass: 2
Flags: W
LayerCount: 2
Fore
SplineSet
671 1258 m 1,0,-1
 470 1258 l 1,1,-1
 688 1565 l 1,2,-1
 933 1565 l 1,3,-1
 671 1258 l 1,0,-1
574 914 m 0,4,5
 465 914 465 914 392 841.5 c 128,-1,6
 319 769 319 769 311 652 c 1,7,-1
 829 652 l 1,8,9
 825 770 825 770 755 842 c 128,-1,10
 685 914 685 914 574 914 c 0,4,5
830 325 m 1,11,-1
 1064 325 l 1,12,13
 1040 173 1040 173 907 78.5 c 128,-1,14
 774 -16 774 -16 583 -16 c 0,15,16
 341 -16 341 -16 200.5 134 c 128,-1,17
 60 284 60 284 60 542 c 128,-1,18
 60 800 60 800 199.5 954 c 128,-1,19
 339 1108 339 1108 574 1108 c 0,20,21
 804 1108 804 1108 939 962 c 128,-1,22
 1074 816 1074 816 1074 568 c 2,23,-1
 1074 486 l 1,24,-1
 309 486 l 1,25,-1
 309 471 l 2,26,27
 309 339 309 339 386 258.5 c 128,-1,28
 463 178 463 178 588 178 c 0,29,30
 678 178 678 178 743 217.5 c 128,-1,31
 808 257 808 257 830 325 c 1,11,-1
EndSplineSet
EndChar

StartChar: ecircumflex
Encoding: 234 234 170
Width: 1135
GlyphClass: 2
Flags: W
LayerCount: 2
Fore
SplineSet
665 1563 m 1,0,-1
 935 1252 l 1,1,-1
 733 1252 l 1,2,-1
 576 1444 l 1,3,-1
 569 1444 l 1,4,-1
 412 1252 l 1,5,-1
 210 1252 l 1,6,-1
 480 1563 l 1,7,-1
 665 1563 l 1,0,-1
574 914 m 0,8,9
 465 914 465 914 392 841.5 c 128,-1,10
 319 769 319 769 311 652 c 1,11,-1
 829 652 l 1,12,13
 825 770 825 770 755 842 c 128,-1,14
 685 914 685 914 574 914 c 0,8,9
830 325 m 1,15,-1
 1064 325 l 1,16,17
 1040 173 1040 173 907 78.5 c 128,-1,18
 774 -16 774 -16 583 -16 c 0,19,20
 341 -16 341 -16 200.5 134 c 128,-1,21
 60 284 60 284 60 542 c 128,-1,22
 60 800 60 800 199.5 954 c 128,-1,23
 339 1108 339 1108 574 1108 c 0,24,25
 804 1108 804 1108 939 962 c 128,-1,26
 1074 816 1074 816 1074 568 c 2,27,-1
 1074 486 l 1,28,-1
 309 486 l 1,29,-1
 309 471 l 2,30,31
 309 339 309 339 386 258.5 c 128,-1,32
 463 178 463 178 588 178 c 0,33,34
 678 178 678 178 743 217.5 c 128,-1,35
 808 257 808 257 830 325 c 1,15,-1
EndSplineSet
EndChar

StartChar: edieresis
Encoding: 235 235 171
Width: 1135
GlyphClass: 2
Flags: W
LayerCount: 2
Fore
SplineSet
574 914 m 0,0,1
 465 914 465 914 392 841.5 c 128,-1,2
 319 769 319 769 311 652 c 1,3,-1
 829 652 l 1,4,5
 825 770 825 770 755 842 c 128,-1,6
 685 914 685 914 574 914 c 0,0,1
830 325 m 1,7,-1
 1064 325 l 1,8,9
 1040 173 1040 173 907 78.5 c 128,-1,10
 774 -16 774 -16 583 -16 c 0,11,12
 341 -16 341 -16 200.5 134 c 128,-1,13
 60 284 60 284 60 542 c 128,-1,14
 60 800 60 800 199.5 954 c 128,-1,15
 339 1108 339 1108 574 1108 c 0,16,17
 804 1108 804 1108 939 962 c 128,-1,18
 1074 816 1074 816 1074 568 c 2,19,-1
 1074 486 l 1,20,-1
 309 486 l 1,21,-1
 309 471 l 2,22,23
 309 339 309 339 386 258.5 c 128,-1,24
 463 178 463 178 588 178 c 0,25,26
 678 178 678 178 743 217.5 c 128,-1,27
 808 257 808 257 830 325 c 1,7,-1
368 1259 m 128,-1,29
 315 1259 315 1259 278 1295.5 c 128,-1,30
 241 1332 241 1332 241 1383 c 0,31,32
 241 1435 241 1435 278 1471.5 c 128,-1,33
 315 1508 315 1508 368 1508 c 128,-1,34
 421 1508 421 1508 458 1471.5 c 128,-1,35
 495 1435 495 1435 495 1383 c 0,36,37
 495 1332 495 1332 458 1295.5 c 128,-1,28
 421 1259 421 1259 368 1259 c 128,-1,29
778 1259 m 128,-1,39
 725 1259 725 1259 688 1295.5 c 128,-1,40
 651 1332 651 1332 651 1383 c 0,41,42
 651 1435 651 1435 688 1471.5 c 128,-1,43
 725 1508 725 1508 778 1508 c 128,-1,44
 831 1508 831 1508 867.5 1471.5 c 128,-1,45
 904 1435 904 1435 904 1383 c 0,46,47
 904 1332 904 1332 867.5 1295.5 c 128,-1,38
 831 1259 831 1259 778 1259 c 128,-1,39
EndSplineSet
EndChar

StartChar: igrave
Encoding: 236 236 172
Width: 475
GlyphClass: 2
Flags: W
LayerCount: 2
Fore
SplineSet
336 1258 m 1,0,-1
 135 1258 l 1,1,-1
 -127 1565 l 1,2,-1
 119 1565 l 1,3,-1
 336 1258 l 1,0,-1
113 0 m 1,4,-1
 113 1093 l 1,5,-1
 362 1093 l 1,6,-1
 362 0 l 1,7,-1
 113 0 l 1,4,-1
EndSplineSet
EndChar

StartChar: iacute
Encoding: 237 237 173
Width: 475
GlyphClass: 2
Flags: W
LayerCount: 2
Fore
SplineSet
335 1258 m 1,0,-1
 134 1258 l 1,1,-1
 352 1565 l 1,2,-1
 597 1565 l 1,3,-1
 335 1258 l 1,0,-1
113 0 m 1,4,-1
 113 1093 l 1,5,-1
 362 1093 l 1,6,-1
 362 0 l 1,7,-1
 113 0 l 1,4,-1
EndSplineSet
EndChar

StartChar: icircumflex
Encoding: 238 238 174
Width: 475
GlyphClass: 2
Flags: W
LayerCount: 2
Fore
SplineSet
329 1563 m 1,0,-1
 599 1252 l 1,1,-1
 397 1252 l 1,2,-1
 240 1444 l 1,3,-1
 233 1444 l 1,4,-1
 76 1252 l 1,5,-1
 -126 1252 l 1,6,-1
 144 1563 l 1,7,-1
 329 1563 l 1,0,-1
113 0 m 1,8,-1
 113 1093 l 1,9,-1
 362 1093 l 1,10,-1
 362 0 l 1,11,-1
 113 0 l 1,8,-1
EndSplineSet
EndChar

StartChar: idieresis
Encoding: 239 239 175
Width: 475
GlyphClass: 2
Flags: W
LayerCount: 2
Fore
SplineSet
113 0 m 1,0,-1
 113 1093 l 1,1,-1
 362 1093 l 1,2,-1
 362 0 l 1,3,-1
 113 0 l 1,0,-1
32 1259 m 128,-1,5
 -21 1259 -21 1259 -58 1295.5 c 128,-1,6
 -95 1332 -95 1332 -95 1383 c 0,7,8
 -95 1435 -95 1435 -58 1471.5 c 128,-1,9
 -21 1508 -21 1508 32 1508 c 128,-1,10
 85 1508 85 1508 122 1471.5 c 128,-1,11
 159 1435 159 1435 159 1383 c 0,12,13
 159 1332 159 1332 122 1295.5 c 128,-1,4
 85 1259 85 1259 32 1259 c 128,-1,5
442 1259 m 128,-1,15
 389 1259 389 1259 352 1295.5 c 128,-1,16
 315 1332 315 1332 315 1383 c 0,17,18
 315 1435 315 1435 352 1471.5 c 128,-1,19
 389 1508 389 1508 442 1508 c 128,-1,20
 495 1508 495 1508 531.5 1471.5 c 128,-1,21
 568 1435 568 1435 568 1383 c 0,22,23
 568 1332 568 1332 531.5 1295.5 c 128,-1,14
 495 1259 495 1259 442 1259 c 128,-1,15
EndSplineSet
EndChar

StartChar: eth
Encoding: 240 240 176
Width: 1212
GlyphClass: 2
Flags: W
LayerCount: 2
Fore
SplineSet
605 -18 m 0,0,1
 366 -18 366 -18 223.5 130 c 128,-1,2
 81 278 81 278 81 529 c 0,3,4
 81 768 81 768 210.5 911.5 c 128,-1,5
 340 1055 340 1055 550 1055 c 0,6,7
 637 1055 637 1055 716 1014.5 c 128,-1,8
 795 974 795 974 833 911 c 1,9,-1
 850 911 l 1,10,11
 828 986 828 986 778.5 1072 c 128,-1,12
 729 1158 729 1158 674 1222 c 1,13,-1
 392 1129 l 1,14,-1
 344 1258 l 1,15,-1
 573 1334 l 1,16,17
 503 1404 503 1404 347 1520 c 1,18,-1
 653 1520 l 1,19,20
 719 1468 719 1468 781 1403 c 1,21,-1
 1040 1489 l 1,22,-1
 1090 1358 l 1,23,-1
 887 1293 l 1,24,25
 1127 992 1127 992 1127 590 c 0,26,27
 1127 310 1127 310 985 146 c 128,-1,28
 843 -18 843 -18 605 -18 c 0,0,1
609 868 m 128,-1,30
 484 868 484 868 410 775.5 c 128,-1,31
 336 683 336 683 336 528 c 0,32,33
 336 372 336 372 410 280 c 128,-1,34
 484 188 484 188 609 188 c 0,35,36
 735 188 735 188 809.5 280 c 128,-1,37
 884 372 884 372 884 528 c 0,38,39
 884 683 884 683 809 775.5 c 128,-1,29
 734 868 734 868 609 868 c 128,-1,30
EndSplineSet
EndChar

StartChar: ntilde
Encoding: 241 241 177
Width: 1194
GlyphClass: 2
Flags: W
LayerCount: 2
Fore
SplineSet
736 1258 m 0,0,1
 699 1258 699 1258 666 1272.5 c 128,-1,2
 633 1287 633 1287 609.5 1308 c 128,-1,3
 586 1329 586 1329 565.5 1350 c 128,-1,4
 545 1371 545 1371 523.5 1385.5 c 128,-1,5
 502 1400 502 1400 481 1400 c 0,6,7
 449 1400 449 1400 431 1366.5 c 128,-1,8
 413 1333 413 1333 412 1274 c 1,9,-1
 271 1274 l 1,10,11
 271 1397 271 1397 326 1467.5 c 128,-1,12
 381 1538 381 1538 472 1538 c 0,13,14
 511 1538 511 1538 545 1523.5 c 128,-1,15
 579 1509 579 1509 603 1488 c 128,-1,16
 627 1467 627 1467 648 1446 c 128,-1,17
 669 1425 669 1425 690 1410.5 c 128,-1,18
 711 1396 711 1396 730 1396 c 0,19,20
 793 1396 793 1396 795 1524 c 1,21,-1
 936 1524 l 1,22,23
 936 1403 936 1403 880 1330.5 c 128,-1,24
 824 1258 824 1258 736 1258 c 0,0,1
106 0 m 1,25,-1
 106 1093 l 1,26,-1
 345 1093 l 1,27,-1
 345 903 l 1,28,-1
 350 903 l 1,29,30
 449 1106 449 1106 703 1106 c 0,31,32
 885 1106 885 1106 989 998 c 128,-1,33
 1093 890 1093 890 1093 700 c 2,34,-1
 1093 0 l 1,35,-1
 844 0 l 1,36,-1
 844 651 l 2,37,38
 844 768 844 768 783 831.5 c 128,-1,39
 722 895 722 895 610 895 c 0,40,41
 495 895 495 895 425 821 c 128,-1,42
 355 747 355 747 355 627 c 2,43,-1
 355 0 l 1,44,-1
 106 0 l 1,25,-1
EndSplineSet
EndChar

StartChar: ograve
Encoding: 242 242 178
Width: 1173
GlyphClass: 2
Flags: W
LayerCount: 2
Fore
SplineSet
685 1258 m 1,0,-1
 484 1258 l 1,1,-1
 222 1565 l 1,2,-1
 468 1565 l 1,3,-1
 685 1258 l 1,0,-1
586 -16 m 0,4,5
 344 -16 344 -16 202 135 c 128,-1,6
 60 286 60 286 60 547 c 0,7,8
 60 805 60 805 202.5 956.5 c 128,-1,9
 345 1108 345 1108 586 1108 c 0,10,11
 828 1108 828 1108 970.5 957 c 128,-1,12
 1113 806 1113 806 1113 547 c 0,13,14
 1113 286 1113 286 971 135 c 128,-1,15
 829 -16 829 -16 586 -16 c 0,4,5
586 183 m 0,16,17
 715 183 715 183 787.5 278.5 c 128,-1,18
 860 374 860 374 860 546 c 0,19,20
 860 717 860 717 787.5 813 c 128,-1,21
 715 909 715 909 586 909 c 0,22,23
 458 909 458 909 385.5 813 c 128,-1,24
 313 717 313 717 313 546 c 128,-1,25
 313 375 313 375 385.5 279 c 128,-1,26
 458 183 458 183 586 183 c 0,16,17
EndSplineSet
EndChar

StartChar: oacute
Encoding: 243 243 179
Width: 1173
GlyphClass: 2
Flags: W
LayerCount: 2
Fore
SplineSet
684 1258 m 1,0,-1
 483 1258 l 1,1,-1
 701 1565 l 1,2,-1
 946 1565 l 1,3,-1
 684 1258 l 1,0,-1
586 -16 m 0,4,5
 344 -16 344 -16 202 135 c 128,-1,6
 60 286 60 286 60 547 c 0,7,8
 60 805 60 805 202.5 956.5 c 128,-1,9
 345 1108 345 1108 586 1108 c 0,10,11
 828 1108 828 1108 970.5 957 c 128,-1,12
 1113 806 1113 806 1113 547 c 0,13,14
 1113 286 1113 286 971 135 c 128,-1,15
 829 -16 829 -16 586 -16 c 0,4,5
586 183 m 0,16,17
 715 183 715 183 787.5 278.5 c 128,-1,18
 860 374 860 374 860 546 c 0,19,20
 860 717 860 717 787.5 813 c 128,-1,21
 715 909 715 909 586 909 c 0,22,23
 458 909 458 909 385.5 813 c 128,-1,24
 313 717 313 717 313 546 c 128,-1,25
 313 375 313 375 385.5 279 c 128,-1,26
 458 183 458 183 586 183 c 0,16,17
EndSplineSet
EndChar

StartChar: ocircumflex
Encoding: 244 244 180
Width: 1173
GlyphClass: 2
Flags: W
LayerCount: 2
Fore
SplineSet
678 1563 m 1,0,-1
 948 1252 l 1,1,-1
 746 1252 l 1,2,-1
 589 1444 l 1,3,-1
 582 1444 l 1,4,-1
 425 1252 l 1,5,-1
 223 1252 l 1,6,-1
 493 1563 l 1,7,-1
 678 1563 l 1,0,-1
586 -16 m 0,8,9
 344 -16 344 -16 202 135 c 128,-1,10
 60 286 60 286 60 547 c 0,11,12
 60 805 60 805 202.5 956.5 c 128,-1,13
 345 1108 345 1108 586 1108 c 0,14,15
 828 1108 828 1108 970.5 957 c 128,-1,16
 1113 806 1113 806 1113 547 c 0,17,18
 1113 286 1113 286 971 135 c 128,-1,19
 829 -16 829 -16 586 -16 c 0,8,9
586 183 m 0,20,21
 715 183 715 183 787.5 278.5 c 128,-1,22
 860 374 860 374 860 546 c 0,23,24
 860 717 860 717 787.5 813 c 128,-1,25
 715 909 715 909 586 909 c 0,26,27
 458 909 458 909 385.5 813 c 128,-1,28
 313 717 313 717 313 546 c 128,-1,29
 313 375 313 375 385.5 279 c 128,-1,30
 458 183 458 183 586 183 c 0,20,21
EndSplineSet
EndChar

StartChar: otilde
Encoding: 245 245 181
Width: 1173
GlyphClass: 2
Flags: W
LayerCount: 2
Fore
SplineSet
724 1258 m 0,0,1
 687 1258 687 1258 654 1272.5 c 128,-1,2
 621 1287 621 1287 597.5 1308 c 128,-1,3
 574 1329 574 1329 553.5 1350 c 128,-1,4
 533 1371 533 1371 511.5 1385.5 c 128,-1,5
 490 1400 490 1400 469 1400 c 0,6,7
 437 1400 437 1400 419 1366.5 c 128,-1,8
 401 1333 401 1333 400 1274 c 1,9,-1
 259 1274 l 1,10,11
 259 1397 259 1397 314 1467.5 c 128,-1,12
 369 1538 369 1538 460 1538 c 0,13,14
 499 1538 499 1538 533 1523.5 c 128,-1,15
 567 1509 567 1509 591 1488 c 128,-1,16
 615 1467 615 1467 636 1446 c 128,-1,17
 657 1425 657 1425 678 1410.5 c 128,-1,18
 699 1396 699 1396 718 1396 c 0,19,20
 781 1396 781 1396 783 1524 c 1,21,-1
 924 1524 l 1,22,23
 924 1403 924 1403 868 1330.5 c 128,-1,24
 812 1258 812 1258 724 1258 c 0,0,1
586 -16 m 0,25,26
 344 -16 344 -16 202 135 c 128,-1,27
 60 286 60 286 60 547 c 0,28,29
 60 805 60 805 202.5 956.5 c 128,-1,30
 345 1108 345 1108 586 1108 c 0,31,32
 828 1108 828 1108 970.5 957 c 128,-1,33
 1113 806 1113 806 1113 547 c 0,34,35
 1113 286 1113 286 971 135 c 128,-1,36
 829 -16 829 -16 586 -16 c 0,25,26
586 183 m 0,37,38
 715 183 715 183 787.5 278.5 c 128,-1,39
 860 374 860 374 860 546 c 0,40,41
 860 717 860 717 787.5 813 c 128,-1,42
 715 909 715 909 586 909 c 0,43,44
 458 909 458 909 385.5 813 c 128,-1,45
 313 717 313 717 313 546 c 128,-1,46
 313 375 313 375 385.5 279 c 128,-1,47
 458 183 458 183 586 183 c 0,37,38
EndSplineSet
EndChar

StartChar: odieresis
Encoding: 246 246 182
Width: 1173
GlyphClass: 2
Flags: W
LayerCount: 2
Fore
SplineSet
381 1259 m 128,-1,1
 328 1259 328 1259 291 1295.5 c 128,-1,2
 254 1332 254 1332 254 1383 c 0,3,4
 254 1435 254 1435 291 1471.5 c 128,-1,5
 328 1508 328 1508 381 1508 c 128,-1,6
 434 1508 434 1508 471 1471.5 c 128,-1,7
 508 1435 508 1435 508 1383 c 0,8,9
 508 1332 508 1332 471 1295.5 c 128,-1,0
 434 1259 434 1259 381 1259 c 128,-1,1
791 1259 m 128,-1,11
 738 1259 738 1259 701 1295.5 c 128,-1,12
 664 1332 664 1332 664 1383 c 0,13,14
 664 1435 664 1435 701 1471.5 c 128,-1,15
 738 1508 738 1508 791 1508 c 128,-1,16
 844 1508 844 1508 880.5 1471.5 c 128,-1,17
 917 1435 917 1435 917 1383 c 0,18,19
 917 1332 917 1332 880.5 1295.5 c 128,-1,10
 844 1259 844 1259 791 1259 c 128,-1,11
586 -16 m 0,20,21
 344 -16 344 -16 202 135 c 128,-1,22
 60 286 60 286 60 547 c 0,23,24
 60 805 60 805 202.5 956.5 c 128,-1,25
 345 1108 345 1108 586 1108 c 0,26,27
 828 1108 828 1108 970.5 957 c 128,-1,28
 1113 806 1113 806 1113 547 c 0,29,30
 1113 286 1113 286 971 135 c 128,-1,31
 829 -16 829 -16 586 -16 c 0,20,21
586 183 m 0,32,33
 715 183 715 183 787.5 278.5 c 128,-1,34
 860 374 860 374 860 546 c 0,35,36
 860 717 860 717 787.5 813 c 128,-1,37
 715 909 715 909 586 909 c 0,38,39
 458 909 458 909 385.5 813 c 128,-1,40
 313 717 313 717 313 546 c 128,-1,41
 313 375 313 375 385.5 279 c 128,-1,42
 458 183 458 183 586 183 c 0,32,33
EndSplineSet
EndChar

StartChar: divide
Encoding: 247 247 183
Width: 1294
GlyphClass: 2
Flags: W
LayerCount: 2
Fore
SplineSet
648 807 m 0,0,1
 581 807 581 807 538.5 847.5 c 128,-1,2
 496 888 496 888 496 953 c 128,-1,3
 496 1018 496 1018 538.5 1058.5 c 128,-1,4
 581 1099 581 1099 648 1099 c 0,5,6
 714 1099 714 1099 756.5 1058 c 128,-1,7
 799 1017 799 1017 799 953 c 128,-1,8
 799 889 799 889 756.5 848 c 128,-1,9
 714 807 714 807 648 807 c 0,0,1
648 52 m 0,10,11
 581 52 581 52 538.5 92.5 c 128,-1,12
 496 133 496 133 496 198 c 128,-1,13
 496 263 496 263 538.5 304 c 128,-1,14
 581 345 581 345 648 345 c 0,15,16
 714 345 714 345 756.5 303.5 c 128,-1,17
 799 262 799 262 799 198 c 128,-1,18
 799 134 799 134 756.5 93 c 128,-1,19
 714 52 714 52 648 52 c 0,10,11
1175 479 m 1,20,-1
 119 479 l 1,21,-1
 119 672 l 1,22,-1
 1175 672 l 1,23,-1
 1175 479 l 1,20,-1
EndSplineSet
Substitution2: "'case' Case-Sensitive Forms in Latin lookup 4 subtable" divide.uc
EndChar

StartChar: oslash
Encoding: 248 248 184
Width: 1173
GlyphClass: 2
Flags: W
LayerCount: 2
Fore
SplineSet
812 774 m 1,0,-1
 453 218 l 1,1,2
 511 183 511 183 586 183 c 0,3,4
 715 183 715 183 787.5 278.5 c 128,-1,5
 860 374 860 374 860 546 c 0,6,7
 860 683 860 683 812 774 c 1,0,-1
366 309 m 1,8,-1
 729 868 l 1,9,10
 668 909 668 909 586 909 c 0,11,12
 458 909 458 909 385.5 813 c 128,-1,13
 313 717 313 717 313 546 c 0,14,15
 313 403 313 403 366 309 c 1,8,-1
1015 1089 m 1,16,-1
 946 981 l 1,17,18
 1113 828 1113 828 1113 547 c 0,19,20
 1113 286 1113 286 971 135 c 128,-1,21
 829 -16 829 -16 586 -16 c 0,22,23
 445 -16 445 -16 336 37 c 1,24,-1
 275 -58 l 1,25,-1
 171 8 l 1,26,-1
 234 104 l 1,27,28
 60 256 60 256 60 547 c 0,29,30
 60 805 60 805 202.5 956.5 c 128,-1,31
 345 1108 345 1108 586 1108 c 0,32,33
 733 1108 733 1108 847 1050 c 1,34,-1
 911 1149 l 1,35,-1
 1015 1089 l 1,16,-1
EndSplineSet
EndChar

StartChar: ugrave
Encoding: 249 249 185
Width: 1194
GlyphClass: 2
Flags: W
LayerCount: 2
Fore
SplineSet
694 1258 m 1,0,-1
 493 1258 l 1,1,-1
 231 1565 l 1,2,-1
 477 1565 l 1,3,-1
 694 1258 l 1,0,-1
1088 1093 m 1,4,-1
 1088 0 l 1,5,-1
 849 0 l 1,6,-1
 849 191 l 1,7,-1
 843 191 l 1,8,9
 798 91 798 91 708.5 38.5 c 128,-1,10
 619 -14 619 -14 495 -14 c 0,11,12
 315 -14 315 -14 208 95 c 128,-1,13
 101 204 101 204 101 392 c 2,14,-1
 101 1093 l 1,15,-1
 350 1093 l 1,16,-1
 350 442 l 2,17,18
 350 324 350 324 411.5 260.5 c 128,-1,19
 473 197 473 197 584 197 c 0,20,21
 698 197 698 197 768.5 271 c 128,-1,22
 839 345 839 345 839 466 c 2,23,-1
 839 1093 l 1,24,-1
 1088 1093 l 1,4,-1
EndSplineSet
EndChar

StartChar: uacute
Encoding: 250 250 186
Width: 1194
GlyphClass: 2
Flags: W
LayerCount: 2
Fore
SplineSet
693 1258 m 1,0,-1
 492 1258 l 1,1,-1
 710 1565 l 1,2,-1
 955 1565 l 1,3,-1
 693 1258 l 1,0,-1
1088 1093 m 1,4,-1
 1088 0 l 1,5,-1
 849 0 l 1,6,-1
 849 191 l 1,7,-1
 843 191 l 1,8,9
 798 91 798 91 708.5 38.5 c 128,-1,10
 619 -14 619 -14 495 -14 c 0,11,12
 315 -14 315 -14 208 95 c 128,-1,13
 101 204 101 204 101 392 c 2,14,-1
 101 1093 l 1,15,-1
 350 1093 l 1,16,-1
 350 442 l 2,17,18
 350 324 350 324 411.5 260.5 c 128,-1,19
 473 197 473 197 584 197 c 0,20,21
 698 197 698 197 768.5 271 c 128,-1,22
 839 345 839 345 839 466 c 2,23,-1
 839 1093 l 1,24,-1
 1088 1093 l 1,4,-1
EndSplineSet
EndChar

StartChar: ucircumflex
Encoding: 251 251 187
Width: 1194
GlyphClass: 2
Flags: W
LayerCount: 2
Fore
SplineSet
687 1563 m 1,0,-1
 957 1252 l 1,1,-1
 755 1252 l 1,2,-1
 598 1444 l 1,3,-1
 591 1444 l 1,4,-1
 434 1252 l 1,5,-1
 232 1252 l 1,6,-1
 502 1563 l 1,7,-1
 687 1563 l 1,0,-1
1088 1093 m 1,8,-1
 1088 0 l 1,9,-1
 849 0 l 1,10,-1
 849 191 l 1,11,-1
 843 191 l 1,12,13
 798 91 798 91 708.5 38.5 c 128,-1,14
 619 -14 619 -14 495 -14 c 0,15,16
 315 -14 315 -14 208 95 c 128,-1,17
 101 204 101 204 101 392 c 2,18,-1
 101 1093 l 1,19,-1
 350 1093 l 1,20,-1
 350 442 l 2,21,22
 350 324 350 324 411.5 260.5 c 128,-1,23
 473 197 473 197 584 197 c 0,24,25
 698 197 698 197 768.5 271 c 128,-1,26
 839 345 839 345 839 466 c 2,27,-1
 839 1093 l 1,28,-1
 1088 1093 l 1,8,-1
EndSplineSet
EndChar

StartChar: udieresis
Encoding: 252 252 188
Width: 1194
GlyphClass: 2
Flags: W
LayerCount: 2
Fore
SplineSet
1088 1093 m 1,0,-1
 1088 0 l 1,1,-1
 849 0 l 1,2,-1
 849 191 l 1,3,-1
 843 191 l 1,4,5
 798 91 798 91 708.5 38.5 c 128,-1,6
 619 -14 619 -14 495 -14 c 0,7,8
 315 -14 315 -14 208 95 c 128,-1,9
 101 204 101 204 101 392 c 2,10,-1
 101 1093 l 1,11,-1
 350 1093 l 1,12,-1
 350 442 l 2,13,14
 350 324 350 324 411.5 260.5 c 128,-1,15
 473 197 473 197 584 197 c 0,16,17
 698 197 698 197 768.5 271 c 128,-1,18
 839 345 839 345 839 466 c 2,19,-1
 839 1093 l 1,20,-1
 1088 1093 l 1,0,-1
390 1259 m 128,-1,22
 337 1259 337 1259 300 1295.5 c 128,-1,23
 263 1332 263 1332 263 1383 c 0,24,25
 263 1435 263 1435 300 1471.5 c 128,-1,26
 337 1508 337 1508 390 1508 c 128,-1,27
 443 1508 443 1508 480 1471.5 c 128,-1,28
 517 1435 517 1435 517 1383 c 0,29,30
 517 1332 517 1332 480 1295.5 c 128,-1,21
 443 1259 443 1259 390 1259 c 128,-1,22
800 1259 m 128,-1,32
 747 1259 747 1259 710 1295.5 c 128,-1,33
 673 1332 673 1332 673 1383 c 0,34,35
 673 1435 673 1435 710 1471.5 c 128,-1,36
 747 1508 747 1508 800 1508 c 128,-1,37
 853 1508 853 1508 889.5 1471.5 c 128,-1,38
 926 1435 926 1435 926 1383 c 0,39,40
 926 1332 926 1332 889.5 1295.5 c 128,-1,31
 853 1259 853 1259 800 1259 c 128,-1,32
EndSplineSet
EndChar

StartChar: yacute
Encoding: 253 253 189
Width: 1096
GlyphClass: 2
Flags: W
LayerCount: 2
Fore
SplineSet
228 -398 m 0,0,1
 155 -398 155 -398 130 -393 c 1,2,-1
 130 -195 l 1,3,4
 149 -199 149 -199 198 -199 c 0,5,6
 278 -199 278 -199 324.5 -165.5 c 128,-1,7
 371 -132 371 -132 394 -55 c 2,8,-1
 408 -4 l 1,9,-1
 17 1093 l 1,10,-1
 288 1093 l 1,11,-1
 550 215 l 1,12,-1
 555 215 l 1,13,-1
 816 1093 l 1,14,-1
 1079 1093 l 1,15,-1
 683 -38 l 2,16,17
 613 -239 613 -239 512.5 -318.5 c 128,-1,18
 412 -398 412 -398 228 -398 c 0,0,1
647 1258 m 1,19,-1
 446 1258 l 1,20,-1
 664 1565 l 1,21,-1
 909 1565 l 1,22,-1
 647 1258 l 1,19,-1
EndSplineSet
EndChar

StartChar: thorn
Encoding: 254 254 190
Width: 1223
GlyphClass: 2
Flags: W
LayerCount: 2
Fore
SplineSet
712 1111 m 0,0,1
 920 1111 920 1111 1040.5 959.5 c 128,-1,2
 1161 808 1161 808 1161 546 c 0,3,4
 1161 286 1161 286 1040.5 134 c 128,-1,5
 920 -18 920 -18 713 -18 c 0,6,7
 596 -18 596 -18 508 30.5 c 128,-1,8
 420 79 420 79 379 166 c 1,9,-1
 362 166 l 1,10,-1
 362 -351 l 1,11,-1
 114 -351 l 1,12,-1
 114 1507 l 1,13,-1
 357 1507 l 1,14,-1
 357 912 l 1,15,-1
 374 912 l 1,16,17
 421 1005 421 1005 510.5 1058 c 128,-1,18
 600 1111 600 1111 712 1111 c 0,0,1
633 188 m 0,19,20
 761 188 761 188 833.5 283 c 128,-1,21
 906 378 906 378 906 546 c 128,-1,22
 906 714 906 714 833.5 809 c 128,-1,23
 761 904 761 904 633 904 c 0,24,25
 506 904 506 904 432 808 c 128,-1,26
 358 712 358 712 358 546 c 128,-1,27
 358 380 358 380 432 284 c 128,-1,28
 506 188 506 188 633 188 c 0,19,20
EndSplineSet
EndChar

StartChar: ydieresis
Encoding: 255 255 191
Width: 1096
GlyphClass: 2
Flags: W
LayerCount: 2
Fore
SplineSet
228 -398 m 0,0,1
 155 -398 155 -398 130 -393 c 1,2,-1
 130 -195 l 1,3,4
 149 -199 149 -199 198 -199 c 0,5,6
 278 -199 278 -199 324.5 -165.5 c 128,-1,7
 371 -132 371 -132 394 -55 c 2,8,-1
 408 -4 l 1,9,-1
 17 1093 l 1,10,-1
 288 1093 l 1,11,-1
 550 215 l 1,12,-1
 555 215 l 1,13,-1
 816 1093 l 1,14,-1
 1079 1093 l 1,15,-1
 683 -38 l 2,16,17
 613 -239 613 -239 512.5 -318.5 c 128,-1,18
 412 -398 412 -398 228 -398 c 0,0,1
344 1259 m 128,-1,20
 291 1259 291 1259 254 1295.5 c 128,-1,21
 217 1332 217 1332 217 1383 c 0,22,23
 217 1435 217 1435 254 1471.5 c 128,-1,24
 291 1508 291 1508 344 1508 c 128,-1,25
 397 1508 397 1508 434 1471.5 c 128,-1,26
 471 1435 471 1435 471 1383 c 0,27,28
 471 1332 471 1332 434 1295.5 c 128,-1,19
 397 1259 397 1259 344 1259 c 128,-1,20
754 1259 m 128,-1,30
 701 1259 701 1259 664 1295.5 c 128,-1,31
 627 1332 627 1332 627 1383 c 0,32,33
 627 1435 627 1435 664 1471.5 c 128,-1,34
 701 1508 701 1508 754 1508 c 128,-1,35
 807 1508 807 1508 843.5 1471.5 c 128,-1,36
 880 1435 880 1435 880 1383 c 0,37,38
 880 1332 880 1332 843.5 1295.5 c 128,-1,29
 807 1259 807 1259 754 1259 c 128,-1,30
EndSplineSet
EndChar

StartChar: Amacron
Encoding: 256 256 192
Width: 1369
GlyphClass: 2
Flags: W
LayerCount: 2
Fore
SplineSet
1070 0 m 1,0,-1
 947 373 l 1,1,-1
 416 373 l 1,2,-1
 293 0 l 1,3,-1
 27 0 l 1,4,-1
 539 1443 l 1,5,-1
 830 1443 l 1,6,-1
 1342 0 l 1,7,-1
 1070 0 l 1,0,-1
678 1188 m 1,8,-1
 476 572 l 1,9,-1
 886 572 l 1,10,-1
 685 1188 l 1,11,-1
 678 1188 l 1,8,-1
1019 1760 m 1,12,-1
 1019 1631 l 1,13,-1
 349 1631 l 1,14,-1
 349 1760 l 1,15,-1
 1019 1760 l 1,12,-1
EndSplineSet
EndChar

StartChar: amacron
Encoding: 257 257 193
Width: 1116
GlyphClass: 2
Flags: W
LayerCount: 2
Fore
SplineSet
501 179 m 0,0,1
 615 179 615 179 691 243 c 128,-1,2
 767 307 767 307 767 406 c 2,3,-1
 767 489 l 1,4,-1
 517 473 l 2,5,6
 309 459 309 459 309 323 c 0,7,8
 309 257 309 257 361.5 218 c 128,-1,9
 414 179 414 179 501 179 c 0,0,1
428 -12 m 0,10,11
 266 -12 266 -12 162.5 78 c 128,-1,12
 59 168 59 168 59 313 c 0,13,14
 59 459 59 459 167.5 541 c 128,-1,15
 276 623 276 623 483 636 c 2,16,-1
 767 653 l 1,17,-1
 767 733 l 2,18,19
 767 819 767 819 711.5 865.5 c 128,-1,20
 656 912 656 912 555 912 c 0,21,22
 471 912 471 912 414 872 c 128,-1,23
 357 832 357 832 344 765 c 1,24,-1
 114 765 l 1,25,26
 119 915 119 915 244.5 1011.5 c 128,-1,27
 370 1108 370 1108 563 1108 c 0,28,29
 768 1108 768 1108 890.5 1010 c 128,-1,30
 1013 912 1013 912 1013 749 c 2,31,-1
 1013 0 l 1,32,-1
 774 0 l 1,33,-1
 774 176 l 1,34,-1
 768 176 l 1,35,36
 723 89 723 89 630.5 38.5 c 128,-1,37
 538 -12 538 -12 428 -12 c 0,10,11
887 1436 m 1,38,-1
 887 1306 l 1,39,-1
 231 1306 l 1,40,-1
 231 1436 l 1,41,-1
 887 1436 l 1,38,-1
EndSplineSet
EndChar

StartChar: Abreve
Encoding: 258 258 194
Width: 1369
GlyphClass: 2
Flags: W
LayerCount: 2
Fore
SplineSet
1070 0 m 1,0,-1
 947 373 l 1,1,-1
 416 373 l 1,2,-1
 293 0 l 1,3,-1
 27 0 l 1,4,-1
 539 1443 l 1,5,-1
 830 1443 l 1,6,-1
 1342 0 l 1,7,-1
 1070 0 l 1,0,-1
678 1188 m 1,8,-1
 476 572 l 1,9,-1
 886 572 l 1,10,-1
 685 1188 l 1,11,-1
 678 1188 l 1,8,-1
347 1856 m 1,12,-1
 503 1856 l 1,13,14
 504 1778 504 1778 555 1726.5 c 128,-1,15
 606 1675 606 1675 684 1675 c 128,-1,16
 762 1675 762 1675 813 1726.5 c 128,-1,17
 864 1778 864 1778 865 1856 c 1,18,-1
 1021 1856 l 1,19,20
 1019 1720 1019 1720 927 1633 c 128,-1,21
 835 1546 835 1546 684 1546 c 128,-1,22
 533 1546 533 1546 441 1633 c 128,-1,23
 349 1720 349 1720 347 1856 c 1,12,-1
EndSplineSet
EndChar

StartChar: abreve
Encoding: 259 259 195
Width: 1116
GlyphClass: 2
Flags: W
LayerCount: 2
Fore
SplineSet
501 179 m 0,0,1
 615 179 615 179 691 243 c 128,-1,2
 767 307 767 307 767 406 c 2,3,-1
 767 489 l 1,4,-1
 517 473 l 2,5,6
 309 459 309 459 309 323 c 0,7,8
 309 257 309 257 361.5 218 c 128,-1,9
 414 179 414 179 501 179 c 0,0,1
428 -12 m 0,10,11
 266 -12 266 -12 162.5 78 c 128,-1,12
 59 168 59 168 59 313 c 0,13,14
 59 459 59 459 167.5 541 c 128,-1,15
 276 623 276 623 483 636 c 2,16,-1
 767 653 l 1,17,-1
 767 733 l 2,18,19
 767 819 767 819 711.5 865.5 c 128,-1,20
 656 912 656 912 555 912 c 0,21,22
 471 912 471 912 414 872 c 128,-1,23
 357 832 357 832 344 765 c 1,24,-1
 114 765 l 1,25,26
 119 915 119 915 244.5 1011.5 c 128,-1,27
 370 1108 370 1108 563 1108 c 0,28,29
 768 1108 768 1108 890.5 1010 c 128,-1,30
 1013 912 1013 912 1013 749 c 2,31,-1
 1013 0 l 1,32,-1
 774 0 l 1,33,-1
 774 176 l 1,34,-1
 768 176 l 1,35,36
 723 89 723 89 630.5 38.5 c 128,-1,37
 538 -12 538 -12 428 -12 c 0,10,11
213 1563 m 1,38,-1
 372 1563 l 1,39,40
 373 1484 373 1484 425.5 1430.5 c 128,-1,41
 478 1377 478 1377 558 1377 c 128,-1,42
 638 1377 638 1377 690.5 1430.5 c 128,-1,43
 743 1484 743 1484 744 1563 c 1,44,-1
 903 1563 l 1,45,46
 901 1423 901 1423 807 1334 c 128,-1,47
 713 1245 713 1245 558 1245 c 128,-1,48
 403 1245 403 1245 309 1334 c 128,-1,49
 215 1423 215 1423 213 1563 c 1,38,-1
EndSplineSet
EndChar

StartChar: Aogonek
Encoding: 260 260 196
Width: 1369
GlyphClass: 2
Flags: W
LayerCount: 2
Fore
SplineSet
1212 -445 m 0,0,1
 1104 -445 1104 -445 1035.5 -382 c 128,-1,2
 967 -319 967 -319 967 -219 c 0,3,4
 967 -78 967 -78 1112 15 c 1,5,-1
 1065 15 l 1,6,-1
 947 373 l 1,7,-1
 416 373 l 1,8,-1
 293 0 l 1,9,-1
 27 0 l 1,10,-1
 539 1443 l 1,11,-1
 830 1443 l 1,12,-1
 1339 10 l 1,13,-1
 1305 10 l 1,14,15
 1153 -63 1153 -63 1153 -178 c 0,16,17
 1153 -228 1153 -228 1185.5 -259 c 128,-1,18
 1218 -290 1218 -290 1271 -290 c 0,19,20
 1304 -290 1304 -290 1327 -286 c 1,21,-1
 1327 -431 l 1,22,23
 1284 -445 1284 -445 1212 -445 c 0,0,1
675 1178 m 1,24,-1
 476 572 l 1,25,-1
 886 572 l 1,26,-1
 688 1178 l 1,27,-1
 675 1178 l 1,24,-1
EndSplineSet
EndChar

StartChar: aogonek
Encoding: 261 261 197
Width: 1116
GlyphClass: 2
Flags: W
LayerCount: 2
Fore
SplineSet
903 -445 m 0,0,1
 795 -445 795 -445 728 -384.5 c 128,-1,2
 661 -324 661 -324 661 -226 c 0,3,4
 661 -78 661 -78 819 16 c 1,5,-1
 774 16 l 1,6,-1
 774 176 l 1,7,-1
 768 176 l 1,8,9
 724 90 724 90 631.5 39 c 128,-1,10
 539 -12 539 -12 428 -12 c 0,11,12
 265 -12 265 -12 162 78.5 c 128,-1,13
 59 169 59 169 59 313 c 0,14,15
 59 458 59 458 167.5 540.5 c 128,-1,16
 276 623 276 623 483 636 c 2,17,-1
 767 653 l 1,18,-1
 767 733 l 2,19,20
 767 818 767 818 711.5 865 c 128,-1,21
 656 912 656 912 555 912 c 0,22,23
 472 912 472 912 414.5 872 c 128,-1,24
 357 832 357 832 344 765 c 1,25,-1
 114 765 l 1,26,27
 118 916 118 916 244.5 1012 c 128,-1,28
 371 1108 371 1108 563 1108 c 0,29,30
 767 1108 767 1108 890 1010 c 128,-1,31
 1013 912 1013 912 1013 749 c 2,32,-1
 1013 13 l 1,33,-1
 994 13 l 1,34,35
 844 -59 844 -59 844 -178 c 0,36,37
 844 -229 844 -229 876 -259.5 c 128,-1,38
 908 -290 908 -290 960 -290 c 0,39,40
 992 -290 992 -290 1013 -286 c 1,41,-1
 1013 -431 l 1,42,43
 966 -445 966 -445 903 -445 c 0,0,1
501 179 m 0,44,45
 616 179 616 179 691.5 243.5 c 128,-1,46
 767 308 767 308 767 406 c 2,47,-1
 767 489 l 1,48,-1
 517 473 l 2,49,50
 309 459 309 459 309 323 c 0,51,52
 309 257 309 257 361 218 c 128,-1,53
 413 179 413 179 501 179 c 0,44,45
EndSplineSet
EndChar

StartChar: Cacute
Encoding: 262 262 198
Width: 1439
GlyphClass: 2
Flags: W
LayerCount: 2
Fore
SplineSet
838 1553 m 1,0,-1
 640 1553 l 1,1,-1
 871 1859 l 1,2,-1
 1117 1859 l 1,3,-1
 838 1553 l 1,0,-1
749 -24 m 0,4,5
 439 -24 439 -24 258.5 176 c 128,-1,6
 78 376 78 376 78 722 c 0,7,8
 78 1066 78 1066 259.5 1266.5 c 128,-1,9
 441 1467 441 1467 749 1467 c 0,10,11
 1001 1467 1001 1467 1174 1323.5 c 128,-1,12
 1347 1180 1347 1180 1371 948 c 1,13,-1
 1117 948 l 1,14,15
 1092 1084 1092 1084 990.5 1166 c 128,-1,16
 889 1248 889 1248 749 1248 c 0,17,18
 563 1248 563 1248 452.5 1105.5 c 128,-1,19
 342 963 342 963 342 722 c 0,20,21
 342 479 342 479 452 337 c 128,-1,22
 562 195 562 195 750 195 c 0,23,24
 893 195 893 195 990.5 268.5 c 128,-1,25
 1088 342 1088 342 1118 472 c 1,26,-1
 1371 472 l 1,27,28
 1337 240 1337 240 1171 108 c 128,-1,29
 1005 -24 1005 -24 749 -24 c 0,4,5
EndSplineSet
EndChar

StartChar: cacute
Encoding: 263 263 199
Width: 1112
GlyphClass: 2
Flags: W
LayerCount: 2
Fore
SplineSet
1063 706 m 1,0,-1
 828 706 l 1,1,2
 814 795 814 795 750 850 c 128,-1,3
 686 905 686 905 584 905 c 0,4,5
 461 905 461 905 387 808 c 128,-1,6
 313 711 313 711 313 547 c 0,7,8
 313 379 313 379 387 283 c 128,-1,9
 461 187 461 187 585 187 c 0,10,11
 685 187 685 187 748.5 237 c 128,-1,12
 812 287 812 287 829 380 c 1,13,-1
 1064 380 l 1,14,15
 1048 200 1048 200 917.5 92 c 128,-1,16
 787 -16 787 -16 583 -16 c 0,17,18
 344 -16 344 -16 202 135.5 c 128,-1,19
 60 287 60 287 60 547 c 0,20,21
 60 803 60 803 202 955.5 c 128,-1,22
 344 1108 344 1108 581 1108 c 0,23,24
 790 1108 790 1108 920 994 c 128,-1,25
 1050 880 1050 880 1063 706 c 1,0,-1
671 1258 m 1,26,-1
 470 1258 l 1,27,-1
 688 1565 l 1,28,-1
 933 1565 l 1,29,-1
 671 1258 l 1,26,-1
EndSplineSet
EndChar

StartChar: Ccircumflex
Encoding: 264 264 200
Width: 1439
GlyphClass: 2
Flags: W
LayerCount: 2
Fore
SplineSet
749 -24 m 0,0,1
 439 -24 439 -24 258.5 176 c 128,-1,2
 78 376 78 376 78 722 c 0,3,4
 78 1066 78 1066 259.5 1266.5 c 128,-1,5
 441 1467 441 1467 749 1467 c 0,6,7
 1001 1467 1001 1467 1174 1323.5 c 128,-1,8
 1347 1180 1347 1180 1371 948 c 1,9,-1
 1117 948 l 1,10,11
 1092 1084 1092 1084 990.5 1166 c 128,-1,12
 889 1248 889 1248 749 1248 c 0,13,14
 563 1248 563 1248 452.5 1105.5 c 128,-1,15
 342 963 342 963 342 722 c 0,16,17
 342 479 342 479 452 337 c 128,-1,18
 562 195 562 195 750 195 c 0,19,20
 893 195 893 195 990.5 268.5 c 128,-1,21
 1088 342 1088 342 1118 472 c 1,22,-1
 1371 472 l 1,23,24
 1337 240 1337 240 1171 108 c 128,-1,25
 1005 -24 1005 -24 749 -24 c 0,0,1
643 1857 m 1,26,-1
 839 1857 l 1,27,-1
 1120 1547 l 1,28,-1
 917 1547 l 1,29,-1
 743 1745 l 1,30,-1
 739 1745 l 1,31,-1
 565 1547 l 1,32,-1
 362 1547 l 1,33,-1
 643 1857 l 1,26,-1
EndSplineSet
EndChar

StartChar: ccircumflex
Encoding: 265 265 201
Width: 1112
GlyphClass: 2
Flags: W
LayerCount: 2
Fore
SplineSet
665 1563 m 1,0,-1
 935 1252 l 1,1,-1
 733 1252 l 1,2,-1
 576 1444 l 1,3,-1
 569 1444 l 1,4,-1
 412 1252 l 1,5,-1
 210 1252 l 1,6,-1
 480 1563 l 1,7,-1
 665 1563 l 1,0,-1
1063 706 m 1,8,-1
 828 706 l 1,9,10
 814 795 814 795 750 850 c 128,-1,11
 686 905 686 905 584 905 c 0,12,13
 461 905 461 905 387 808 c 128,-1,14
 313 711 313 711 313 547 c 0,15,16
 313 379 313 379 387 283 c 128,-1,17
 461 187 461 187 585 187 c 0,18,19
 685 187 685 187 748.5 237 c 128,-1,20
 812 287 812 287 829 380 c 1,21,-1
 1064 380 l 1,22,23
 1048 200 1048 200 917.5 92 c 128,-1,24
 787 -16 787 -16 583 -16 c 0,25,26
 344 -16 344 -16 202 135.5 c 128,-1,27
 60 287 60 287 60 547 c 0,28,29
 60 803 60 803 202 955.5 c 128,-1,30
 344 1108 344 1108 581 1108 c 0,31,32
 790 1108 790 1108 920 994 c 128,-1,33
 1050 880 1050 880 1063 706 c 1,8,-1
EndSplineSet
EndChar

StartChar: Cdotaccent
Encoding: 266 266 202
Width: 1439
GlyphClass: 2
Flags: W
LayerCount: 2
Fore
SplineSet
741 1570 m 128,-1,1
 683 1570 683 1570 642.5 1611 c 128,-1,2
 602 1652 602 1652 602 1709 c 0,3,4
 602 1767 602 1767 642.5 1807.5 c 128,-1,5
 683 1848 683 1848 741 1848 c 128,-1,6
 799 1848 799 1848 839.5 1807.5 c 128,-1,7
 880 1767 880 1767 880 1709 c 0,8,9
 880 1652 880 1652 839.5 1611 c 128,-1,0
 799 1570 799 1570 741 1570 c 128,-1,1
749 -24 m 0,10,11
 439 -24 439 -24 258.5 176 c 128,-1,12
 78 376 78 376 78 722 c 0,13,14
 78 1066 78 1066 259.5 1266.5 c 128,-1,15
 441 1467 441 1467 749 1467 c 0,16,17
 1001 1467 1001 1467 1174 1323.5 c 128,-1,18
 1347 1180 1347 1180 1371 948 c 1,19,-1
 1117 948 l 1,20,21
 1092 1084 1092 1084 990.5 1166 c 128,-1,22
 889 1248 889 1248 749 1248 c 0,23,24
 563 1248 563 1248 452.5 1105.5 c 128,-1,25
 342 963 342 963 342 722 c 0,26,27
 342 479 342 479 452 337 c 128,-1,28
 562 195 562 195 750 195 c 0,29,30
 893 195 893 195 990.5 268.5 c 128,-1,31
 1088 342 1088 342 1118 472 c 1,32,-1
 1371 472 l 1,33,34
 1337 240 1337 240 1171 108 c 128,-1,35
 1005 -24 1005 -24 749 -24 c 0,10,11
EndSplineSet
EndChar

StartChar: cdotaccent
Encoding: 267 267 203
Width: 1112
GlyphClass: 2
Flags: W
LayerCount: 2
Fore
SplineSet
1063 706 m 1,0,-1
 828 706 l 1,1,2
 814 795 814 795 750 850 c 128,-1,3
 686 905 686 905 584 905 c 0,4,5
 461 905 461 905 387 808 c 128,-1,6
 313 711 313 711 313 547 c 0,7,8
 313 379 313 379 387 283 c 128,-1,9
 461 187 461 187 585 187 c 0,10,11
 685 187 685 187 748.5 237 c 128,-1,12
 812 287 812 287 829 380 c 1,13,-1
 1064 380 l 1,14,15
 1048 200 1048 200 917.5 92 c 128,-1,16
 787 -16 787 -16 583 -16 c 0,17,18
 344 -16 344 -16 202 135.5 c 128,-1,19
 60 287 60 287 60 547 c 0,20,21
 60 803 60 803 202 955.5 c 128,-1,22
 344 1108 344 1108 581 1108 c 0,23,24
 790 1108 790 1108 920 994 c 128,-1,25
 1050 880 1050 880 1063 706 c 1,0,-1
573 1262 m 0,26,27
 514 1262 514 1262 473 1303 c 128,-1,28
 432 1344 432 1344 432 1402 c 0,29,30
 432 1459 432 1459 473 1500 c 128,-1,31
 514 1541 514 1541 573 1541 c 0,32,33
 631 1541 631 1541 672 1500 c 128,-1,34
 713 1459 713 1459 713 1402 c 0,35,36
 713 1344 713 1344 672 1303 c 128,-1,37
 631 1262 631 1262 573 1262 c 0,26,27
EndSplineSet
EndChar

StartChar: Ccaron
Encoding: 268 268 204
Width: 1439
GlyphClass: 2
Flags: W
LayerCount: 2
Fore
SplineSet
749 -24 m 0,0,1
 439 -24 439 -24 258.5 176 c 128,-1,2
 78 376 78 376 78 722 c 0,3,4
 78 1066 78 1066 259.5 1266.5 c 128,-1,5
 441 1467 441 1467 749 1467 c 0,6,7
 1001 1467 1001 1467 1174 1323.5 c 128,-1,8
 1347 1180 1347 1180 1371 948 c 1,9,-1
 1117 948 l 1,10,11
 1092 1084 1092 1084 990.5 1166 c 128,-1,12
 889 1248 889 1248 749 1248 c 0,13,14
 563 1248 563 1248 452.5 1105.5 c 128,-1,15
 342 963 342 963 342 722 c 0,16,17
 342 479 342 479 452 337 c 128,-1,18
 562 195 562 195 750 195 c 0,19,20
 893 195 893 195 990.5 268.5 c 128,-1,21
 1088 342 1088 342 1118 472 c 1,22,-1
 1371 472 l 1,23,24
 1337 240 1337 240 1171 108 c 128,-1,25
 1005 -24 1005 -24 749 -24 c 0,0,1
643 1547 m 1,26,-1
 362 1857 l 1,27,-1
 565 1857 l 1,28,-1
 739 1659 l 1,29,-1
 743 1659 l 1,30,-1
 917 1857 l 1,31,-1
 1120 1857 l 1,32,-1
 839 1547 l 1,33,-1
 643 1547 l 1,26,-1
EndSplineSet
EndChar

StartChar: ccaron
Encoding: 269 269 205
Width: 1112
GlyphClass: 2
Flags: W
LayerCount: 2
Fore
SplineSet
665 1252 m 1,0,-1
 480 1252 l 1,1,-1
 210 1563 l 1,2,-1
 412 1563 l 1,3,-1
 569 1372 l 1,4,-1
 576 1372 l 1,5,-1
 733 1563 l 1,6,-1
 935 1563 l 1,7,-1
 665 1252 l 1,0,-1
1063 706 m 1,8,-1
 828 706 l 1,9,10
 814 795 814 795 750 850 c 128,-1,11
 686 905 686 905 584 905 c 0,12,13
 461 905 461 905 387 808 c 128,-1,14
 313 711 313 711 313 547 c 0,15,16
 313 379 313 379 387 283 c 128,-1,17
 461 187 461 187 585 187 c 0,18,19
 685 187 685 187 748.5 237 c 128,-1,20
 812 287 812 287 829 380 c 1,21,-1
 1064 380 l 1,22,23
 1048 200 1048 200 917.5 92 c 128,-1,24
 787 -16 787 -16 583 -16 c 0,25,26
 344 -16 344 -16 202 135.5 c 128,-1,27
 60 287 60 287 60 547 c 0,28,29
 60 803 60 803 202 955.5 c 128,-1,30
 344 1108 344 1108 581 1108 c 0,31,32
 790 1108 790 1108 920 994 c 128,-1,33
 1050 880 1050 880 1063 706 c 1,8,-1
EndSplineSet
EndChar

StartChar: Dcaron
Encoding: 270 270 206
Width: 1424
GlyphClass: 2
Flags: W
LayerCount: 2
Fore
SplineSet
512 1546 m 1,0,-1
 231 1856 l 1,1,-1
 434 1856 l 1,2,-1
 608 1658 l 1,3,-1
 612 1658 l 1,4,-1
 786 1856 l 1,5,-1
 989 1856 l 1,6,-1
 708 1546 l 1,7,-1
 512 1546 l 1,0,-1
127 1443 m 1,8,-1
 661 1443 l 2,9,10
 985 1443 985 1443 1166 1255 c 128,-1,11
 1347 1067 1347 1067 1347 725 c 0,12,13
 1347 382 1347 382 1166 191 c 128,-1,14
 985 0 985 0 661 0 c 2,15,-1
 127 0 l 1,16,-1
 127 1443 l 1,8,-1
385 1225 m 1,17,-1
 385 218 l 1,18,-1
 634 218 l 2,19,20
 852 218 852 218 968 348 c 128,-1,21
 1084 478 1084 478 1084 724 c 0,22,23
 1084 966 1084 966 967 1095.5 c 128,-1,24
 850 1225 850 1225 634 1225 c 2,25,-1
 385 1225 l 1,17,-1
EndSplineSet
EndChar

StartChar: dcaron
Encoding: 271 271 207
Width: 1397
GlyphClass: 2
Flags: W
LayerCount: 2
Fore
SplineSet
1260 1507 m 1,0,-1
 1449 1507 l 1,1,-1
 1413 1009 l 1,2,-1
 1260 1009 l 1,3,-1
 1260 1507 l 1,0,-1
515 -12 m 0,4,5
 310 -12 310 -12 185 140.5 c 128,-1,6
 60 293 60 293 60 547 c 0,7,8
 60 800 60 800 185 952.5 c 128,-1,9
 310 1105 310 1105 514 1105 c 0,10,11
 631 1105 631 1105 720 1053 c 128,-1,12
 809 1001 809 1001 854 909 c 1,13,-1
 860 909 l 1,14,-1
 860 1510 l 1,15,-1
 1109 1510 l 1,16,-1
 1109 0 l 1,17,-1
 865 0 l 1,18,-1
 865 186 l 1,19,-1
 860 186 l 1,20,21
 815 94 815 94 724.5 41 c 128,-1,22
 634 -12 634 -12 515 -12 c 0,4,5
588 898 m 0,23,24
 464 898 464 898 389.5 802 c 128,-1,25
 315 706 315 706 315 546 c 0,26,27
 315 385 315 385 389.5 290 c 128,-1,28
 464 195 464 195 588 195 c 128,-1,29
 712 195 712 195 786.5 291 c 128,-1,30
 861 387 861 387 861 546 c 0,31,32
 861 704 861 704 786 801 c 128,-1,33
 711 898 711 898 588 898 c 0,23,24
EndSplineSet
EndChar

StartChar: Dcroat
Encoding: 272 272 208
Width: 1522
GlyphClass: 2
Flags: W
LayerCount: 2
Fore
SplineSet
447 218 m 1,0,-1
 696 218 l 2,1,2
 914 218 914 218 1030 348 c 128,-1,3
 1146 478 1146 478 1146 724 c 0,4,5
 1146 966 1146 966 1029 1095.5 c 128,-1,6
 912 1225 912 1225 696 1225 c 2,7,-1
 447 1225 l 1,8,-1
 447 837 l 1,9,-1
 716 837 l 1,10,-1
 716 637 l 1,11,-1
 447 637 l 1,12,-1
 447 218 l 1,0,-1
189 1443 m 1,13,-1
 723 1443 l 2,14,15
 1047 1443 1047 1443 1228 1255 c 128,-1,16
 1409 1067 1409 1067 1409 725 c 0,17,18
 1409 382 1409 382 1228 191 c 128,-1,19
 1047 0 1047 0 723 0 c 2,20,-1
 189 0 l 1,21,-1
 189 637 l 1,22,-1
 87 637 l 1,23,-1
 87 837 l 1,24,-1
 189 837 l 1,25,-1
 189 1443 l 1,13,-1
EndSplineSet
EndChar

StartChar: dcroat
Encoding: 273 273 209
Width: 1264
GlyphClass: 2
Flags: W
LayerCount: 2
Fore
SplineSet
609 188 m 128,-1,1
 737 188 737 188 810.5 283.5 c 128,-1,2
 884 379 884 379 884 546 c 0,3,4
 884 711 884 711 810 807.5 c 128,-1,5
 736 904 736 904 609 904 c 0,6,7
 481 904 481 904 408.5 809 c 128,-1,8
 336 714 336 714 336 546 c 128,-1,9
 336 378 336 378 408.5 283 c 128,-1,0
 481 188 481 188 609 188 c 128,-1,1
1233 1412 m 1,10,-1
 1233 1271 l 1,11,-1
 1128 1271 l 1,12,-1
 1128 0 l 1,13,-1
 886 0 l 1,14,-1
 886 173 l 1,15,-1
 869 173 l 1,16,17
 822 83 822 83 733 32.5 c 128,-1,18
 644 -18 644 -18 530 -18 c 0,19,20
 323 -18 323 -18 202 134 c 128,-1,21
 81 286 81 286 81 547 c 0,22,23
 81 806 81 806 203 958.5 c 128,-1,24
 325 1111 325 1111 532 1111 c 0,25,26
 644 1111 644 1111 732 1059.5 c 128,-1,27
 820 1008 820 1008 864 919 c 1,28,-1
 880 919 l 1,29,-1
 880 1271 l 1,30,-1
 644 1271 l 1,31,-1
 644 1412 l 1,32,-1
 880 1412 l 1,33,-1
 880 1559 l 1,34,-1
 1128 1559 l 1,35,-1
 1128 1412 l 1,36,-1
 1233 1412 l 1,10,-1
EndSplineSet
EndChar

StartChar: Emacron
Encoding: 274 274 210
Width: 1158
GlyphClass: 2
Flags: W
LayerCount: 2
Fore
SplineSet
1061 218 m 1,0,-1
 1061 0 l 1,1,-1
 127 0 l 1,2,-1
 127 1443 l 1,3,-1
 1061 1443 l 1,4,-1
 1061 1225 l 1,5,-1
 385 1225 l 1,6,-1
 385 835 l 1,7,-1
 1024 835 l 1,8,-1
 1024 630 l 1,9,-1
 385 630 l 1,10,-1
 385 218 l 1,11,-1
 1061 218 l 1,0,-1
929 1760 m 1,12,-1
 929 1631 l 1,13,-1
 259 1631 l 1,14,-1
 259 1760 l 1,15,-1
 929 1760 l 1,12,-1
EndSplineSet
EndChar

StartChar: emacron
Encoding: 275 275 211
Width: 1135
GlyphClass: 2
Flags: W
LayerCount: 2
Fore
SplineSet
574 914 m 0,0,1
 465 914 465 914 392 841.5 c 128,-1,2
 319 769 319 769 311 652 c 1,3,-1
 829 652 l 1,4,5
 825 770 825 770 755 842 c 128,-1,6
 685 914 685 914 574 914 c 0,0,1
830 325 m 1,7,-1
 1064 325 l 1,8,9
 1040 173 1040 173 907 78.5 c 128,-1,10
 774 -16 774 -16 583 -16 c 0,11,12
 341 -16 341 -16 200.5 134 c 128,-1,13
 60 284 60 284 60 542 c 128,-1,14
 60 800 60 800 199.5 954 c 128,-1,15
 339 1108 339 1108 574 1108 c 0,16,17
 804 1108 804 1108 939 962 c 128,-1,18
 1074 816 1074 816 1074 568 c 2,19,-1
 1074 486 l 1,20,-1
 309 486 l 1,21,-1
 309 471 l 2,22,23
 309 339 309 339 386 258.5 c 128,-1,24
 463 178 463 178 588 178 c 0,25,26
 678 178 678 178 743 217.5 c 128,-1,27
 808 257 808 257 830 325 c 1,7,-1
901 1436 m 1,28,-1
 901 1306 l 1,29,-1
 245 1306 l 1,30,-1
 245 1436 l 1,31,-1
 901 1436 l 1,28,-1
EndSplineSet
EndChar

StartChar: Ebreve
Encoding: 276 276 212
Width: 1158
GlyphClass: 2
Flags: W
LayerCount: 2
Fore
SplineSet
1061 218 m 1,0,-1
 1061 0 l 1,1,-1
 127 0 l 1,2,-1
 127 1443 l 1,3,-1
 1061 1443 l 1,4,-1
 1061 1225 l 1,5,-1
 385 1225 l 1,6,-1
 385 835 l 1,7,-1
 1024 835 l 1,8,-1
 1024 630 l 1,9,-1
 385 630 l 1,10,-1
 385 218 l 1,11,-1
 1061 218 l 1,0,-1
257 1856 m 1,12,-1
 413 1856 l 1,13,14
 414 1778 414 1778 465 1726.5 c 128,-1,15
 516 1675 516 1675 594 1675 c 128,-1,16
 672 1675 672 1675 723 1726.5 c 128,-1,17
 774 1778 774 1778 775 1856 c 1,18,-1
 931 1856 l 1,19,20
 929 1720 929 1720 837 1633 c 128,-1,21
 745 1546 745 1546 594 1546 c 128,-1,22
 443 1546 443 1546 351 1633 c 128,-1,23
 259 1720 259 1720 257 1856 c 1,12,-1
EndSplineSet
EndChar

StartChar: ebreve
Encoding: 277 277 213
Width: 1135
GlyphClass: 2
Flags: W
LayerCount: 2
Fore
SplineSet
574 914 m 0,0,1
 465 914 465 914 392 841.5 c 128,-1,2
 319 769 319 769 311 652 c 1,3,-1
 829 652 l 1,4,5
 825 770 825 770 755 842 c 128,-1,6
 685 914 685 914 574 914 c 0,0,1
830 325 m 1,7,-1
 1064 325 l 1,8,9
 1040 173 1040 173 907 78.5 c 128,-1,10
 774 -16 774 -16 583 -16 c 0,11,12
 341 -16 341 -16 200.5 134 c 128,-1,13
 60 284 60 284 60 542 c 128,-1,14
 60 800 60 800 199.5 954 c 128,-1,15
 339 1108 339 1108 574 1108 c 0,16,17
 804 1108 804 1108 939 962 c 128,-1,18
 1074 816 1074 816 1074 568 c 2,19,-1
 1074 486 l 1,20,-1
 309 486 l 1,21,-1
 309 471 l 2,22,23
 309 339 309 339 386 258.5 c 128,-1,24
 463 178 463 178 588 178 c 0,25,26
 678 178 678 178 743 217.5 c 128,-1,27
 808 257 808 257 830 325 c 1,7,-1
227 1563 m 1,28,-1
 386 1563 l 1,29,30
 387 1484 387 1484 439.5 1430.5 c 128,-1,31
 492 1377 492 1377 572 1377 c 128,-1,32
 652 1377 652 1377 704.5 1430.5 c 128,-1,33
 757 1484 757 1484 758 1563 c 1,34,-1
 917 1563 l 1,35,36
 915 1423 915 1423 821 1334 c 128,-1,37
 727 1245 727 1245 572 1245 c 128,-1,38
 417 1245 417 1245 323 1334 c 128,-1,39
 229 1423 229 1423 227 1563 c 1,28,-1
EndSplineSet
EndChar

StartChar: Edotaccent
Encoding: 278 278 214
Width: 1158
GlyphClass: 2
Flags: W
LayerCount: 2
Fore
SplineSet
594 1569 m 128,-1,1
 536 1569 536 1569 495.5 1610 c 128,-1,2
 455 1651 455 1651 455 1708 c 0,3,4
 455 1766 455 1766 495.5 1806.5 c 128,-1,5
 536 1847 536 1847 594 1847 c 128,-1,6
 652 1847 652 1847 692.5 1806.5 c 128,-1,7
 733 1766 733 1766 733 1708 c 0,8,9
 733 1651 733 1651 692.5 1610 c 128,-1,0
 652 1569 652 1569 594 1569 c 128,-1,1
1061 218 m 1,10,-1
 1061 0 l 1,11,-1
 127 0 l 1,12,-1
 127 1443 l 1,13,-1
 1061 1443 l 1,14,-1
 1061 1225 l 1,15,-1
 385 1225 l 1,16,-1
 385 835 l 1,17,-1
 1024 835 l 1,18,-1
 1024 630 l 1,19,-1
 385 630 l 1,20,-1
 385 218 l 1,21,-1
 1061 218 l 1,10,-1
EndSplineSet
EndChar

StartChar: edotaccent
Encoding: 279 279 215
Width: 1135
GlyphClass: 2
Flags: W
LayerCount: 2
Fore
SplineSet
573 1262 m 0,0,1
 514 1262 514 1262 473 1303 c 128,-1,2
 432 1344 432 1344 432 1402 c 0,3,4
 432 1459 432 1459 473 1500 c 128,-1,5
 514 1541 514 1541 573 1541 c 0,6,7
 631 1541 631 1541 672 1500 c 128,-1,8
 713 1459 713 1459 713 1402 c 0,9,10
 713 1344 713 1344 672 1303 c 128,-1,11
 631 1262 631 1262 573 1262 c 0,0,1
574 914 m 0,12,13
 465 914 465 914 392 841.5 c 128,-1,14
 319 769 319 769 311 652 c 1,15,-1
 829 652 l 1,16,17
 825 770 825 770 755 842 c 128,-1,18
 685 914 685 914 574 914 c 0,12,13
830 325 m 1,19,-1
 1064 325 l 1,20,21
 1040 173 1040 173 907 78.5 c 128,-1,22
 774 -16 774 -16 583 -16 c 0,23,24
 341 -16 341 -16 200.5 134 c 128,-1,25
 60 284 60 284 60 542 c 128,-1,26
 60 800 60 800 199.5 954 c 128,-1,27
 339 1108 339 1108 574 1108 c 0,28,29
 804 1108 804 1108 939 962 c 128,-1,30
 1074 816 1074 816 1074 568 c 2,31,-1
 1074 486 l 1,32,-1
 309 486 l 1,33,-1
 309 471 l 2,34,35
 309 339 309 339 386 258.5 c 128,-1,36
 463 178 463 178 588 178 c 0,37,38
 678 178 678 178 743 217.5 c 128,-1,39
 808 257 808 257 830 325 c 1,19,-1
EndSplineSet
EndChar

StartChar: Eogonek
Encoding: 280 280 216
Width: 1158
GlyphClass: 2
Flags: W
LayerCount: 2
Fore
SplineSet
817 0 m 1,0,-1
 127 0 l 1,1,-1
 127 1443 l 1,2,-1
 1061 1443 l 1,3,-1
 1061 1225 l 1,4,-1
 385 1225 l 1,5,-1
 385 835 l 1,6,-1
 1024 835 l 1,7,-1
 1024 630 l 1,8,-1
 385 630 l 1,9,-1
 385 218 l 1,10,-1
 1061 218 l 1,11,-1
 1061 32 l 1,12,13
 868 -55 868 -55 868 -184 c 0,14,15
 868 -232 868 -232 901 -261 c 128,-1,16
 934 -290 934 -290 988 -290 c 0,17,18
 1036 -290 1036 -290 1061 -282 c 1,19,-1
 1061 -424 l 1,20,21
 1019 -445 1019 -445 929 -445 c 0,22,23
 816 -445 816 -445 748 -386.5 c 128,-1,24
 680 -328 680 -328 680 -230 c 0,25,26
 680 -93 680 -93 817 0 c 1,0,-1
EndSplineSet
EndChar

StartChar: eogonek
Encoding: 281 281 217
Width: 1135
GlyphClass: 2
Flags: W
LayerCount: 2
Fore
SplineSet
758 -447 m 0,0,1
 653 -447 653 -447 586.5 -387 c 128,-1,2
 520 -327 520 -327 520 -233 c 0,3,4
 520 -169 520 -169 547 -117 c 128,-1,5
 574 -65 574 -65 634 -15 c 1,6,-1
 634 -13 l 1,7,8
 614 -16 614 -16 583 -16 c 0,9,10
 341 -16 341 -16 200.5 134 c 128,-1,11
 60 284 60 284 60 542 c 128,-1,12
 60 800 60 800 199.5 954 c 128,-1,13
 339 1108 339 1108 574 1108 c 0,14,15
 804 1108 804 1108 939 962 c 128,-1,16
 1074 816 1074 816 1074 568 c 2,17,-1
 1074 486 l 1,18,-1
 309 486 l 1,19,-1
 309 471 l 2,20,21
 309 339 309 339 386 258.5 c 128,-1,22
 463 178 463 178 588 178 c 0,23,24
 678 178 678 178 743 217.5 c 128,-1,25
 808 257 808 257 830 325 c 1,26,-1
 1064 325 l 1,27,28
 1053 246 1053 246 1003 178.5 c 128,-1,29
 953 111 953 111 864 38 c 0,30,31
 780 -30 780 -30 741 -80 c 128,-1,32
 702 -130 702 -130 702 -183 c 0,33,34
 702 -229 702 -229 734 -258 c 128,-1,35
 766 -287 766 -287 816 -287 c 0,36,37
 860 -287 860 -287 890 -278 c 1,38,-1
 890 -426 l 1,39,40
 851 -447 851 -447 758 -447 c 0,0,1
574 914 m 0,41,42
 465 914 465 914 392 841.5 c 128,-1,43
 319 769 319 769 311 652 c 1,44,-1
 829 652 l 1,45,46
 825 770 825 770 755 842 c 128,-1,47
 685 914 685 914 574 914 c 0,41,42
EndSplineSet
EndChar

StartChar: Ecaron
Encoding: 282 282 218
Width: 1158
GlyphClass: 2
Flags: W
LayerCount: 2
Fore
SplineSet
496 1546 m 1,0,-1
 215 1856 l 1,1,-1
 418 1856 l 1,2,-1
 592 1658 l 1,3,-1
 596 1658 l 1,4,-1
 770 1856 l 1,5,-1
 973 1856 l 1,6,-1
 692 1546 l 1,7,-1
 496 1546 l 1,0,-1
1061 218 m 1,8,-1
 1061 0 l 1,9,-1
 127 0 l 1,10,-1
 127 1443 l 1,11,-1
 1061 1443 l 1,12,-1
 1061 1225 l 1,13,-1
 385 1225 l 1,14,-1
 385 835 l 1,15,-1
 1024 835 l 1,16,-1
 1024 630 l 1,17,-1
 385 630 l 1,18,-1
 385 218 l 1,19,-1
 1061 218 l 1,8,-1
EndSplineSet
EndChar

StartChar: ecaron
Encoding: 283 283 219
Width: 1135
GlyphClass: 2
Flags: W
LayerCount: 2
Fore
SplineSet
665 1252 m 1,0,-1
 480 1252 l 1,1,-1
 210 1563 l 1,2,-1
 412 1563 l 1,3,-1
 569 1372 l 1,4,-1
 576 1372 l 1,5,-1
 733 1563 l 1,6,-1
 935 1563 l 1,7,-1
 665 1252 l 1,0,-1
574 914 m 0,8,9
 465 914 465 914 392 841.5 c 128,-1,10
 319 769 319 769 311 652 c 1,11,-1
 829 652 l 1,12,13
 825 770 825 770 755 842 c 128,-1,14
 685 914 685 914 574 914 c 0,8,9
830 325 m 1,15,-1
 1064 325 l 1,16,17
 1040 173 1040 173 907 78.5 c 128,-1,18
 774 -16 774 -16 583 -16 c 0,19,20
 341 -16 341 -16 200.5 134 c 128,-1,21
 60 284 60 284 60 542 c 128,-1,22
 60 800 60 800 199.5 954 c 128,-1,23
 339 1108 339 1108 574 1108 c 0,24,25
 804 1108 804 1108 939 962 c 128,-1,26
 1074 816 1074 816 1074 568 c 2,27,-1
 1074 486 l 1,28,-1
 309 486 l 1,29,-1
 309 471 l 2,30,31
 309 339 309 339 386 258.5 c 128,-1,32
 463 178 463 178 588 178 c 0,33,34
 678 178 678 178 743 217.5 c 128,-1,35
 808 257 808 257 830 325 c 1,15,-1
EndSplineSet
EndChar

StartChar: Gcircumflex
Encoding: 284 284 220
Width: 1473
GlyphClass: 2
Flags: W
LayerCount: 2
Fore
SplineSet
650 1856 m 1,0,-1
 846 1856 l 1,1,-1
 1127 1546 l 1,2,-1
 924 1546 l 1,3,-1
 750 1744 l 1,4,-1
 746 1744 l 1,5,-1
 572 1546 l 1,6,-1
 369 1546 l 1,7,-1
 650 1856 l 1,0,-1
1390 602 m 2,8,9
 1390 308 1390 308 1223.5 142 c 128,-1,10
 1057 -24 1057 -24 761 -24 c 0,11,12
 445 -24 445 -24 261.5 177.5 c 128,-1,13
 78 379 78 379 78 727 c 0,14,15
 78 1070 78 1070 260.5 1268.5 c 128,-1,16
 443 1467 443 1467 756 1467 c 0,17,18
 1002 1467 1002 1467 1173 1334 c 128,-1,19
 1344 1201 1344 1201 1379 984 c 1,20,-1
 1117 984 l 1,21,22
 1080 1108 1080 1108 985 1178 c 128,-1,23
 890 1248 890 1248 757 1248 c 0,24,25
 562 1248 562 1248 452 1111 c 128,-1,26
 342 974 342 974 342 730 c 0,27,28
 342 481 342 481 455.5 338 c 128,-1,29
 569 195 569 195 764 195 c 0,30,31
 927 195 927 195 1030.5 289 c 128,-1,32
 1134 383 1134 383 1137 535 c 2,33,-1
 1138 559 l 1,34,-1
 790 559 l 1,35,-1
 790 756 l 1,36,-1
 1390 756 l 1,37,-1
 1390 602 l 2,8,9
EndSplineSet
EndChar

StartChar: gcircumflex
Encoding: 285 285 221
Width: 1215
GlyphClass: 2
Flags: W
LayerCount: 2
Fore
SplineSet
681 1563 m 1,0,-1
 951 1252 l 1,1,-1
 749 1252 l 1,2,-1
 592 1444 l 1,3,-1
 585 1444 l 1,4,-1
 428 1252 l 1,5,-1
 226 1252 l 1,6,-1
 496 1563 l 1,7,-1
 681 1563 l 1,0,-1
585 205 m 0,8,9
 710 205 710 205 785 298.5 c 128,-1,10
 860 392 860 392 860 549 c 0,11,12
 860 707 860 707 784.5 802.5 c 128,-1,13
 709 898 709 898 585 898 c 0,14,15
 462 898 462 898 388.5 803.5 c 128,-1,16
 315 709 315 709 315 549 c 0,17,18
 315 391 315 391 388.5 298 c 128,-1,19
 462 205 462 205 585 205 c 0,8,9
585 -396 m 0,20,21
 380 -396 380 -396 247 -310.5 c 128,-1,22
 114 -225 114 -225 100 -82 c 1,23,-1
 349 -82 l 1,24,25
 365 -141 365 -141 431.5 -175.5 c 128,-1,26
 498 -210 498 -210 593 -210 c 0,27,28
 715 -210 715 -210 787.5 -151.5 c 128,-1,29
 860 -93 860 -93 860 8 c 2,30,-1
 860 194 l 1,31,-1
 854 194 l 1,32,33
 810 106 810 106 719 55 c 128,-1,34
 628 4 628 4 511 4 c 0,35,36
 307 4 307 4 183.5 152.5 c 128,-1,37
 60 301 60 301 60 550 c 0,38,39
 60 804 60 804 183.5 954.5 c 128,-1,40
 307 1105 307 1105 516 1105 c 0,41,42
 632 1105 632 1105 722 1053 c 128,-1,43
 812 1001 812 1001 860 909 c 1,44,-1
 865 909 l 1,45,-1
 865 1093 l 1,46,-1
 1109 1093 l 1,47,-1
 1109 27 l 2,48,49
 1109 -168 1109 -168 967.5 -282 c 128,-1,50
 826 -396 826 -396 585 -396 c 0,20,21
EndSplineSet
EndChar

StartChar: Gbreve
Encoding: 286 286 222
Width: 1473
GlyphClass: 2
Flags: W
LayerCount: 2
Fore
SplineSet
1390 602 m 2,0,1
 1390 308 1390 308 1223.5 142 c 128,-1,2
 1057 -24 1057 -24 761 -24 c 0,3,4
 445 -24 445 -24 261.5 177.5 c 128,-1,5
 78 379 78 379 78 727 c 0,6,7
 78 1070 78 1070 260.5 1268.5 c 128,-1,8
 443 1467 443 1467 756 1467 c 0,9,10
 1002 1467 1002 1467 1173 1334 c 128,-1,11
 1344 1201 1344 1201 1379 984 c 1,12,-1
 1117 984 l 1,13,14
 1080 1108 1080 1108 985 1178 c 128,-1,15
 890 1248 890 1248 757 1248 c 0,16,17
 562 1248 562 1248 452 1111 c 128,-1,18
 342 974 342 974 342 730 c 0,19,20
 342 481 342 481 455.5 338 c 128,-1,21
 569 195 569 195 764 195 c 0,22,23
 927 195 927 195 1030.5 289 c 128,-1,24
 1134 383 1134 383 1137 535 c 2,25,-1
 1138 559 l 1,26,-1
 790 559 l 1,27,-1
 790 756 l 1,28,-1
 1390 756 l 1,29,-1
 1390 602 l 2,0,1
411 1856 m 1,30,-1
 567 1856 l 1,31,32
 568 1778 568 1778 619 1726.5 c 128,-1,33
 670 1675 670 1675 748 1675 c 128,-1,34
 826 1675 826 1675 877 1726.5 c 128,-1,35
 928 1778 928 1778 929 1856 c 1,36,-1
 1085 1856 l 1,37,38
 1083 1720 1083 1720 991 1633 c 128,-1,39
 899 1546 899 1546 748 1546 c 128,-1,40
 597 1546 597 1546 505 1633 c 128,-1,41
 413 1720 413 1720 411 1856 c 1,30,-1
EndSplineSet
EndChar

StartChar: gbreve
Encoding: 287 287 223
Width: 1215
GlyphClass: 2
Flags: W
LayerCount: 2
Fore
SplineSet
243 1563 m 1,0,-1
 402 1563 l 1,1,2
 403 1484 403 1484 455.5 1430.5 c 128,-1,3
 508 1377 508 1377 588 1377 c 128,-1,4
 668 1377 668 1377 720.5 1430.5 c 128,-1,5
 773 1484 773 1484 774 1563 c 1,6,-1
 933 1563 l 1,7,8
 931 1423 931 1423 837 1334 c 128,-1,9
 743 1245 743 1245 588 1245 c 128,-1,10
 433 1245 433 1245 339 1334 c 128,-1,11
 245 1423 245 1423 243 1563 c 1,0,-1
585 205 m 0,12,13
 710 205 710 205 785 298.5 c 128,-1,14
 860 392 860 392 860 549 c 0,15,16
 860 707 860 707 784.5 802.5 c 128,-1,17
 709 898 709 898 585 898 c 0,18,19
 462 898 462 898 388.5 803.5 c 128,-1,20
 315 709 315 709 315 549 c 0,21,22
 315 391 315 391 388.5 298 c 128,-1,23
 462 205 462 205 585 205 c 0,12,13
585 -396 m 0,24,25
 380 -396 380 -396 247 -310.5 c 128,-1,26
 114 -225 114 -225 100 -82 c 1,27,-1
 349 -82 l 1,28,29
 365 -141 365 -141 431.5 -175.5 c 128,-1,30
 498 -210 498 -210 593 -210 c 0,31,32
 715 -210 715 -210 787.5 -151.5 c 128,-1,33
 860 -93 860 -93 860 8 c 2,34,-1
 860 194 l 1,35,-1
 854 194 l 1,36,37
 810 106 810 106 719 55 c 128,-1,38
 628 4 628 4 511 4 c 0,39,40
 307 4 307 4 183.5 152.5 c 128,-1,41
 60 301 60 301 60 550 c 0,42,43
 60 804 60 804 183.5 954.5 c 128,-1,44
 307 1105 307 1105 516 1105 c 0,45,46
 632 1105 632 1105 722 1053 c 128,-1,47
 812 1001 812 1001 860 909 c 1,48,-1
 865 909 l 1,49,-1
 865 1093 l 1,50,-1
 1109 1093 l 1,51,-1
 1109 27 l 2,52,53
 1109 -168 1109 -168 967.5 -282 c 128,-1,54
 826 -396 826 -396 585 -396 c 0,24,25
EndSplineSet
EndChar

StartChar: Gdotaccent
Encoding: 288 288 224
Width: 1473
GlyphClass: 2
Flags: W
LayerCount: 2
Fore
SplineSet
748 1569 m 128,-1,1
 690 1569 690 1569 649.5 1610 c 128,-1,2
 609 1651 609 1651 609 1708 c 0,3,4
 609 1766 609 1766 649.5 1806.5 c 128,-1,5
 690 1847 690 1847 748 1847 c 128,-1,6
 806 1847 806 1847 846.5 1806.5 c 128,-1,7
 887 1766 887 1766 887 1708 c 0,8,9
 887 1651 887 1651 846.5 1610 c 128,-1,0
 806 1569 806 1569 748 1569 c 128,-1,1
1390 602 m 2,10,11
 1390 308 1390 308 1223.5 142 c 128,-1,12
 1057 -24 1057 -24 761 -24 c 0,13,14
 445 -24 445 -24 261.5 177.5 c 128,-1,15
 78 379 78 379 78 727 c 0,16,17
 78 1070 78 1070 260.5 1268.5 c 128,-1,18
 443 1467 443 1467 756 1467 c 0,19,20
 1002 1467 1002 1467 1173 1334 c 128,-1,21
 1344 1201 1344 1201 1379 984 c 1,22,-1
 1117 984 l 1,23,24
 1080 1108 1080 1108 985 1178 c 128,-1,25
 890 1248 890 1248 757 1248 c 0,26,27
 562 1248 562 1248 452 1111 c 128,-1,28
 342 974 342 974 342 730 c 0,29,30
 342 481 342 481 455.5 338 c 128,-1,31
 569 195 569 195 764 195 c 0,32,33
 927 195 927 195 1030.5 289 c 128,-1,34
 1134 383 1134 383 1137 535 c 2,35,-1
 1138 559 l 1,36,-1
 790 559 l 1,37,-1
 790 756 l 1,38,-1
 1390 756 l 1,39,-1
 1390 602 l 2,10,11
EndSplineSet
EndChar

StartChar: gdotaccent
Encoding: 289 289 225
Width: 1215
GlyphClass: 2
Flags: W
LayerCount: 2
Fore
SplineSet
589 1262 m 0,0,1
 530 1262 530 1262 489 1303 c 128,-1,2
 448 1344 448 1344 448 1402 c 0,3,4
 448 1459 448 1459 489 1500 c 128,-1,5
 530 1541 530 1541 589 1541 c 0,6,7
 647 1541 647 1541 688 1500 c 128,-1,8
 729 1459 729 1459 729 1402 c 0,9,10
 729 1344 729 1344 688 1303 c 128,-1,11
 647 1262 647 1262 589 1262 c 0,0,1
585 205 m 0,12,13
 710 205 710 205 785 298.5 c 128,-1,14
 860 392 860 392 860 549 c 0,15,16
 860 707 860 707 784.5 802.5 c 128,-1,17
 709 898 709 898 585 898 c 0,18,19
 462 898 462 898 388.5 803.5 c 128,-1,20
 315 709 315 709 315 549 c 0,21,22
 315 391 315 391 388.5 298 c 128,-1,23
 462 205 462 205 585 205 c 0,12,13
585 -396 m 0,24,25
 380 -396 380 -396 247 -310.5 c 128,-1,26
 114 -225 114 -225 100 -82 c 1,27,-1
 349 -82 l 1,28,29
 365 -141 365 -141 431.5 -175.5 c 128,-1,30
 498 -210 498 -210 593 -210 c 0,31,32
 715 -210 715 -210 787.5 -151.5 c 128,-1,33
 860 -93 860 -93 860 8 c 2,34,-1
 860 194 l 1,35,-1
 854 194 l 1,36,37
 810 106 810 106 719 55 c 128,-1,38
 628 4 628 4 511 4 c 0,39,40
 307 4 307 4 183.5 152.5 c 128,-1,41
 60 301 60 301 60 550 c 0,42,43
 60 804 60 804 183.5 954.5 c 128,-1,44
 307 1105 307 1105 516 1105 c 0,45,46
 632 1105 632 1105 722 1053 c 128,-1,47
 812 1001 812 1001 860 909 c 1,48,-1
 865 909 l 1,49,-1
 865 1093 l 1,50,-1
 1109 1093 l 1,51,-1
 1109 27 l 2,52,53
 1109 -168 1109 -168 967.5 -282 c 128,-1,54
 826 -396 826 -396 585 -396 c 0,24,25
EndSplineSet
EndChar

StartChar: Gcommaaccent
Encoding: 290 290 226
Width: 1473
GlyphClass: 2
Flags: W
LayerCount: 2
Fore
SplineSet
728 -515 m 1,0,-1
 545 -515 l 1,1,-1
 655 -161 l 1,2,-1
 874 -161 l 1,3,-1
 728 -515 l 1,0,-1
1390 602 m 2,4,5
 1390 308 1390 308 1223.5 142 c 128,-1,6
 1057 -24 1057 -24 761 -24 c 0,7,8
 445 -24 445 -24 261.5 177.5 c 128,-1,9
 78 379 78 379 78 727 c 0,10,11
 78 1070 78 1070 260.5 1268.5 c 128,-1,12
 443 1467 443 1467 756 1467 c 0,13,14
 1002 1467 1002 1467 1173 1334 c 128,-1,15
 1344 1201 1344 1201 1379 984 c 1,16,-1
 1117 984 l 1,17,18
 1080 1108 1080 1108 985 1178 c 128,-1,19
 890 1248 890 1248 757 1248 c 0,20,21
 562 1248 562 1248 452 1111 c 128,-1,22
 342 974 342 974 342 730 c 0,23,24
 342 481 342 481 455.5 338 c 128,-1,25
 569 195 569 195 764 195 c 0,26,27
 927 195 927 195 1030.5 289 c 128,-1,28
 1134 383 1134 383 1137 535 c 2,29,-1
 1138 559 l 1,30,-1
 790 559 l 1,31,-1
 790 756 l 1,32,-1
 1390 756 l 1,33,-1
 1390 602 l 2,4,5
EndSplineSet
EndChar

StartChar: gcommaaccent
Encoding: 291 291 227
Width: 1215
GlyphClass: 2
Flags: W
LayerCount: 2
Fore
SplineSet
571 -892 m 1,0,-1
 388 -892 l 1,1,-1
 498 -538 l 1,2,-1
 717 -538 l 1,3,-1
 571 -892 l 1,0,-1
585 205 m 0,4,5
 710 205 710 205 785 298.5 c 128,-1,6
 860 392 860 392 860 549 c 0,7,8
 860 707 860 707 784.5 802.5 c 128,-1,9
 709 898 709 898 585 898 c 0,10,11
 462 898 462 898 388.5 803.5 c 128,-1,12
 315 709 315 709 315 549 c 0,13,14
 315 391 315 391 388.5 298 c 128,-1,15
 462 205 462 205 585 205 c 0,4,5
585 -396 m 0,16,17
 380 -396 380 -396 247 -310.5 c 128,-1,18
 114 -225 114 -225 100 -82 c 1,19,-1
 349 -82 l 1,20,21
 365 -141 365 -141 431.5 -175.5 c 128,-1,22
 498 -210 498 -210 593 -210 c 0,23,24
 715 -210 715 -210 787.5 -151.5 c 128,-1,25
 860 -93 860 -93 860 8 c 2,26,-1
 860 194 l 1,27,-1
 854 194 l 1,28,29
 810 106 810 106 719 55 c 128,-1,30
 628 4 628 4 511 4 c 0,31,32
 307 4 307 4 183.5 152.5 c 128,-1,33
 60 301 60 301 60 550 c 0,34,35
 60 804 60 804 183.5 954.5 c 128,-1,36
 307 1105 307 1105 516 1105 c 0,37,38
 632 1105 632 1105 722 1053 c 128,-1,39
 812 1001 812 1001 860 909 c 1,40,-1
 865 909 l 1,41,-1
 865 1093 l 1,42,-1
 1109 1093 l 1,43,-1
 1109 27 l 2,44,45
 1109 -168 1109 -168 967.5 -282 c 128,-1,46
 826 -396 826 -396 585 -396 c 0,16,17
EndSplineSet
EndChar

StartChar: Hcircumflex
Encoding: 292 292 228
Width: 1471
GlyphClass: 2
Flags: W
LayerCount: 2
Fore
SplineSet
1344 0 m 1,0,-1
 1087 0 l 1,1,-1
 1087 626 l 1,2,-1
 385 626 l 1,3,-1
 385 0 l 1,4,-1
 127 0 l 1,5,-1
 127 1443 l 1,6,-1
 385 1443 l 1,7,-1
 385 843 l 1,8,-1
 1087 843 l 1,9,-1
 1087 1443 l 1,10,-1
 1344 1443 l 1,11,-1
 1344 0 l 1,0,-1
638 1856 m 1,12,-1
 834 1856 l 1,13,-1
 1115 1546 l 1,14,-1
 912 1546 l 1,15,-1
 738 1744 l 1,16,-1
 734 1744 l 1,17,-1
 560 1546 l 1,18,-1
 357 1546 l 1,19,-1
 638 1856 l 1,12,-1
EndSplineSet
EndChar

StartChar: hcircumflex
Encoding: 293 293 229
Width: 1218
GlyphClass: 2
Flags: W
LayerCount: 2
Fore
SplineSet
114 0 m 1,0,-1
 114 1510 l 1,1,-1
 360 1510 l 1,2,-1
 360 903 l 1,3,-1
 365 903 l 1,4,5
 413 1003 413 1003 503.5 1054.5 c 128,-1,6
 594 1106 594 1106 720 1106 c 0,7,8
 901 1106 901 1106 1009 995.5 c 128,-1,9
 1117 885 1117 885 1117 698 c 2,10,-1
 1117 0 l 1,11,-1
 868 0 l 1,12,-1
 868 648 l 2,13,14
 868 764 868 764 803.5 829.5 c 128,-1,15
 739 895 739 895 626 895 c 0,16,17
 509 895 509 895 436 820 c 128,-1,18
 363 745 363 745 363 623 c 2,19,-1
 363 0 l 1,20,-1
 114 0 l 1,0,-1
141 1923 m 1,21,-1
 337 1923 l 1,22,-1
 618 1613 l 1,23,-1
 415 1613 l 1,24,-1
 241 1811 l 1,25,-1
 237 1811 l 1,26,-1
 63 1613 l 1,27,-1
 -140 1613 l 1,28,-1
 141 1923 l 1,21,-1
EndSplineSet
EndChar

StartChar: Hbar
Encoding: 294 294 230
Width: 1499
GlyphClass: 2
Flags: W
LayerCount: 2
Fore
SplineSet
1100 843 m 1,0,-1
 1100 1060 l 1,1,-1
 398 1060 l 1,2,-1
 398 843 l 1,3,-1
 1100 843 l 1,0,-1
1474 1246 m 1,4,-1
 1474 1060 l 1,5,-1
 1357 1060 l 1,6,-1
 1357 0 l 1,7,-1
 1100 0 l 1,8,-1
 1100 626 l 1,9,-1
 398 626 l 1,10,-1
 398 0 l 1,11,-1
 140 0 l 1,12,-1
 140 1060 l 1,13,-1
 24 1060 l 1,14,-1
 24 1246 l 1,15,-1
 140 1246 l 1,16,-1
 140 1443 l 1,17,-1
 398 1443 l 1,18,-1
 398 1246 l 1,19,-1
 1100 1246 l 1,20,-1
 1100 1443 l 1,21,-1
 1357 1443 l 1,22,-1
 1357 1246 l 1,23,-1
 1474 1246 l 1,4,-1
EndSplineSet
EndChar

StartChar: hbar
Encoding: 295 295 231
Width: 1259
GlyphClass: 2
Flags: W
LayerCount: 2
Fore
SplineSet
380 913 m 1,0,-1
 390 913 l 1,1,2
 435 1006 435 1006 526 1056 c 128,-1,3
 617 1106 617 1106 741 1106 c 0,4,5
 921 1106 921 1106 1029 995.5 c 128,-1,6
 1137 885 1137 885 1137 698 c 2,7,-1
 1137 0 l 1,8,-1
 888 0 l 1,9,-1
 888 648 l 2,10,11
 888 765 888 765 823.5 830.5 c 128,-1,12
 759 896 759 896 647 896 c 0,13,14
 530 896 530 896 457 821 c 128,-1,15
 384 746 384 746 384 623 c 2,16,-1
 384 0 l 1,17,-1
 135 0 l 1,18,-1
 135 1244 l 1,19,-1
 33 1244 l 1,20,-1
 33 1384 l 1,21,-1
 135 1384 l 1,22,-1
 135 1557 l 1,23,-1
 380 1557 l 1,24,-1
 380 1384 l 1,25,-1
 622 1384 l 1,26,-1
 622 1244 l 1,27,-1
 380 1244 l 1,28,-1
 380 913 l 1,0,-1
EndSplineSet
EndChar

StartChar: Itilde
Encoding: 296 296 232
Width: 512
GlyphClass: 2
Flags: W
LayerCount: 2
Fore
SplineSet
385 0 m 1,0,-1
 127 0 l 1,1,-1
 127 1443 l 1,2,-1
 385 1443 l 1,3,-1
 385 0 l 1,0,-1
391 1538 m 0,4,5
 354 1538 354 1538 321 1552.5 c 128,-1,6
 288 1567 288 1567 264.5 1588 c 128,-1,7
 241 1609 241 1609 220.5 1630 c 128,-1,8
 200 1651 200 1651 178.5 1665.5 c 128,-1,9
 157 1680 157 1680 136 1680 c 0,10,11
 104 1680 104 1680 86 1646.5 c 128,-1,12
 68 1613 68 1613 67 1554 c 1,13,-1
 -74 1554 l 1,14,15
 -74 1677 -74 1677 -19 1747.5 c 128,-1,16
 36 1818 36 1818 127 1818 c 0,17,18
 166 1818 166 1818 200 1803.5 c 128,-1,19
 234 1789 234 1789 258 1768 c 128,-1,20
 282 1747 282 1747 303 1726 c 128,-1,21
 324 1705 324 1705 345 1690.5 c 128,-1,22
 366 1676 366 1676 385 1676 c 0,23,24
 448 1676 448 1676 450 1804 c 1,25,-1
 591 1804 l 1,26,27
 591 1683 591 1683 535 1610.5 c 128,-1,28
 479 1538 479 1538 391 1538 c 0,4,5
EndSplineSet
EndChar

StartChar: itilde
Encoding: 297 297 233
Width: 475
GlyphClass: 2
Flags: W
LayerCount: 2
Fore
SplineSet
113 0 m 1,0,-1
 113 1093 l 1,1,-1
 362 1093 l 1,2,-1
 362 0 l 1,3,-1
 113 0 l 1,0,-1
375 1258 m 0,4,5
 338 1258 338 1258 305 1272.5 c 128,-1,6
 272 1287 272 1287 248.5 1308 c 128,-1,7
 225 1329 225 1329 204.5 1350 c 128,-1,8
 184 1371 184 1371 162.5 1385.5 c 128,-1,9
 141 1400 141 1400 120 1400 c 0,10,11
 88 1400 88 1400 70 1366.5 c 128,-1,12
 52 1333 52 1333 51 1274 c 1,13,-1
 -90 1274 l 1,14,15
 -90 1397 -90 1397 -35 1467.5 c 128,-1,16
 20 1538 20 1538 111 1538 c 0,17,18
 150 1538 150 1538 184 1523.5 c 128,-1,19
 218 1509 218 1509 242 1488 c 128,-1,20
 266 1467 266 1467 287 1446 c 128,-1,21
 308 1425 308 1425 329 1410.5 c 128,-1,22
 350 1396 350 1396 369 1396 c 0,23,24
 432 1396 432 1396 434 1524 c 1,25,-1
 575 1524 l 1,26,27
 575 1403 575 1403 519 1330.5 c 128,-1,28
 463 1258 463 1258 375 1258 c 0,4,5
EndSplineSet
EndChar

StartChar: Imacron
Encoding: 298 298 234
Width: 512
GlyphClass: 2
Flags: W
LayerCount: 2
Fore
SplineSet
385 0 m 1,0,-1
 127 0 l 1,1,-1
 127 1443 l 1,2,-1
 385 1443 l 1,3,-1
 385 0 l 1,0,-1
591 1760 m 1,4,-1
 591 1631 l 1,5,-1
 -79 1631 l 1,6,-1
 -79 1760 l 1,7,-1
 591 1760 l 1,4,-1
EndSplineSet
EndChar

StartChar: imacron
Encoding: 299 299 235
Width: 475
GlyphClass: 2
Flags: W
LayerCount: 2
Fore
SplineSet
113 0 m 1,0,-1
 113 1093 l 1,1,-1
 362 1093 l 1,2,-1
 362 0 l 1,3,-1
 113 0 l 1,0,-1
565 1436 m 1,4,-1
 565 1306 l 1,5,-1
 -91 1306 l 1,6,-1
 -91 1436 l 1,7,-1
 565 1436 l 1,4,-1
EndSplineSet
EndChar

StartChar: Ibreve
Encoding: 300 300 236
Width: 512
GlyphClass: 2
Flags: W
LayerCount: 2
Fore
SplineSet
385 0 m 1,0,-1
 127 0 l 1,1,-1
 127 1443 l 1,2,-1
 385 1443 l 1,3,-1
 385 0 l 1,0,-1
-81 1856 m 1,4,-1
 75 1856 l 1,5,6
 76 1778 76 1778 127 1726.5 c 128,-1,7
 178 1675 178 1675 256 1675 c 128,-1,8
 334 1675 334 1675 385 1726.5 c 128,-1,9
 436 1778 436 1778 437 1856 c 1,10,-1
 593 1856 l 1,11,12
 591 1720 591 1720 499 1633 c 128,-1,13
 407 1546 407 1546 256 1546 c 128,-1,14
 105 1546 105 1546 13 1633 c 128,-1,15
 -79 1720 -79 1720 -81 1856 c 1,4,-1
EndSplineSet
EndChar

StartChar: ibreve
Encoding: 301 301 237
Width: 475
GlyphClass: 2
Flags: W
LayerCount: 2
Fore
SplineSet
113 0 m 1,0,-1
 113 1093 l 1,1,-1
 362 1093 l 1,2,-1
 362 0 l 1,3,-1
 113 0 l 1,0,-1
-109 1563 m 1,4,-1
 50 1563 l 1,5,6
 51 1484 51 1484 103.5 1430.5 c 128,-1,7
 156 1377 156 1377 236 1377 c 128,-1,8
 316 1377 316 1377 368.5 1430.5 c 128,-1,9
 421 1484 421 1484 422 1563 c 1,10,-1
 581 1563 l 1,11,12
 579 1423 579 1423 485 1334 c 128,-1,13
 391 1245 391 1245 236 1245 c 128,-1,14
 81 1245 81 1245 -13 1334 c 128,-1,15
 -107 1423 -107 1423 -109 1563 c 1,4,-1
EndSplineSet
EndChar

StartChar: Iogonek
Encoding: 302 302 238
Width: 512
GlyphClass: 2
Flags: W
LayerCount: 2
Fore
SplineSet
256 -445 m 0,0,1
 148 -445 148 -445 81 -384.5 c 128,-1,2
 14 -324 14 -324 14 -226 c 0,3,4
 14 -150 14 -150 49.5 -92.5 c 128,-1,5
 85 -35 85 -35 165 16 c 1,6,-1
 127 16 l 1,7,-1
 127 1443 l 1,8,-1
 385 1443 l 1,9,-1
 385 9 l 1,10,-1
 351 9 l 1,11,12
 197 -64 197 -64 197 -178 c 0,13,14
 197 -229 197 -229 229 -259.5 c 128,-1,15
 261 -290 261 -290 313 -290 c 0,16,17
 345 -290 345 -290 366 -286 c 1,18,-1
 366 -431 l 1,19,20
 318 -445 318 -445 256 -445 c 0,0,1
EndSplineSet
EndChar

StartChar: iogonek
Encoding: 303 303 239
Width: 475
GlyphClass: 2
Flags: W
LayerCount: 2
Fore
SplineSet
237 1232 m 0,0,1
 179 1232 179 1232 138 1272 c 128,-1,2
 97 1312 97 1312 97 1369 c 0,3,4
 97 1427 97 1427 138 1466.5 c 128,-1,5
 179 1506 179 1506 237 1506 c 0,6,7
 296 1506 296 1506 336.5 1466.5 c 128,-1,8
 377 1427 377 1427 377 1369 c 128,-1,9
 377 1311 377 1311 336.5 1271.5 c 128,-1,10
 296 1232 296 1232 237 1232 c 0,0,1
251 -445 m 0,11,12
 143 -445 143 -445 76 -384.5 c 128,-1,13
 9 -324 9 -324 9 -226 c 0,14,15
 9 -74 9 -74 161 16 c 1,16,-1
 113 16 l 1,17,-1
 113 1093 l 1,18,-1
 362 1093 l 1,19,-1
 362 13 l 1,20,-1
 343 13 l 1,21,22
 191 -60 191 -60 191 -178 c 0,23,24
 191 -229 191 -229 223 -259.5 c 128,-1,25
 255 -290 255 -290 308 -290 c 0,26,27
 338 -290 338 -290 361 -286 c 1,28,-1
 361 -431 l 1,29,30
 314 -445 314 -445 251 -445 c 0,11,12
EndSplineSet
EndChar

StartChar: Idotaccent
Encoding: 304 304 240
Width: 512
GlyphClass: 2
Flags: W
LayerCount: 2
Fore
SplineSet
385 0 m 1,0,-1
 127 0 l 1,1,-1
 127 1443 l 1,2,-1
 385 1443 l 1,3,-1
 385 0 l 1,0,-1
256 1569 m 128,-1,5
 198 1569 198 1569 157.5 1610 c 128,-1,6
 117 1651 117 1651 117 1708 c 0,7,8
 117 1766 117 1766 157.5 1806.5 c 128,-1,9
 198 1847 198 1847 256 1847 c 128,-1,10
 314 1847 314 1847 354.5 1806.5 c 128,-1,11
 395 1766 395 1766 395 1708 c 0,12,13
 395 1651 395 1651 354.5 1610 c 128,-1,4
 314 1569 314 1569 256 1569 c 128,-1,5
EndSplineSet
EndChar

StartChar: dotlessi
Encoding: 305 305 241
Width: 475
GlyphClass: 2
Flags: W
LayerCount: 2
Fore
SplineSet
113 0 m 1,0,-1
 113 1093 l 1,1,-1
 362 1093 l 1,2,-1
 362 0 l 1,3,-1
 113 0 l 1,0,-1
EndSplineSet
EndChar

StartChar: u0132
Encoding: 306 306 242
Width: 1608
GlyphClass: 2
Flags: W
LayerCount: 2
Fore
SplineSet
385 0 m 1,0,-1
 127 0 l 1,1,-1
 127 1443 l 1,2,-1
 385 1443 l 1,3,-1
 385 0 l 1,0,-1
547 394 m 1,4,-1
 798 394 l 1,5,6
 800 305 800 305 856.5 250 c 128,-1,7
 913 195 913 195 1003 195 c 0,8,9
 1107 195 1107 195 1161.5 256.5 c 128,-1,10
 1216 318 1216 318 1216 435 c 2,11,-1
 1216 1443 l 1,12,-1
 1473 1443 l 1,13,-1
 1473 433 l 2,14,15
 1473 213 1473 213 1349.5 91 c 128,-1,16
 1226 -31 1226 -31 1006 -31 c 0,17,18
 799 -31 799 -31 673 85.5 c 128,-1,19
 547 202 547 202 547 394 c 1,4,-1
EndSplineSet
EndChar

StartChar: u0133
Encoding: 307 307 243
Width: 949
GlyphClass: 2
Flags: W
LayerCount: 2
Fore
SplineSet
113 0 m 1,0,-1
 113 1093 l 1,1,-1
 362 1093 l 1,2,-1
 362 0 l 1,3,-1
 113 0 l 1,0,-1
237 1232 m 0,4,5
 179 1232 179 1232 138 1272 c 128,-1,6
 97 1312 97 1312 97 1369 c 0,7,8
 97 1427 97 1427 138 1466.5 c 128,-1,9
 179 1506 179 1506 237 1506 c 0,10,11
 296 1506 296 1506 336.5 1466.5 c 128,-1,12
 377 1427 377 1427 377 1369 c 128,-1,13
 377 1311 377 1311 336.5 1271.5 c 128,-1,14
 296 1232 296 1232 237 1232 c 0,4,5
837 1093 m 1,15,-1
 837 -53 l 2,16,17
 837 -384 837 -384 468 -384 c 0,18,19
 423 -384 423 -384 407 -382 c 1,20,-1
 407 -191 l 1,21,22
 411 -192 411 -192 440 -192 c 0,23,24
 520 -192 520 -192 554 -159.5 c 128,-1,25
 588 -127 588 -127 588 -49 c 2,26,-1
 588 1093 l 1,27,-1
 837 1093 l 1,15,-1
712 1232 m 0,28,29
 654 1232 654 1232 613 1272 c 128,-1,30
 572 1312 572 1312 572 1369 c 0,31,32
 572 1427 572 1427 613 1466.5 c 128,-1,33
 654 1506 654 1506 712 1506 c 0,34,35
 771 1506 771 1506 811.5 1466.5 c 128,-1,36
 852 1427 852 1427 852 1369 c 128,-1,37
 852 1311 852 1311 811.5 1271.5 c 128,-1,38
 771 1232 771 1232 712 1232 c 0,28,29
EndSplineSet
EndChar

StartChar: Jcircumflex
Encoding: 308 308 244
Width: 1096
GlyphClass: 2
Flags: W
LayerCount: 2
Fore
SplineSet
35 394 m 1,0,-1
 286 394 l 1,1,2
 288 305 288 305 344.5 250 c 128,-1,3
 401 195 401 195 491 195 c 0,4,5
 595 195 595 195 649.5 256.5 c 128,-1,6
 704 318 704 318 704 435 c 2,7,-1
 704 1443 l 1,8,-1
 961 1443 l 1,9,-1
 961 433 l 2,10,11
 961 213 961 213 837.5 91 c 128,-1,12
 714 -31 714 -31 494 -31 c 0,13,14
 287 -31 287 -31 161 85.5 c 128,-1,15
 35 202 35 202 35 394 c 1,0,-1
738 1856 m 1,16,-1
 934 1856 l 1,17,-1
 1215 1546 l 1,18,-1
 1012 1546 l 1,19,-1
 838 1744 l 1,20,-1
 834 1744 l 1,21,-1
 660 1546 l 1,22,-1
 457 1546 l 1,23,-1
 738 1856 l 1,16,-1
EndSplineSet
EndChar

StartChar: jcircumflex
Encoding: 309 309 245
Width: 473
GlyphClass: 2
Flags: W
LayerCount: 2
Fore
SplineSet
360 1093 m 1,0,-1
 360 -53 l 2,1,2
 360 -220 360 -220 268.5 -302 c 128,-1,3
 177 -384 177 -384 -8 -384 c 0,4,5
 -52 -384 -52 -384 -68 -382 c 1,6,-1
 -68 -191 l 1,7,8
 -64 -192 -64 -192 -36 -192 c 0,9,10
 45 -192 45 -192 79 -159.5 c 128,-1,11
 113 -127 113 -127 113 -49 c 2,12,-1
 113 1093 l 1,13,-1
 360 1093 l 1,0,-1
329 1563 m 1,14,-1
 599 1252 l 1,15,-1
 397 1252 l 1,16,-1
 240 1444 l 1,17,-1
 233 1444 l 1,18,-1
 76 1252 l 1,19,-1
 -126 1252 l 1,20,-1
 144 1563 l 1,21,-1
 329 1563 l 1,14,-1
EndSplineSet
EndChar

StartChar: Kcommaaccent
Encoding: 310 310 246
Width: 1319
GlyphClass: 2
Flags: W
LayerCount: 2
Fore
SplineSet
385 0 m 1,0,-1
 127 0 l 1,1,-1
 127 1443 l 1,2,-1
 385 1443 l 1,3,-1
 385 768 l 1,4,-1
 394 768 l 1,5,-1
 970 1443 l 1,6,-1
 1267 1443 l 1,7,-1
 711 803 l 1,8,-1
 1310 0 l 1,9,-1
 996 0 l 1,10,-1
 527 630 l 1,11,-1
 385 464 l 1,12,-1
 385 0 l 1,0,-1
625 -515 m 1,13,-1
 442 -515 l 1,14,-1
 552 -161 l 1,15,-1
 771 -161 l 1,16,-1
 625 -515 l 1,13,-1
EndSplineSet
EndChar

